<?xml version="1.0" encoding="UTF-8" standalone="no"?>
<svg
   xmlns:dc="http://purl.org/dc/elements/1.1/"
   xmlns:cc="http://creativecommons.org/ns#"
   xmlns:rdf="http://www.w3.org/1999/02/22-rdf-syntax-ns#"
   xmlns:svg="http://www.w3.org/2000/svg"
   xmlns="http://www.w3.org/2000/svg"
   xmlns:sodipodi="http://sodipodi.sourceforge.net/DTD/sodipodi-0.dtd"
   xmlns:inkscape="http://www.inkscape.org/namespaces/inkscape"
   width="1.9317657in"
   height="2.0794141in"
   viewBox="0 0 579.53048 623.825"
   version="1.1"
   id="svg2537"
   sodipodi:docname="FacePath.svg"
   inkscape:version="0.92.4 (5da689c313, 2019-01-14)">
  <metadata
     id="metadata2543">
    <rdf:RDF>
      <cc:Work
         rdf:about="">
        <dc:format>image/svg+xml</dc:format>
        <dc:type
           rdf:resource="http://purl.org/dc/dcmitype/StillImage" />
        <dc:title></dc:title>
      </cc:Work>
    </rdf:RDF>
  </metadata>
  <defs
     id="defs2541" />
  <sodipodi:namedview
     pagecolor="#ffffff"
     bordercolor="#666666"
     borderopacity="1"
     objecttolerance="10"
     gridtolerance="10"
     guidetolerance="10"
     inkscape:pageopacity="0"
     inkscape:pageshadow="2"
     inkscape:window-width="1920"
     inkscape:window-height="1017"
     id="namedview2539"
     showgrid="false"
     fit-margin-top="0"
     fit-margin-left="0"
     fit-margin-right="0"
     fit-margin-bottom="0"
     inkscape:zoom="2.6404653"
     inkscape:cx="11.765856"
     inkscape:cy="104.35238"
     inkscape:window-x="-8"
     inkscape:window-y="-7"
     inkscape:window-maximized="1"
     inkscape:current-layer="svg2537" />
  <path
     id="FacePath"
     d="m 61.538072,400.65201 c 0.45,12.27 -1.5,28.5 3.5,58 5,29.5 14.5,30 42.500008,64.5 28,34.5 56.5,66.5 75,78 18.5,11.5 36.5,15.5 54.5,18.5 18,3 30.5,3.5 44.5,-5 7.82,-4.75 24.5,-31.5 35.5,-45 11,-13.5 19.93,-14.22 22,-20.5 4.68,-14.23 -7.06,-25.25 -9,-27.5 -1.94,-2.25 -14.56,-16.81 -18.5,-18.5 -3.94,-1.69 -15.75,2.19 -18,1.5 -2.25,-0.69 -7.19,-8.38 -16.5,-10 -9.31,-1.62 -53.05,-3.55 -65.5,-1.5 -12.45,2.05 25,33.05 34.5,37 9.5,3.95 35.75,12.12 48.5,11 12.75,-1.12 35.26,-13.2 43,-13.5 7.74,-0.3 7.07,2.83 15.5,0.5 8.43,-2.33 55.59,-79.23 63.5,-98.5 7.91,-19.27 13.18,-47.55 14,-58.5 0.82,-10.95 -3.18,-26.32 -7.73,-30.77 -4.54,-4.46 -14,-9 -22.54,-10.18 -8.55,-1.19 -19.82,-2.55 -25.64,0.54 -5.82,3.09 -6.82,17.18 -0.27,22 6.54,4.82 12.36,4.64 16.91,3.09 4.54,-1.54 9.72,-5 10.82,-12.27 1.09,-7.27 -0.82,-11 -7.1,-13.91 -6.27,-2.91 -19.09,-1.55 -26.9,3.45 -7.82,5 -13.28,7.91 -12,11.64 1.27,3.73 4.72,4.82 8.9,6.55 4.19,1.72 28.82,9.63 39.46,8.54 10.64,-1.09 14,-0.91 20,-4 6,-3.09 15.36,-13.18 19.34,-17.93 3.98,-4.75 5.48,-6.34 8.75,-12.13 3.27,-5.78 5.18,-20.85 -1.5,-26.37 -6.68,-5.52 -32.52,-2.93 -43.88,-0.75 -11.35,2.18 -49.62,23.64 -52.62,27.75 -3,4.11 44.55,-11.3 60.88,-11.63 16.32,-0.32 31.21,4.24 39,3 7.78,-1.23 -3.06,-16.85 -7.5,-19.87 -4.45,-3.02 -48.06,1.26 -55.83,5.02 -7.78,3.76 -23.91,17.28 -31.43,26.98 -7.51,9.7 -8.65,23.52 -9.57,30.2 -0.93,6.69 -1.73,30.55 -0.67,38.3 1.05,7.75 6.94,24.61 5.74,31.87 -1.19,7.27 -1.71,11.29 -6,18 -4.28,6.72 -8.44,9.38 -14.87,12.13 -6.43,2.75 -14.48,2.7 -20.75,0.37 -6.27,-2.32 -11.55,-8.03 -17.09,-10.48 -5.55,-2.46 -14.09,-5 -16.66,-7.89 -2.57,-2.89 -2.25,-3.93 -0.63,-5.63 1.63,-1.69 11.38,-1.67 15.88,0.5 4.5,2.18 8.95,3.56 9.25,9.26 0.3,5.69 -3.39,6.03 -8.63,6.5 -5.23,0.46 -13.85,-3.38 -18.62,-5.5 -4.77,-2.13 -11.14,-4.79 -13.12,-9.76 -1.99,-4.96 -1.74,-9.03 -0.26,-12.5 1.49,-3.46 6.88,-9.89 13.38,-15.74 6.5,-5.86 20.23,-13.06 25.25,-19.5 5.02,-6.45 13.7,-26.65 15.63,-35 1.92,-8.36 5.8,-21.74 5.62,-30.76 -0.18,-9.01 -7.18,-28.35 -11.25,-35.12 -4.07,-6.77 -15.93,-21.95 -22.93,-26.59 -7,-4.64 -15.91,-9.27 -27.46,-12.18 -11.54,-2.91 -25.45,-4.09 -37.63,-4.73 -12.18,-0.64 -13,-1.09 -36.18,-0.73 -23.19,0.37 31.9,13 45.09,15.28 13.18,2.27 26.18,9.18 34.91,14 8.72,4.81 15,7.81 21.81,15.09 6.82,7.27 1.73,13 -1.81,18.18 -3.55,5.18 -4.55,13.91 -13.1,16.54 -8.54,2.64 -26.36,-1.72 -42.9,-5.09 -16.55,-3.36 -29.55,-14.36 -39.73,-23.82 -10.18,-9.45 20.27,-11.09 25.54,-11.09 5.28,0 24.55,-1.45 30.82,7 6.27,8.46 -0.11,19.45 -9.93,23.26 -9.82,3.82 -18.86,-5.02 -20.5,-9.74 -1.64,-4.73 0.07,-13.52 4.89,-17.52 4.81,-4 17.81,-2.36 25.09,-0.27 7.27,2.09 14.72,6.82 21.27,13.46 6.55,6.63 4.88,21.07 9.64,15.63 4.76,-5.44 14.98,-16.06 19.09,-23.82 4.1,-7.76 7.65,-17.86 4,-24.18 -3.65,-6.32 -43.28,-16.54 -28.91,-18.73 14.36,-2.18 61.27,-13.45 69.52,-15.32 8.25,-1.88 51.02,-14.04 76.5,-17.32 25.47,-3.29 36.78,-1.93 57.11,2.47 20.33,4.41 30.66,4.65 50.1,14.43 19.45,9.79 25.57,26.29 33.2,38.56 7.63,12.28 13.37,27.85 16.29,41.86 2.92,14 -0.04,30.62 -3.71,37.53 -3.67,6.9 -6.45,9.34 -14.83,13.07 -8.38,3.72 -19.12,1.02 -23.64,-0.55 -4.51,-1.57 -22.98,-11.68 -31.63,-17.27 -8.65,-5.59 -25.08,-18.12 -29.55,-21.91 -4.46,-3.79 -14.56,-9.25 -17.88,-17.06 -3.32,-7.8 3.88,-23.85 5.88,-43.12 2,-19.27 -4.81,-32.85 7.64,-50 12.45,-17.16 4.36,-29.46 1.94,-40.08 -2.41,-10.62 -3.03,-26.65 -7.21,-39.17 -4.18,-12.53 -12,-27.48 -19.8,-37.530004 -7.79,-10.05 -18.31,-19.29 -22.88,-22.89 -4.57,-3.59 -10.62,-12.46 -17.32,-12.57 -6.71,-0.12 -8.24,0.3 -11.34,3.91 -3.11,3.62 -1.9,10.45 -2.89,12.58 -0.99,2.14 -3.26,7.12 -3.3,4.13 -0.04,-3 1.86,-10.32 1.86,-12.79 0,-2.46 0.43,-3.6 -1.04,-4.95 -1.46,-1.35 -3.34,-1.65 -4.74,0 -1.4,1.65 0.65,13.29 -1.65,10.93 -2.29,-2.36 -1.39,-5.27 -2.68,-6.8 -1.29,-1.54 -3.39,-2.15 -6.39,-3.1 -2.99,-0.94 -8.44,-5.55 -12.37,-3.3 -3.93,2.26 -5.98,8.87 -5.98,8.87 0,0 -5.41,4.38 -4.74,8.45 0.66,4.08 5.21,9.99 8.86,11.76 3.66,1.77 11.47,2.35 16.29,2.47 4.82,0.12 10.56,-0.3 15.67,-0.2 5.12,0.09 11.45,2.71 15.88,4.94 4.43,2.240004 4.26,2.210004 5.36,3.920004 1.1,1.72 -2.45,4.74 3.53,6.79 5.97,2.05 13.81,8.5 17.91,7.44 4.11,-1.06 3.67,-3.11 2.07,-5.77 -1.61,-2.67 -6.35,-4.21 -7.98,-7.17 -1.64,-2.96 -1.12,-6.610004 -2.44,-7.750004 -1.32,-1.15 -6.5,0.37 -7.32,-1.99 -0.81,-2.37 0.94,-9.3 -1.68,-11.45 -2.63,-2.15 -6.44,-1.12 -9.86,-1.95 -3.43,-0.83 -6.2,-9.43 -6.19,-12.79 0.02,-3.36 4,-10.06 1.44,-12.58 -2.55,-2.51 -18.27,-15.8 -26.33,-21.18 -8.06,-5.38 -18.32,-14.55 -37.25,-23.75 -18.93,-9.2 -36.7,-8.98 -46.75,-8.5 -10.05,0.48 -35.05,6.8 -49.25,9.75 -14.2,2.95 -41.07,13.05 -51.75,17.25 -10.68,4.2 -28.23,10.7 -43.5,18.75 -15.27,8.05 -28.36,21.23 -34.25,27.5 -5.89,6.27 -19.930008,24.09 -27.000008,35.250004 -7.07,11.16 -12.66,18.75 -18.2,30.11 -5.55,11.37 -8.75,15.09 -15.1,30.37 -6.34,15.27 -10.13,26.27 -12.7,34.77 -2.57,8.5 -9.39,24.68 0.34,21.95 9.73,-2.72 31.09,-8.9 45,-15.63 13.91,-6.73 42.580008,-24.82 53.240008,-31.15 10.67,-6.34 33.67,-15.67 52.67,-22.67 19,-7 60,-12.67 76.33,-14.33 16.34,-1.67 36.34,-1.34 56.34,-1.67 20,-0.33 49.66,2.67 70.66,7.33 21,4.67 38,18.67 51.67,26.34 13.67,7.66 43,29.08 51.33,34 8.34,4.91 16.42,6.83 17,11.33 0.59,4.5 -1.88,5.27 -4.33,4.91 -2.45,-0.36 -41.18,-10.64 -50,-11.41 -8.82,-0.77 -47.18,1.41 -57.64,3.05 -10.45,1.63 -49.27,12.63 -66.72,16.54 -17.46,3.91 -54.39,11.53 -65.39,13.16 -11,1.63 -14.75,4 -30,4 -15.25,0 -28.25,-3.37 -39,-8.5 -10.75,-5.13 -14.75,-9 -25.5,-17.25 -10.75,-8.25 -16.63,-14.25 -23,-19 -6.37,-4.75 -10.13,-15.12 -23.25,-15.25 -13.12,-0.13 -22.25,11 -29.500008,15 -7.25,4 -22.75,10.5 -30.73,14.57 -7.97,4.07 -8.27,6.8 -13.82,9.82 -5.54,3.01 -5.84,3.23 -9.45,2.91 -3.61,-0.33 -4.09,-2.55 -8.55,-4.91 -4.45,-2.37 -7.75,-3.07 -12.36,-1.82 -4.6,1.25 -11.44,5.92 -14.5399996,9.63 -3.11,3.72 -5.64,11.37 -5.82,15.82 -0.18,4.46 0.18,13.64 0.63,19.09 0.46,5.46 0.91,13.28 1.37,18.55 0.45,5.27 0.54,12.82 1.27,18.54 0.73,5.73 3.52,16.91 5.2499996,22.55 1.73,5.64 6.41,16.23 10.5,21.5 4.09,5.27 10.34,14.05 17.52,16.68 7.18,2.64 14.49,3.49 19.16,1.73 4.68,-1.76 6.82,-5.16 7.93,-8.64 1.12,-3.47 3.73,-12.45 1.89,-19.39 -1.84,-6.95 -8.5,-10 -14.8,-12.79 -6.29,-2.78 -20.2,-8.47 -24.18,-11.64 -3.97,-3.17 -11.65,-5.7 -12.72,-13.45 -1.08,-7.75 0.7,-41.5 2,-45.82 1.29,-4.32 1.2,-9.3 5.45,-12.73 4.25,-3.42 7,-2.95 9.45,-1.63 2.46,1.32 4.93,8.3 5.28,11.27 0.35,2.97 3.02,9.29 6.18,12.18 3.16,2.9 10.09,4.61 13.82,9.82 3.72,5.22 6.15,9.41 6.36,14.55 0.22,5.13 -0.09,7.74 -3.45,11.09 -3.37,3.35 -8,3.49 -11.39,1.27 -3.39,-2.22 -5.25,-6.5 -4.25,-10.73 1,-4.22 5,-6.89 7.82,-10.36 2.82,-3.47 10.68,-11.03 11.45,-17.46 0.78,-6.42 0.23,-16.2 1.28,-22.36 1.04,-6.16 1.7,-7.21 3.81,-8.91 2.12,-1.69 3.55,-0.6 5.08,0.64 1.54,1.24 0.94,22.18 0.74,27.54 -0.19,5.37 -0.93,16.52 -1.27,22 -0.34,5.49 -0.29,13.26 -0.36,19.28 -0.08,6.01 -0.55,5.74 -0.05,9.24 0.5,3.5 3,4.5 4.59,3.67 1.59,-0.83 2.16,-18.55 2.91,-23.82 0.75,-5.28 5.75,-24.73 7.09,-30 1.34,-5.28 2.66,-9.61 4.73,-15.28 2.07,-5.67 6.06,-15.07 8.180008,-19.45 2.12,-4.38 10.88,-16.12 13.64,-20.18 2.76,-4.06 4.86,-8.94 7.27,-10 2.41,-1.06 3.53,0.21 3.59,2.18 0.06,1.97 -10.59,16.36 -13.05,19.73 -2.45,3.36 -9.18,17 -12.18,22.45 -3.000008,5.46 -4.720008,8.73 -8.540008,15.46 -3.82,6.72 -6.28,15.54 -9.64,23.63 -3.36,8.09 -11.36,33.55 -13.27,43.82 -1.91,10.27 -6.09,33.91 -6.55,46.73 -0.45,12.82 -1.72,14.91 -1.27,27.18 z"
     style="fill:none;stroke:#000000;stroke-width:4.43750572;stroke-miterlimit:4;stroke-dasharray:none"
     inkscape:connector-curvature="0" />
</svg>
