<?xml version="1.0" encoding="UTF-8" standalone="no"?>
<svg
   xmlns:dc="http://purl.org/dc/elements/1.1/"
   xmlns:cc="http://creativecommons.org/ns#"
   xmlns:rdf="http://www.w3.org/1999/02/22-rdf-syntax-ns#"
   xmlns:svg="http://www.w3.org/2000/svg"
   xmlns="http://www.w3.org/2000/svg"
   xmlns:sodipodi="http://sodipodi.sourceforge.net/DTD/sodipodi-0.dtd"
   xmlns:inkscape="http://www.inkscape.org/namespaces/inkscape"
   width="60.6215mm"
   height="53.5941mm"
   viewBox="0 0 716 633"
   version="1.1"
   id="svg816"
   sodipodi:docname="Fourier.svg"
   inkscape:version="0.92.4 (5da689c313, 2019-01-14)">
  <metadata
     id="metadata822">
    <rdf:RDF>
      <cc:Work
         rdf:about="">
        <dc:format>image/svg+xml</dc:format>
        <dc:type
           rdf:resource="http://purl.org/dc/dcmitype/StillImage" />
      </cc:Work>
    </rdf:RDF>
  </metadata>
  <defs
     id="defs820" />
  <sodipodi:namedview
     pagecolor="#ffffff"
     bordercolor="#666666"
     borderopacity="1"
     objecttolerance="10"
     gridtolerance="10"
     guidetolerance="10"
     inkscape:pageopacity="0"
     inkscape:pageshadow="2"
     inkscape:window-width="1920"
     inkscape:window-height="1017"
     id="namedview818"
     showgrid="false"
     inkscape:zoom="4.1962796"
     inkscape:cx="114.68811"
     inkscape:cy="98.689036"
     inkscape:window-x="-8"
     inkscape:window-y="-7"
     inkscape:window-maximized="1"
     inkscape:current-layer="svg816" />
  <path
     style="opacity:1;vector-effect:none;fill:none;fill-opacity:1;stroke:#000000;stroke-width:1;stroke-linecap:butt;stroke-linejoin:miter;stroke-miterlimit:4;stroke-dasharray:none;stroke-dashoffset:0;stroke-opacity:1"
     inkscape:original-d="m 376.51336,253.67913 c -3.8971,-3.1543 -8.55552,-6.42777 -12.1673,-6.96492 -3.61178,-0.53715 -8.53772,-0.6367 -13.48707,0.95911 -4.94935,1.59581 -9.80263,4.4193 -13.38364,6.77922 -3.58101,2.35992 -7.46129,5.79298 -10.55812,9.09495 -3.09683,3.30197 -3.28824,5.2831 -4.58348,8.80408 -1.29524,3.52098 0.57135,5.60116 4.77449,5.97768 4.20314,0.37652 4.58793,0.41656 9.54382,0.54795 4.95589,0.13139 6.44942,0.14811 12.47139,0.15722 6.02197,0.009 11.9265,0.36013 17.43064,-0.71326 5.50414,-1.07339 10.13358,-2.00862 15.26301,-4.27094 5.12942,-2.26232 8.43552,-3.53147 11.60776,-4.88458 3.17225,-1.3531 7.21633,-3.20639 7.70473,-6.67314 0.4884,-3.46674 -1.89359,-8.86218 -2.72912,-10.96719 -0.83553,-2.10501 -3.53471,-8.285 -4.41471,-10.495 -0.88,-2.21 -4.625,-11.29 -6.67,-13 -2.045,-1.71 -14.585,-3.855 -20,-4 -5.415,-0.145 -26.64,1.27 -31.33,2.33 -4.69,1.06 -11.755,2.685 -15.67,5.33 -3.915,2.645 -8.77,7.295 -14,10.34 -5.23,3.045 14.365,-5.735 19.05,-7.11 4.685,-1.375 14.845,-2.515 19.24,-2.87 4.395,-0.355 11.655,0.14 17.57,0.62 5.915,0.48 10.25,1.415 15.75,2 5.5,0.585 8.12,1.31 10.06,0.69 1.94,-0.62 3.065,-1.31 2.44,-3.5 -0.625,-2.19 -10.005,-6.755 -13.11,-7.17 -3.105,-0.415 -26.08,-0.71 -30.33,-0.33 -4.25,0.38 -15.69,2.38 -21,4 -5.31,1.62 -30.69529,10.52 -35.25529,15.165 -4.56,4.645 -15.495,24.11 -17.33,29.34 -1.835,5.23 -5.05,23.89 -5.67,29.33 -0.62,5.44 0.78,19.265 1,21.67 0.22,2.405 1.955,13.24 2.33,16.33 0.375,3.09 0.055,7.175 -1,8.67 -1.055,1.495 -4.58999,1.765 -6.33,1 -1.74001,-0.765 -6.78,-3.535 -8.33,-5 -1.55,-1.465 -15.58,-14.67 -18.67,-19.67 -3.09,-5 -10.915,-22.64 -11.67,-29 -0.755,-6.36 -0.325,-16.45 2.34,-22 2.665,-5.55 5.515,-10.91 9,-13 3.485,-2.09 10.245,-3.45 15,-2 4.755,1.45 8.235,6.18499 9.66,9.67 1.425,3.48501 5.58,22.24 5.67,26.33 0.09,4.09 0.92,19.38 -0.25,21.5 -1.17,2.12 -3.13,1.9 -4.94,1.69 -1.81,-0.21 -9.5,-1.31 -11.48,-3.52 -1.98,-2.21 -7.39,-7.55 -6.66,-10.67 0.73,-3.12 4.52,-9.42 7.77,-9.75 3.25,-0.33 5.06,1.19 6.31,3.25 1.25,2.06 1.785,3.855 -0.63,8.44 -2.415,4.585 4.96,1.915 8,0.79 3.04,-1.125 5.335,22.91 5.67,26.33 0.335,3.42 3.83,17.815 -1.46,21.27 -5.29,3.455 -8.32418,0.95302 -15.66,0.34 -7.33582,-0.61302 -23.29,-6.55 -28,-5.34 -4.71,1.21 -6.05059,3.56912 -8.30059,8.02412 -2.25,4.455 -3.26,10.63 -3.88,14.38 -0.62,3.75 -2.88,13.25 -4,18.5 -1.12,5.25 -2.75,18.62 -3.5,24 -0.75,5.38 -3.75,17.75 -5.75,23.25 -2,5.5 -3.25,8.5 -5.5,15.5 -2.25,7 -3.23941,6.63588 -3.73941,11.01588 -0.5,4.38 2.61902,8.1089 5,12.5 2.38098,4.3911 6.43945,9.86125 9.5,13.5 3.06055,3.63875 6.37,6.43 8.5,8.5 2.13,2.07 7.39,6.54 9,8 1.61,1.46 14.7,10.23 16,11 1.3,0.77 10.005,6.285 12.96,7.72 2.955,1.435 8.26,4.08 12.54,6.78 4.28,2.7 7.19499,4.175 9.67,5.48 2.47501,1.305 20.4,10.26 24.33,11.52 3.93,1.26 17.02,4.35 20.5,5 3.48,0.65 17.175,4.57 23.09,3.22 5.915,-1.35 3.16,-7.47 2.41,-10.22 -0.75,-2.75 -5,-18.75 -8,-28.5 -3,-9.75 -8.5,-23.75 -11.5,-32.5 -3,-8.75 -8.75,-28.25 -11,-35 -2.25,-6.75 -3.75,-13.25 -9.25,-19.25 -5.5,-6 -31,-16.75 -38.25,-21.25 -7.25,-4.5 -14.25,-9.5 -20,-15.5 -5.75,-6 -8.5,-7 -11.5,-12.5 -3,-5.5 -4.75,-11.25 -5,-16 -0.25,-4.75 2.25,-8.75 -1.5,-11 -3.75,-2.25 -12.26059,2.23412 -14.51059,6.73412 -2.25,4.5 -6.13036,37.56647 -7.13036,41.81647 -1,4.25 -5.60378,30.48706 -8.44683,37.36706 -2.84305,6.88 -7.58539,17.98966 -6.46539,25.36966 1.12,7.38 21.57317,32.64269 24.05317,34.71269 2.48,2.07 27.61,18.65 30,20 2.39,1.35 35.74,19.41 42,22.5 6.26,3.09 41.17,13 46,13.5 4.83,0.5 74,9.25 82.5,10 8.5,0.75 57.5,6.75 70.5,6.5 13,-0.25 36.82,1 43,0.5 6.18,-0.5 31.91,-5.59 35,-11 3.09,-5.41 -4.73,-25.32 -6.5,-30 -1.77,-4.68 -13.5,-38.05 -15.5,-44.5 -2,-6.45 -6.135,-20.05 -8.36,-27 -2.225,-6.95 -1.46,-10.36 -4.37,-16.18 -2.91,-5.82 -34.54,-29.46 -40.27,-29.82 -5.73,-0.36 -6.64,7.64 -7,10.5 -0.36,2.86 6.73,14.05 11,16.5 4.27,2.45 7.815,5.135 9.18,7.36 1.365,2.225 5.46,35.28 6.32,41.64 0.86,6.36 10.95,47.09 13,54 2.05,6.91 4.32,26.73 8.5,27.5 4.18,0.77 29.64,-5.68 35,-9.5 5.36,-3.82 -15.36,-59.09 -18,-66.5 -2.64,-7.41 -11.55,-33.32 -13.5,-39 -1.95,-5.68 -0.955,-11.23 -7.14,-16.5 -6.185,-5.27 -35.63,-24.18 -37.86,-28.5 -2.23,-4.32 -1.28,-25.06 -1,-27 0.28,-1.94 9.5,-35 10,-38.5 0.5,-3.5 4.19,-70 4.5,-73 0.31,-3 0,-17.5 9,-20.5 9,-3 19.5,5.5 20.5,17 1,11.5 3.5,15 -7.5,20.5 -11,5.5 -13,1 -16,-9 -3,-10 -4.5,-35.5 -3,-40 1.5,-4.5 10,-7 19,-8 9,-1 9.5,3 13,12 3.5,9 7,9 -2.5,14 -9.5,5 -14.5,12 -17.5,5.5 -3,-6.5 -9,-10.5 -1.5,-20.5 7.5,-10 5,-23.5 18,-21 13,2.5 21,4 13.5,11 -7.5,7 -22,-6.5 -29,-8 -7,-1.5 -14.5,4.5 -22.5,-2 -8,-6.5 -11.81904,-0.048 -8.31904,-8.04803 3.5,-8.00003 -3.5,-12.5 10,-13.5 13.5,-1 19,-1.5 23,5 4,6.5 15.31904,0.048 7.81904,5.54803 -7.5,5.50003 -11,5.5 -19,1.5 -8,-4 -24.31904,-0.54803 -31.81904,-5.54803 -7.5,-5 -11.5,-8 -12.5,-14.5 -1,-6.5 -3,-8.5 1.5,-14.5 4.5,-6 2.5,-6 8.5,-8.5 6,-2.5 0,-4.5 13,-4.5 13,0 17,0 22,2 5,2 13,4 16.5,8.5 3.5,4.5 4.5,6 5.5,12 1,6 4,10 6.5,20.5 2.5,10.5 -12.68096,3.54803 -18.68096,3.04803 -6,-0.5 -27.31904,-8.54803 -30.31904,-14.04803 -3,-5.5 -0.5,-9 4,-15.5 4.5,-6.5 13.5,-28.5 23.5,-27 10,1.5 11,-1 17,7.5 6,8.5 11.5,18.5 9,26 -2.5,7.5 -3,12.5 -19.5,9.5 -16.5,-3 -18.5,-3.5 -18.5,-11.5 0,-8 -7,-23 -10,-29 -3,-6 1,-10 3.5,-17.5 2.5,-7.5 5.5,-12 11,-12 5.5,0 8.5,-7 13,3.5 4.5,10.5 12.5,9.5 6.5,20 -6,10.5 -37.5,6.5 -46,8 -8.5,1.5 -12,20.5 -29,22.5 -17,2 -1.18096,-9.45197 -10.18096,-17.45197 -9,-8 -8.5,-4.5 -8,-15.5 0.5,-11 6.5,-17 8,-22.5 1.5,-5.5 2.68096,-9.54803 8.68096,-11.04803 6,-1.5 7.5,-6.5 17.5,-2.5 10,4 16,8.5 20,13.5 4,5 6.5,38.5 -1,50 -7.5,11.5 -4,12 -15,12 -11,0 -19.5,-8 -25,-19.5 -5.5,-11.5 9.5,-11 16.5,-15.5 7,-4.5 33.5,-22 34.5,-30 1,-8 2,-10 -5,-21.5 -7,-11.499999 -10.5,-20.499999 -19,-16.999999 -8.5,3.5 -14.5,34.499999 -10,39.499999 4.5,5 22.5,8 18,24.5 -4.5,16.5 -21,5 -30.5,1.5 -9.5,-3.5 -7,-6.5 -0.5,-16.5 6.5,-10 22,-17 27,-33 5,-15.999999 -3.5,-21.999999 -8.5,-26.499999 -5,-4.5 -3.5,-6.5 -16.5,-1 -13,5.5 -13.68096,-2.951967 -10.18096,11.048032 3.5,13.999997 1,36.999997 7,38.499997 6,1.5 19.68096,-3.04803 27.18096,-10.54803 7.5,-7.5 -4.5,-18.999999 -15.5,-25.999999 -11,-7 -34.68096,-2.451967 -38.68096,7.048032 -4,9.499997 -16.5,33.499997 -9,40.999997 7.5,7.5 19.5,9 29,10 9.5,1 15.68096,2.95197 21.68096,-5.04803 6,-8 0.5,-27.5 -5.5,-36.5 -6,-8.999999 -20.18096,-28.451967 -25.68096,-30.951967 -5.5,-2.5 -9,5 -13.5,13.5 -4.5,8.5 -8,40.999997 -1.5,43.999997 6.5,3 14.5,6.5 25,6.5 10.5,0 6.68096,-3.54803 11.18096,-12.04803 4.5,-8.5 -1.5,-12 -4.5,-24 -3,-11.999999 1.81904,-24.451967 -11.18096,-38.451967 -13,-14 -33,-16.5 -39,-9.5 -6,7 -28.26072,25.212693 -23.76072,40.212691 4.5,14.999996 -9.73928,14.287306 -0.73928,25.787306 9,11.5 2.5,20 17,22 14.5,2 25,0.5 35.5,-2.5 10.5,-3 7.5,-6.5 11,-17.5 3.5,-11 4.5,-7.5 -1,-20.5 -5.5,-12.999998 -10.5,-19.499997 -12.5,-33.999997 -2,-14.5 3.5,-18.5 -11.5,-24.5 -15,-6 -17,-7 -26,2 -9,9 -11.26072,14.212691 -13.76072,22.712691 -2.5,8.5 -5.5,11.500003 -11.5,28 -6,16.499996 -12,26.499996 -4,32.999996 8,6.5 5,11.5 7.5,21.5 2.5,10 -6.73928,14.78731 10.26072,8.28731 17,-6.5 29.5,-1 29.5,-11.5 0,-10.5 -9,-17.5 -2.5,-27.5 6.5,-10 13.5,-7 6.5,-19.5 -7,-12.499998 -27,-4.499998 -22,5 5,9.5 4,13 11.5,0.5 7.5,-12.499998 14,-11.499997 9.5,-23.999997 -4.5,-12.5 -1,-24.5 -14,-12.5 -13,12 -8,26.499998 -17,35.499997 -9,9 -17.26072,21.71269 -5.26072,28.71269 12,7 10.76072,11.28731 20.76072,-2.71269 10,-14 7.5,-38.999997 1,-46.999997 -6.5,-8 -6.26072,-33.787309 -20.26072,-26.287309 -14,7.5 -29.5,19.000002 -25.5,33 4,13.999996 -1.5,17.499996 13,20.999996 14.5,3.5 14.76072,-14.212687 18.26072,-23.212687 3.5,-9 8,-19.5 -0.5,-28.5 -8.5,-9 -5,-19 -29.5,-22.5 -24.5,-3.5 -27.26072,-9.287309 -29.26072,11.212691 -2,20.5 -7.5,23.5 11.5,20.5 19,-3 27,0 19.5,-13 -7.5,-13 -53.5,-7 -54,9.5 -0.5,16.5 -8,33.499996 12.5,36.499996 20.5,3 30.5,16.5 26.5,-7.999996 -4,-24.499998 -16.5,-55 -28.5,-25.5 -12,29.5 -32.5,39.499996 -11,52.499996 21.5,13 27.5,30 38,9 10.5,-21 -4,-43.999996 -15,-47.499996 -11,-3.5 -28,46.499996 -20.5,58.999996 7.5,12.5 3.5,24 36,15 32.5,-9 27.5,-14 29.5,-33.5 2,-19.5 -1.5,-34.499996 -7.5,-39.999996 -6,-5.5 -41.5,-33.5 -55,-32 -13.5,1.5 -15.5,71.999996 16,71.999996 31.5,0 47,-38.499996 47,-44.499996 0,-6 -80.5,-29 -88.5,-22.5 -8,6.5 -27,-6.999998 -20.5,30 6.5,36.999996 -14.5,64.499996 15.5,70.499996 30,6 50,3 62.5,-7.5 12.5,-10.5 12,-15.5 12.5,-26 0.5,-10.5 -40,-42.499996 -61.5,-48.999996 -21.5,-6.5 -43,-17.999998 -50,14 -7,31.999996 -14,56.499996 1,62.499996 15,6 29,24.5 50.5,19.5 21.5,-5 32,-8 26.5,-24 -5.5,-16 -18.5,-33.5 -31.5,-38.5 -13,-5 -48.5,-17.499993 -58,-9.999996 -9.5,7.499996 -30,20.999996 -21.5,40.999996 8.5,20 -5.5,22.5 15.5,33.5 21,11 37,14.5 53,5.5 16,-9 18.5,-9.5 21.5,-25 3,-15.5 0,-17.5 -9,-31.5 -9,-14 -93.5,6.5 -91.5,27 2,20.5 -8.23928,61.78731 13.26072,53.78731 21.5,-8 55.23928,-2.78731 39.73928,-27.78731 -15.5,-25 -34.5,-36 -24,-60 10.5,-23.999998 27,-35.999996 41,-28.999996 14,7 8,14.999996 10,26.499996 2,11.5 18,16 -2.5,26.5 -20.5,10.5 -39.5,8.5 -52,20 -12.5,11.5 -30.5,4.5 -13,27.5 17.5,23 3.26072,40.28731 25.76072,27.78731 22.5,-12.5 52.23928,-7.28731 49.73928,-24.78731 -2.5,-17.5 -25.5,-35 -37.5,-30 -12,5 -63.23928,30.78731 -55.23928,54.78731 8,24 0.5,37 18,33.5 17.5,-3.5 27.5,2 37.5,-6 10,-8 17,-4.5 17,-22 0,-17.5 9.23928,-13.78731 -0.26072,-23.78731 -9.5,-10 -59.73928,5.78731 -60.23928,31.28731 -0.5,25.5 -8,38 0,48 8,10 22,15 42.5,6 20.5,-9 28,-13 29,-27 1,-14 -6.5,-29 -23,-39 -16.5,-10 -40.5,32.5 -39,48 1.5,15.5 15,35 -3.5,33 -18.5,-2 -17,-3.5 -14,-12.5 3,-9 3.5,-16.5 15,-8 11.5,8.5 7.5,15.5 6,29.5 -1.5,14 -2,24.5 6.5,20.5 8.5,-4 4.5,2.5 3.5,-10.5 -1,-13 -13.5,-15 -17,-11.5 -3.5,3.5 16.5,30 25.5,35.5 9,5.5 32.105,24.675 34.77,29.95 2.665,5.275 5.82,12.365 12.73,17.88 6.91,5.515 84.89835,50.33412 101.86835,56.63912 16.97,6.305 23.96906,5.81684 34.68165,5.30088 10.71258,-0.51596 28.04948,-9.81836 35.63,-15.82 7.58052,-6.00164 21.09,-22.36 26.18,-30.36 5.09,-8 11.185,-20.73 10.97,-25.76 -0.215,-5.03 -20.78499,-8.39677 -24,-9.00177 -3.21501,-0.605 -12.6,-3.22 -15.33,-4.34 -2.73,-1.12 -12.91,-5.36 -15.73,-5.51 -2.82,-0.15 -5.36,1.36 -7.27,2.09 -1.91,0.73 -5.095,2.64 -7.67,2.76 -2.575,0.12 -6.965,-4.03 -9.66,-4 -2.695,0.03 -6.395,1.325 -10,2.66 -3.605,1.335 -9.49,2.855 -13.67,3.34 -4.18,0.485 -6.36,0.6 -12,-0.34 -5.64,-0.94 15.085,5.85 18.33,7.67 3.245,1.82 3.675,3.45 9.31,5.27 5.635,1.82 7.99304,1.64419 13.03,1.73 5.03696,0.0858 13.515,-0.185 17,-1.67 3.485,-1.485 9.145,-6.51 11.66,-8.33 2.515,-1.82 9.855,-4.185 13.34,-4.67 3.485,-0.485 23.97,2.19177 28,2.34177 4.03,0.15 6.06,-2.51 8.33,-5.33 2.27,-2.82 4.815,-19.69 5.67,-24 0.855,-4.31 2.77,-22.19 3,-26.67 0.23,-4.48 1.52,-23.455 0.33,-27 -1.19,-3.545 -2.17578,-9.12414 -6.44554,-12.11731 -4.26976,-2.99317 -18.76617,-2.03964 -22.35117,-4.61964 -3.585,-2.58 -7.19,-6.37 -10.69,-8.06 -3.5,-1.69 -7.56,-2.5 -10.25,-2.02 -2.69,0.48 -8.625,0.95 -10.67,3.66 -2.045,2.71 -2.34501,6.03998 -1.45,7.79 0.89501,1.75002 1.865,4.53 4.68,5.88 2.815,1.35 6.83499,1.415 9.5,0.62 2.66501,-0.795 4.025,-2.27 5.63,-4.12 1.605,-1.85 2.37,-5.185 1.12,-8.56 -1.25,-3.375 -7.935,-5.32 -11.5,-4.94 -3.565,0.38 -9.5,3.245 -12.31,5.33 -2.81,2.085 -5.80425,5.46028 -6.96926,7.04529 -1.16501,1.58501 7.96926,4.39471 10.21926,4.68471 2.25,0.29 16.93994,1.43341 20.08494,0.66341 3.145,-0.77 10.39971,-2.81872 12.16203,-3.83705 1.76232,-1.01833 5.988,-2.65762 6.09297,-4.91613 0.10497,-2.25851 -2.42413,-5.49429 -4.89216,-7.73488 -2.46803,-2.24059 -4.8486,-4.02537 -8.47422,-6.5938 -3.62562,-2.56843 -9.31703,-5.60104 -12.72776,-5.67654 -3.41073,-0.0755 -5.72463,0.0557 -8.20992,0.73695 -2.48529,0.68126 -5.2273,2.40309 -6.92213,3.63499 -1.69483,1.2319 -3.46393,3.06825 -4.55627,4.93816 -1.09234,1.86991 -1.6858,3.40123 -2.57285,5.64674 -0.88705,2.24551 -1.22678,5.02696 -1.18068,7.24392 0.0461,2.21696 3.04805,3.05132 5.04301,3.89347 1.99496,0.84215 4.6743,1.89615 7.04361,2.30866 2.36931,0.41251 5.0781,0.60571 8.1006,0.6512 3.0225,0.0455 6.65999,0.0215 9.44355,-0.0749 2.78356,-0.0964 6.05076,-1.16723 8.31054,-2.02628 2.25978,-0.85905 5.55232,-2.01938 7.91001,-3.13104 2.35769,-1.11166 5.22699,-1.45275 8.21213,-2.11883 2.98514,-0.66608 7.06549,-0.7286 11.47903,-2.63213 4.41354,-1.90353 4.38528,-7.13396 4.47028,-9.54897 0.085,-2.41501 -0.885,-14.985 -2.39,-18.64 -1.505,-3.655 -15.94499,-10.33235 -18.61,-11.22735 -2.66501,-0.895 -15.575,-3.36 -19.66,-3.34 -4.085,0.02 -15.53548,1.2403 -19.39048,3.0753 -3.855,1.835 -4.6656,2.53896 -7.4753,5.14402 -2.8097,2.60506 -1.7136,4.85231 2.16128,3.85225 3.87488,-1.00006 5.28689,-0.68701 8.68177,-1.31213 3.39488,-0.62512 4.2806,-0.86719 9.19707,-1.97884 4.91647,-1.11165 6.15548,-1.19036 9.22048,-1.75036 3.065,-0.56 7.55518,-0.79524 12.49518,-0.98024 4.94,-0.185 6.27,1.015 11.25,1.74 4.98,0.725 -11.37,-5.87 -16.37,-6.87 -5,-1 -21.38,0.625 -24.44,1.08 -3.06,0.455 -11.81,5 -13.31,7.42 -1.5,2.42 -5.395,7.29 -5.81,10.56 -0.415,3.27 -1.135,11.08735 -0.55,14.56735 0.585,3.48 4.105,12.64 5,15.33 0.895,2.69 2.79,15.755 3.67,19.67 0.88,3.915 4.12382,10.96441 6,15.66 1.87618,4.69559 2.33,6.59047 3.47618,9.76194 1.14618,3.17147 1.81741,6.72989 1.61406,9.84312 -0.20335,3.11323 -1.39859,7.37494 -3.62859,9.06494 -2.23,1.69 -5.08165,2.80171 -7.79165,3.40671 -2.71,0.605 -9.29,1.40829 -13,1.26329 -3.71,-0.145 -12.75677,-2.86165 -15.34177,-4.13165 -2.585,-1.27 -4.76329,-3.76018 -2.99329,-5.36518 1.77,-1.605 2.18,-2.865 5.62,-3.24 3.44,-0.375 4.32689,-0.29329 5.68189,0.85671 1.355,1.15 -0.18318,2.76329 -1.49318,4.45329 -1.31,1.69 -7.74852,3.09194 -10.74188,4.31518 -2.99336,1.22324 -7.65677,-1.67835 -9.07177,-3.88835 -1.415,-2.21 -2.86823,-6.19512 -2,-9.34 0.86823,-3.14488 5.60446,-8.52847 7.22446,-12.73847 1.62,-4.21 5.07845,-12.8133 5.15695,-17.59153 0.0785,-4.77823 -0.38641,-10.995 -1.09141,-18.12 -0.705,-7.125 -13.435,-4.41713 -18.29,-5.52213 -4.855,-1.105 -14.145,-9.45 -18.71,-10.58 -4.565,-1.13 -8.435,-1.125 -13.29,-0.08 -4.855,1.045 -8.105,1.6 -9.52,4.64 -1.415,3.04 -1.12,5.195 -0.14,7.36 0.98,2.165 2.675,4.45 5.45,5.45 2.775,1 8.44,1.125 11.19,-0.06 2.75,-1.185 4.375,-3.62 5.02,-6.06 0.645,-2.44 0.67,-5.255 0.17,-7.19 -0.5,-1.935 -1.85,-4.33 -4.75,-4.87 -2.9,-0.54 -9.935,1.04 -13.31,2.25 -3.375,1.21 -7.695,6.37 -9.82,7.81 -2.125,1.44 -2.52,2.96 -5.81,5 -3.29,2.04 8.69,3.56 11.5,3.81 2.81,0.25 18.255,1.57 28.57,-1.12 10.315,-2.69 15.61799,-4.11188 16.64959,-8.7779 1.0316,-4.66601 -5.8496,-12.30185 -9.7467,-15.45615 z"
     id="path3850"
     d="m 374.80407,254.22852 c -3.8971,-3.1543 -8.55552,-6.42777 -12.1673,-6.96492 -3.61178,-0.53715 -8.53772,-0.6367 -13.48707,0.95911 -4.94935,1.59581 -9.80263,4.4193 -13.38364,6.77922 -3.58101,2.35992 -7.46129,5.79298 -10.55812,9.09495 -3.09683,3.30197 -3.28824,5.2831 -4.58348,8.80408 -1.29524,3.52098 0.57135,5.60116 4.77449,5.97768 4.20314,0.37652 4.58793,0.41656 9.54382,0.54795 4.95589,0.13139 6.44942,0.14811 12.47139,0.15722 6.02197,0.009 11.9265,0.36013 17.43064,-0.71326 5.50414,-1.07339 10.13358,-2.00862 15.26301,-4.27094 5.12942,-2.26232 8.43552,-3.53147 11.60776,-4.88458 3.17225,-1.3531 7.21633,-3.20639 7.70473,-6.67314 0.4884,-3.46674 -1.89359,-8.86218 -2.72912,-10.96719 -0.83553,-2.10501 -3.53471,-8.285 -4.41471,-10.495 -0.88,-2.21 -4.625,-11.29 -6.67,-13 -2.045,-1.71 -14.585,-3.855 -20,-4 -5.415,-0.145 -26.64,1.27 -31.33,2.33 -4.69,1.06 -11.755,2.685 -15.67,5.33 -3.915,2.645 -8.77,7.295 -14,10.34 -5.23,3.045 14.365,-5.735 19.05,-7.11 4.685,-1.375 14.845,-2.515 19.24,-2.87 4.395,-0.355 11.655,0.14 17.57,0.62 5.915,0.48 10.25,1.415 15.75,2 5.5,0.585 8.12,1.31 10.06,0.69 1.94,-0.62 3.065,-1.31 2.44,-3.5 -0.625,-2.19 -10.005,-6.755 -13.11,-7.17 -3.105,-0.415 -26.08,-0.71 -30.33,-0.33 -4.25,0.38 -15.69,2.38 -21,4 -5.31,1.62 -30.69529,10.52 -35.25529,15.165 -4.56,4.645 -15.495,24.11 -17.33,29.34 -1.835,5.23 -5.05,23.89 -5.67,29.33 -0.62,5.44 0.78,19.265 1,21.67 0.22,2.405 1.955,13.24 2.33,16.33 0.375,3.09 0.055,7.175 -1,8.67 -1.055,1.495 -4.58999,1.765 -6.33,1 -1.74001,-0.765 -6.78,-3.535 -8.33,-5 -1.55,-1.465 -15.58,-14.67 -18.67,-19.67 -3.09,-5 -10.915,-22.64 -11.67,-29 -0.755,-6.36 -0.325,-16.45 2.34,-22 2.665,-5.55 5.515,-10.91 9,-13 3.485,-2.09 10.245,-3.45 15,-2 4.755,1.45 8.235,6.18499 9.66,9.67 1.425,3.48501 5.58,22.24 5.67,26.33 0.09,4.09 0.92,19.38 -0.25,21.5 -1.17,2.12 -3.13,1.9 -4.94,1.69 -1.81,-0.21 -9.5,-1.31 -11.48,-3.52 -1.98,-2.21 -7.39,-7.55 -6.66,-10.67 0.73,-3.12 4.52,-9.42 7.77,-9.75 3.25,-0.33 5.06,1.19 6.31,3.25 1.25,2.06 1.785,3.855 -0.63,8.44 -2.415,4.585 4.96,1.915 8,0.79 3.04,-1.125 5.335,22.91 5.67,26.33 0.335,3.42 3.83,17.815 -1.46,21.27 -5.29,3.455 -8.32418,0.95302 -15.66,0.34 -7.33582,-0.61302 -23.29,-6.55 -28,-5.34 -4.71,1.21 -6.05059,3.56912 -8.30059,8.02412 -2.25,4.455 -3.26,10.63 -3.88,14.38 -0.62,3.75 -2.88,13.25 -4,18.5 -1.12,5.25 -2.75,18.62 -3.5,24 -0.75,5.38 -3.75,17.75 -5.75,23.25 -2,5.5 -3.25,8.5 -5.5,15.5 -2.25,7 -3.23941,6.63588 -3.73941,11.01588 -0.5,4.38 2.61902,8.1089 5,12.5 2.38098,4.3911 6.43945,9.86125 9.5,13.5 3.06055,3.63875 6.37,6.43 8.5,8.5 2.13,2.07 7.39,6.54 9,8 1.61,1.46 14.7,10.23 16,11 1.3,0.77 10.005,6.285 12.96,7.72 2.955,1.435 8.26,4.08 12.54,6.78 4.28,2.7 7.19499,4.175 9.67,5.48 2.47501,1.305 20.4,10.26 24.33,11.52 3.93,1.26 17.02,4.35 20.5,5 3.48,0.65 17.175,4.57 23.09,3.22 5.915,-1.35 3.16,-7.47 2.41,-10.22 -0.75,-2.75 -5,-18.75 -8,-28.5 -3,-9.75 -8.5,-23.75 -11.5,-32.5 -3,-8.75 -8.75,-28.25 -11,-35 -2.25,-6.75 -3.75,-13.25 -9.25,-19.25 -5.5,-6 -31,-16.75 -38.25,-21.25 -7.25,-4.5 -14.25,-9.5 -20,-15.5 -5.75,-6 -8.5,-7 -11.5,-12.5 -3,-5.5 -4.75,-11.25 -5,-16 -0.25,-4.75 2.25,-8.75 -1.5,-11 -3.75,-2.25 -12.26059,2.23412 -14.51059,6.73412 -2.25,4.5 -6.13036,37.56647 -7.13036,41.81647 -1,4.25 -5.60378,30.48706 -8.44683,37.36706 -2.84305,6.88 -7.58539,17.98966 -6.46539,25.36966 1.12,7.38 21.57317,32.64269 24.05317,34.71269 2.48,2.07 27.61,18.65 30,20 2.39,1.35 35.74,19.41 42,22.5 6.26,3.09 41.17,13 46,13.5 4.83,0.5 74,9.25 82.5,10 8.5,0.75 57.5,6.75 70.5,6.5 13,-0.25 36.82,1 43,0.5 6.18,-0.5 31.91,-5.59 35,-11 3.09,-5.41 -4.73,-25.32 -6.5,-30 -1.77,-4.68 -13.5,-38.05 -15.5,-44.5 -2,-6.45 -6.135,-20.05 -8.36,-27 -2.225,-6.95 -1.46,-10.36 -4.37,-16.18 -2.91,-5.82 -34.54,-29.46 -40.27,-29.82 -5.73,-0.36 -6.64,7.64 -7,10.5 -0.36,2.86 6.73,14.05 11,16.5 4.27,2.45 7.815,5.135 9.18,7.36 1.365,2.225 5.46,35.28 6.32,41.64 0.86,6.36 10.95,47.09 13,54 2.05,6.91 4.32,26.73 8.5,27.5 4.18,0.77 29.64,-5.68 35,-9.5 5.36,-3.82 -15.36,-59.09 -18,-66.5 -2.64,-7.41 -11.55,-33.32 -13.5,-39 -1.95,-5.68 -0.955,-11.23 -7.14,-16.5 -6.185,-5.27 -35.63,-24.18 -37.86,-28.5 -2.23,-4.32 -1.28,-25.06 -1,-27 0.28,-1.94 9.5,-35 10,-38.5 0.5,-3.5 4.19,-70 4.5,-73 0.31,-3 0,-17.5 9,-20.5 9,-3 19.5,5.5 20.5,17 1,11.5 3.5,15 -7.5,20.5 -11,5.5 -13,1 -16,-9 -3,-10 -4.5,-35.5 -3,-40 1.5,-4.5 10,-7 19,-8 9,-1 9.5,3 13,12 3.5,9 7,9 -2.5,14 -9.5,5 -14.5,12 -17.5,5.5 -3,-6.5 -9,-10.5 -1.5,-20.5 7.5,-10 5,-23.5 18,-21 13,2.5 21,4 13.5,11 -7.5,7 -22,-6.5 -29,-8 -7,-1.5 -14.5,4.5 -22.5,-2 -8,-6.5 -11.81904,-0.048 -8.31904,-8.04803 3.5,-8.00003 -3.5,-12.5 10,-13.5 13.5,-1 19,-1.5 23,5 4,6.5 15.31904,0.048 7.81904,5.54803 -7.5,5.50003 -11,5.5 -19,1.5 -8,-4 -24.31904,-0.54803 -31.81904,-5.54803 -7.5,-5 -11.5,-8 -12.5,-14.5 -1,-6.5 -3,-8.5 1.5,-14.5 4.5,-6 2.5,-6 8.5,-8.5 6,-2.5 0,-4.5 13,-4.5 13,0 17,0 22,2 5,2 13,4 16.5,8.5 3.5,4.5 4.5,6 5.5,12 1,6 4,10 6.5,20.5 2.5,10.5 -12.68096,3.54803 -18.68096,3.04803 -6,-0.5 -27.31904,-8.54803 -30.31904,-14.04803 -3,-5.5 -0.5,-9 4,-15.5 4.5,-6.5 13.5,-28.5 23.5,-27 10,1.5 11,-1 17,7.5 6,8.5 11.5,18.5 9,26 -2.5,7.5 -3,12.5 -19.5,9.5 -16.5,-3 -18.5,-3.5 -18.5,-11.5 0,-8 -7,-23 -10,-29 -3,-6 1,-10 3.5,-17.5 2.5,-7.5 5.5,-12 11,-12 5.5,0 8.5,-7 13,3.5 4.5,10.5 12.5,9.5 6.5,20 -6,10.5 -37.5,6.5 -46,8 -8.5,1.5 -12,20.5 -29,22.5 -17,2 -1.18096,-9.45197 -10.18096,-17.45197 -9,-8 -8.5,-4.5 -8,-15.5 0.5,-11 6.5,-17 8,-22.5 1.5,-5.5 2.68096,-9.54803 8.68096,-11.04803 6,-1.5 7.5,-6.5 17.5,-2.5 10,4 16,8.5 20,13.5 4,5 6.5,38.5 -1,50 -7.5,11.5 -4,12 -15,12 -11,0 -19.5,-8 -25,-19.5 -5.5,-11.5 9.5,-11 16.5,-15.5 7,-4.5 33.5,-22 34.5,-30 1,-8 2,-10 -5,-21.5 -7,-11.499996 -10.5,-20.499996 -19,-16.999996 -8.5,3.5 -14.5,34.499996 -10,39.499996 4.5,5 22.5,8 18,24.5 -4.5,16.5 -21,5 -30.5,1.5 -9.5,-3.5 -7,-6.5 -0.5,-16.5 6.5,-10 22,-17 27,-33 5,-15.999996 -3.5,-21.999996 -8.5,-26.499996 -5,-4.5 -3.5,-6.5 -16.5,-1 -13,5.5 -13.68096,-2.951967 -10.18096,11.048032 3.5,13.999994 1,36.999994 7,38.499994 6,1.5 19.68096,-3.04803 27.18096,-10.54803 7.5,-7.5 -4.5,-18.999996 -15.5,-25.999996 -11,-7 -34.68096,-2.451967 -38.68096,7.048032 -4,9.499994 -16.5,33.499994 -9,40.999994 7.5,7.5 19.5,9 29,10 9.5,1 15.68096,2.95197 21.68096,-5.04803 6,-8 0.5,-27.5 -5.5,-36.5 -6,-8.999996 -20.18096,-28.451964 -25.68096,-30.951964 -5.5,-2.5 -9,5 -13.5,13.5 -4.5,8.5 -8,40.999994 -1.5,43.999994 6.5,3 14.5,6.5 25,6.5 10.5,0 6.68096,-3.54803 11.18096,-12.04803 4.5,-8.5 -1.5,-12 -4.5,-24 -3,-11.999996 1.81904,-24.451964 -11.18096,-38.451964 -13,-14 -33,-16.5 -39,-9.5 -6,7 -28.26072,25.212693 -23.76072,40.212691 4.5,14.999993 -9.73928,14.287303 -0.73928,25.787303 9,11.5 2.5,20 17,22 14.5,2 25,0.5 35.5,-2.5 10.5,-3 7.5,-6.5 11,-17.5 3.5,-11 4.5,-7.5 -1,-20.5 -5.5,-12.999995 -10.5,-19.499994 -12.5,-33.999994 -2,-14.5 3.5,-18.5 -11.5,-24.5 -15,-6 -17,-7 -26,2 -9,9 -11.26072,14.212691 -13.76072,22.712691 -2.5,8.5 -5.5,11.500003 -11.5,28 -6,16.499993 -12,26.499993 -4,32.999993 8,6.5 5,11.5 7.5,21.5 2.5,10 -6.73928,14.78731 10.26072,8.28731 17,-6.5 29.5,-1 29.5,-11.5 0,-10.5 -9,-17.5 -2.5,-27.5 6.5,-10 13.5,-7 6.5,-19.5 -7,-12.499995 -27,-4.499995 -22,5 5,9.5 4,13 11.5,0.5 7.5,-12.499995 14,-11.499994 9.5,-23.999994 -4.5,-12.5 -1,-24.5 -14,-12.5 -13,12 -8,26.499998 -17,35.499994 -9,9 -17.26072,21.71269 -5.26072,28.71269 12,7 10.76072,11.28731 20.76072,-2.71269 10,-14 7.5,-38.999994 1,-46.999994 -6.5,-8 -6.26072,-33.787309 -20.26072,-26.287309 -14,7.5 -29.5,19.000002 -25.5,33 4,13.999993 -1.5,17.499993 13,20.999993 14.5,3.5 14.76072,-14.212684 18.26072,-23.212684 3.5,-9 8,-19.5 -0.5,-28.5 -8.5,-9 -5,-19 -29.5,-22.5 -24.5,-3.5 -27.26072,-9.287309 -29.26072,11.212691 -2,20.5 -7.5,23.5 11.5,20.5 19,-3 27,0 19.5,-13 -7.5,-13 -53.5,-7 -54,9.5 -0.5,16.5 -8,33.499993 12.5,36.499993 20.5,3 30.5,16.5 26.5,-7.999993 -4,-24.499998 -16.5,-55 -28.5,-25.5 -12,29.5 -32.5,39.499993 -11,52.499993 21.5,13 27.5,30 38,9 10.5,-21 -4,-43.999993 -15,-47.499993 -11,-3.5 -28,46.499993 -20.5,58.999993 7.5,12.5 3.5,24 36,15 32.5,-9 27.5,-14 29.5,-33.5 2,-19.5 -1.5,-34.499993 -7.5,-39.999993 -6,-5.5 -41.5,-33.5 -55,-32 -13.5,1.5 -15.5,71.999993 16,71.999993 31.5,0 47,-38.499993 47,-44.499993 0,-6 -80.5,-29 -88.5,-22.5 -8,6.5 -27,-6.999998 -20.5,30 6.5,36.999993 -14.5,64.499993 15.5,70.499993 30,6 50,3 62.5,-7.5 12.5,-10.5 12,-15.5 12.5,-26 0.5,-10.5 -40,-42.499993 -61.5,-48.999993 -21.5,-6.5 -43,-17.999998 -50,14 -7,31.999993 -14,56.499993 1,62.499993 15,6 29,24.5 50.5,19.5 21.5,-5 32,-8 26.5,-24 -5.5,-16 -18.5,-33.5 -31.5,-38.5 -13,-5 -48.5,-17.49999 -58,-9.999993 -9.5,7.499993 -30,20.999993 -21.5,40.999993 8.5,20 -5.5,22.5 15.5,33.5 21,11 37,14.5 53,5.5 16,-9 18.5,-9.5 21.5,-25 3,-15.5 0,-17.5 -9,-31.5 -9,-14 -93.5,6.5 -91.5,27 2,20.5 -8.23928,61.78731 13.26072,53.78731 21.5,-8 55.23928,-2.78731 39.73928,-27.78731 -15.5,-25 -34.5,-36 -24,-60 10.5,-23.999995 27,-35.999993 41,-28.999993 14,7 8,14.999993 10,26.499993 2,11.5 18,16 -2.5,26.5 -20.5,10.5 -39.5,8.5 -52,20 -12.5,11.5 -30.5,4.5 -13,27.5 17.5,23 3.26072,40.28731 25.76072,27.78731 22.5,-12.5 52.23928,-7.28731 49.73928,-24.78731 -2.5,-17.5 -25.5,-35 -37.5,-30 -12,5 -63.23928,30.78731 -55.23928,54.78731 8,24 0.5,37 18,33.5 17.5,-3.5 27.5,2 37.5,-6 10,-8 17,-4.5 17,-22 0,-17.5 9.23928,-13.78731 -0.26072,-23.78731 -9.5,-10 -59.73928,5.78731 -60.23928,31.28731 -0.5,25.5 -8,38 0,48 8,10 22,15 42.5,6 20.5,-9 28,-13 29,-27 1,-14 -6.5,-29 -23,-39 -16.5,-10 -40.5,32.5 -39,48 1.5,15.5 15,35 -3.5,33 -18.5,-2 -17,-3.5 -14,-12.5 3,-9 3.5,-16.5 15,-8 11.5,8.5 7.5,15.5 6,29.5 -1.5,14 -2,24.5 6.5,20.5 8.5,-4 4.5,2.5 3.5,-10.5 -1,-13 -13.5,-15 -17,-11.5 -3.5,3.5 16.5,30 25.5,35.5 9,5.5 32.105,24.675 34.77,29.95 2.665,5.275 5.82,12.365 12.73,17.88 6.91,5.515 84.89835,50.33412 101.86835,56.63912 16.97,6.305 23.96906,5.81684 34.68165,5.30088 10.71258,-0.51596 28.04948,-9.81836 35.63,-15.82 7.58052,-6.00164 21.09,-22.36 26.18,-30.36 5.09,-8 11.185,-20.73 10.97,-25.76 -0.215,-5.03 -20.78499,-8.39677 -24,-9.00177 -3.21501,-0.605 -12.6,-3.22 -15.33,-4.34 -2.73,-1.12 -12.91,-5.36 -15.73,-5.51 -2.82,-0.15 -5.36,1.36 -7.27,2.09 -1.91,0.73 -5.095,2.64 -7.67,2.76 -2.575,0.12 -6.965,-4.03 -9.66,-4 -2.695,0.03 -6.395,1.325 -10,2.66 -3.605,1.335 -9.49,2.855 -13.67,3.34 -4.18,0.485 -6.36,0.6 -12,-0.34 -5.64,-0.94 15.085,5.85 18.33,7.67 3.245,1.82 3.675,3.45 9.31,5.27 5.635,1.82 7.99304,1.64419 13.03,1.73 5.03696,0.0858 13.515,-0.185 17,-1.67 3.485,-1.485 9.145,-6.51 11.66,-8.33 2.515,-1.82 9.855,-4.185 13.34,-4.67 3.485,-0.485 23.97,2.19177 28,2.34177 4.03,0.15 6.06,-2.51 8.33,-5.33 2.27,-2.82 4.815,-19.69 5.67,-24 0.855,-4.31 2.77,-22.19 3,-26.67 0.23,-4.48 1.52,-23.455 0.33,-27 -1.19,-3.545 -2.17578,-9.12414 -6.44554,-12.11731 -4.26976,-2.99317 -18.76617,-2.03964 -22.35117,-4.61964 -3.585,-2.58 -7.19,-6.37 -10.69,-8.06 -3.5,-1.69 -7.56,-2.5 -10.25,-2.02 -2.69,0.48 -8.625,0.95 -10.67,3.66 -2.045,2.71 -2.34501,6.03998 -1.45,7.79 0.89501,1.75002 1.865,4.53 4.68,5.88 2.815,1.35 6.83499,1.415 9.5,0.62 2.66501,-0.795 4.025,-2.27 5.63,-4.12 1.605,-1.85 2.37,-5.185 1.12,-8.56 -1.25,-3.375 -7.935,-5.32 -11.5,-4.94 -3.565,0.38 -9.5,3.245 -12.31,5.33 -2.81,2.085 -5.80425,5.46028 -6.96926,7.04529 -1.16501,1.58501 7.96926,4.39471 10.21926,4.68471 2.25,0.29 16.93994,1.43341 20.08494,0.66341 3.145,-0.77 10.39971,-2.81872 12.16203,-3.83705 1.76232,-1.01833 5.988,-2.65762 6.09297,-4.91613 0.10497,-2.25851 -2.42413,-5.49429 -4.89216,-7.73488 -2.46803,-2.24059 -4.8486,-4.02537 -8.47422,-6.5938 -3.62562,-2.56843 -9.31703,-5.60104 -12.72776,-5.67654 -3.41073,-0.0755 -5.72463,0.0557 -8.20992,0.73695 -2.48529,0.68126 -5.2273,2.40309 -6.92213,3.63499 -1.69483,1.2319 -3.46393,3.06825 -4.55627,4.93816 -1.09234,1.86991 -1.6858,3.40123 -2.57285,5.64674 -0.88705,2.24551 -1.22678,5.02696 -1.18068,7.24392 0.0461,2.21696 3.04805,3.05132 5.04301,3.89347 1.99496,0.84215 4.6743,1.89615 7.04361,2.30866 2.36931,0.41251 5.0781,0.60571 8.1006,0.6512 3.0225,0.0455 6.65999,0.0215 9.44355,-0.0749 2.78356,-0.0964 6.05076,-1.16723 8.31054,-2.02628 2.25978,-0.85905 5.55232,-2.01938 7.91001,-3.13104 2.35769,-1.11166 5.22699,-1.45275 8.21213,-2.11883 2.98514,-0.66608 7.06549,-0.7286 11.47903,-2.63213 4.41354,-1.90353 4.38528,-7.13396 4.47028,-9.54897 0.085,-2.41501 -0.885,-14.985 -2.39,-18.64 -1.505,-3.655 -15.94499,-10.33235 -18.61,-11.22735 -2.66501,-0.895 -15.575,-3.36 -19.66,-3.34 -4.085,0.02 -15.53548,1.2403 -19.39048,3.0753 -3.855,1.835 -4.6656,2.53896 -7.4753,5.14402 -2.8097,2.60506 -1.7136,4.85231 2.16128,3.85225 3.87488,-1.00006 5.28689,-0.68701 8.68177,-1.31213 3.39488,-0.62512 4.2806,-0.86719 9.19707,-1.97884 4.91647,-1.11165 6.15548,-1.19036 9.22048,-1.75036 3.065,-0.56 7.55518,-0.79524 12.49518,-0.98024 4.94,-0.185 6.27,1.015 11.25,1.74 4.98,0.725 -11.37,-5.87 -16.37,-6.87 -5,-1 -21.38,0.625 -24.44,1.08 -3.06,0.455 -11.81,5 -13.31,7.42 -1.5,2.42 -5.395,7.29 -5.81,10.56 -0.415,3.27 -1.135,11.08735 -0.55,14.56735 0.585,3.48 4.105,12.64 5,15.33 0.895,2.69 2.79,15.755 3.67,19.67 0.88,3.915 4.12382,10.96441 6,15.66 1.87618,4.69559 2.33,6.59047 3.47618,9.76194 1.14618,3.17147 1.81741,6.72989 1.61406,9.84312 -0.20335,3.11323 -1.39859,7.37494 -3.62859,9.06494 -2.23,1.69 -5.08165,2.80171 -7.79165,3.40671 -2.71,0.605 -9.29,1.40829 -13,1.26329 -3.71,-0.145 -12.75677,-2.86165 -15.34177,-4.13165 -2.585,-1.27 -4.76329,-3.76018 -2.99329,-5.36518 1.77,-1.605 2.18,-2.865 5.62,-3.24 3.44,-0.375 4.32689,-0.29329 5.68189,0.85671 1.355,1.15 -0.18318,2.76329 -1.49318,4.45329 -1.31,1.69 -7.74852,3.09194 -10.74188,4.31518 -2.99336,1.22324 -7.65677,-1.67835 -9.07177,-3.88835 -1.415,-2.21 -2.86823,-6.19512 -2,-9.34 0.86823,-3.14488 5.60446,-8.52847 7.22446,-12.73847 1.62,-4.21 5.07845,-12.8133 5.15695,-17.59153 0.0785,-4.77823 -0.38641,-10.995 -1.09141,-18.12 -0.705,-7.125 -13.435,-4.41713 -18.29,-5.52213 -4.855,-1.105 -14.145,-9.45 -18.71,-10.58 -4.565,-1.13 -8.435,-1.125 -13.29,-0.08 -4.855,1.045 -8.105,1.6 -9.52,4.64 -1.415,3.04 -1.12,5.195 -0.14,7.36 0.98,2.165 2.675,4.45 5.45,5.45 2.775,1 8.44,1.125 11.19,-0.06 2.75,-1.185 4.375,-3.62 5.02,-6.06 0.645,-2.44 0.67,-5.255 0.17,-7.19 -0.5,-1.935 -1.85,-4.33 -4.75,-4.87 -2.9,-0.54 -9.935,1.04 -13.31,2.25 -3.375,1.21 -7.695,6.37 -9.82,7.81 -2.125,1.44 -2.52,2.96 -5.81,5 -3.29,2.04 8.69,3.56 11.5,3.81 2.81,0.25 18.255,1.57 28.57,-1.12 10.315,-2.69 15.61799,-4.11188 16.64959,-8.7779 1.0316,-4.66601 -5.8496,-12.30185 -9.7467,-15.45615 z"
     inkscape:connector-curvature="0"
     sodipodi:nodetypes="zzzzzzzzzzzzzzzzzzzzzzzzzzzzzzzzzzzzzzzzzzzzzzzzzzzzzzzzzzzzzzzzzzzzzzzzzzzzzzzzzzzzzzzzzzzzzzzzzzzzzzzzzzzzzzzzzzzzzzzzzzzzzzzzzzzzzzzzzzzzzzzzzzzzzzzzzzzzzzzzzzzzzzzzzzzzzzzzzzzzzzzzzzzzzzzzzzzzzzzzzzzzzzzzzzzzzzzzzzzzzzzzzzzzzzzzzzzzzzzzzzzzzzzzzzzzzzzzzzzzzzzzzzzzzzzzzzzzzzzzzzzzzzzzzzzzzzzzzzzzzzzzzzzzzzzzzzzzzzzzzzzzzzzzzzzzzzzzzzzzzzzzzzzzzzzzzzzzzzzzzzzzzzzzzzzzzzzzzzzzzzzzzzzzzzzzzzzzzzzzzzzz" />
</svg>
