<?xml version="1.0" encoding="UTF-8" standalone="no"?>
<!-- Created with Inkscape (http://www.inkscape.org/) -->

<svg
   xmlns:dc="http://purl.org/dc/elements/1.1/"
   xmlns:cc="http://creativecommons.org/ns#"
   xmlns:rdf="http://www.w3.org/1999/02/22-rdf-syntax-ns#"
   xmlns:svg="http://www.w3.org/2000/svg"
   xmlns="http://www.w3.org/2000/svg"
   xmlns:sodipodi="http://sodipodi.sourceforge.net/DTD/sodipodi-0.dtd"
   xmlns:inkscape="http://www.inkscape.org/namespaces/inkscape"
   width="92.483528mm"
   height="93.099815mm"
   viewBox="0 0 92.483528 93.099816"
   version="1.1"
   id="svg8"
   inkscape:version="0.92.4 (5da689c313, 2019-01-14)"
   sodipodi:docname="Loading.svg">
  <defs
     id="defs2" />
  <sodipodi:namedview
     id="base"
     pagecolor="#ffffff"
     bordercolor="#666666"
     borderopacity="1.0"
     inkscape:pageopacity="0.0"
     inkscape:pageshadow="2"
     inkscape:zoom="1.979899"
     inkscape:cx="40.139186"
     inkscape:cy="189.11262"
     inkscape:document-units="mm"
     inkscape:current-layer="layer1"
     showgrid="false"
     inkscape:window-width="1920"
     inkscape:window-height="1017"
     inkscape:window-x="-8"
     inkscape:window-y="-7"
     inkscape:window-maximized="1"
     fit-margin-top="0"
     fit-margin-left="0"
     fit-margin-right="0"
     fit-margin-bottom="0" />
  <metadata
     id="metadata5">
    <rdf:RDF>
      <cc:Work
         rdf:about="">
        <dc:format>image/svg+xml</dc:format>
        <dc:type
           rdf:resource="http://purl.org/dc/dcmitype/StillImage" />
        <dc:title></dc:title>
      </cc:Work>
    </rdf:RDF>
  </metadata>
  <g
     inkscape:label="Layer 1"
     inkscape:groupmode="layer"
     id="layer1"
     transform="translate(-61.488149,-118.63559)">
    <path
       id="path5097-9"
       style="fill:none;stroke:#000000;stroke-width:0.76499999;stroke-linecap:round;stroke-linejoin:round;stroke-miterlimit:4;stroke-dasharray:none;stroke-opacity:1"
       d="m 139.53084,167.24375 14.0013,2.30438 -0.23185,1.4087 -12.6497,-2.08193 -0.8851,5.37779 -1.35159,-0.22245 -1.67305,3.91065 c 0.24843,0.13602 0.49787,-0.0215 1.34445,-0.24434 1.2818,-0.54909 2.30336,-0.31743 3.34087,-0.13364 1.54488,0.51936 2.40549,1.38086 3.20724,2.27179 0.59153,1.01209 1.08971,2.11753 0.93544,3.87541 -0.16741,1.05121 -0.66396,1.8279 -1.09412,2.48682 -0.49997,0.73328 -1.11347,1.33025 -2.11717,1.96633 -1.10209,0.44916 -1.97441,0.42622 -2.73546,0.42452 -0.96783,-0.16301 -1.88775,-0.39787 -2.60588,-0.93544 -0.74554,-0.66232 -1.21156,-1.18487 -1.60361,-1.67044 -0.90713,-1.44166 -1.12563,-2.1947 -1.33635,-2.93996 l -1.80407,2.27179 -1.5368,1.67043 -1.87089,1.87089 c 0.6273,-0.15346 1.3178,-0.26478 2.47225,-0.0668 0.9859,0.16042 1.86479,0.6419 2.67269,1.33635 0.6553,0.74444 1.03519,1.61673 1.33635,2.53906 0.24571,0.6893 0.26655,1.7384 0.0668,3.14042 -0.48845,1.19191 -0.86428,1.59546 -1.26953,2.20497 -0.6459,0.72184 -1.2918,1.12476 -1.93771,1.40317 -0.8911,0.28521 -1.34778,0.30976 -1.80407,0.33408 l -1.58824,-0.29223 1.1573,1.54359 -1.06508,0.79854 -6.29571,-8.39714 -0.30987,-0.13404 -5.09483,2.12145 c 0.56299,0.23072 1.1304,0.47914 1.73725,0.88533 0.56709,0.42804 1.10249,0.89832 1.5368,1.50339 0.36887,0.58689 0.65532,1.23972 0.80181,2.00452 0.16263,0.93879 0.0974,1.84503 -0.0501,2.73951 -0.25333,0.74128 -0.57106,1.40205 -1.00226,1.921 -0.46733,0.57025 -0.9861,0.95561 -1.52009,1.28624 -0.55124,0.32781 -1.10249,0.49521 -1.65373,0.60135 -0.66261,0.13324 -1.32521,0.12703 -1.98782,0.0835 -0.46986,-0.10993 -0.86645,-0.26872 -1.20271,-0.46772 l -1.23513,-0.87422 1.28302,5.84144 -1.3002,0.28553 -3.12063,-14.2079 -0.28757,-0.21554 -2.65396,0.005 -0.60446,10.29221 -1.72835,2.43791 -0.23033,0.44884 -0.006,0.47838 0.20671,0.48428 0.35434,0.2953 0.47743,0.13008 0.4557,-0.071 0.42522,-0.29529 0.25986,-0.44294 0.0236,-0.45475 -0.14174,-0.4016 -1.45437,-2.68848 0.59802,-10.28969 -2.80233,-0.3514 -0.0619,0.1217 -3.21311,9.99115 -1.28563,-0.41345 0.57588,-1.7907 -0.67061,0.41576 -1.25282,0.50112 -1.21942,0.13364 -1.21942,-0.20045 -1.1693,-0.56795 -0.85192,-0.85192 -0.45102,-0.85192 -0.18375,-1.00227 0.16705,-1.45327 0.28397,-1.11919 1.77536,-5.5932 0.027,-0.15387 -1.8371,-1.593 0.26855,-1.22926 0.0167,-1.11919 -0.33409,-1.1192 -0.43431,-0.86862 -0.71829,-0.93544 -0.98556,-0.95215 -0.85192,-0.56795 -1.05237,-0.51784 -1.1359,-0.25056 -0.88533,0.0167 -1.00226,0.26725 -1.00226,0.51785 -1.1526,1.01896 -6.30692,7.27 1.03059,0.88759 1.18975,-1.38148 0.0441,0.87448 0.11693,0.80181 0.36749,1.05238 0.58466,0.90203 0.81851,0.81851 1.1359,0.68488 1.48668,0.43432 1.35305,0.0334 1.48669,-0.3842 1.41987,-0.86862 1.03567,-1.1526 0.60135,-1.1359 0.26728,-1.33635 v -1.06907 l -0.25057,-1.10249 -0.3842,-0.83522 -0.43431,-0.71828 -0.71829,-0.78511 -0.75169,-0.51783 -1.03567,-0.51784 -1.15261,-0.30068 -0.86862,-0.0167 -0.76612,0.0812 -1.72283,-6.3286 -0.3842,-0.45102 -0.61806,-0.18374 -0.55124,0.0835 -0.43432,0.35079 -0.26726,0.50113 0.0334,0.53454 0.14653,0.35748 0.38801,0.39421 0.58465,0.16705 0.55125,-0.10023 0.45101,-0.41761 0.23387,-0.55124 -0.10023,-0.65147 -0.23386,-0.33409 -2.3219,-4.59369 -0.3508,-0.50113 -0.43593,-0.21393 -0.49019,-0.0354 -0.38388,0.12993 -0.34254,0.27167 -0.21262,0.33664 -0.0709,0.43703 0.0118,0.24805 0.0716,0.21114 0.15873,0.27905 0.18899,0.19489 0.27168,0.16536 0.41932,0.10041 0.46065,-0.0709 0.31892,-0.15947 0.22442,-0.22443 0.16537,-0.30709 0.0945,-0.33073 -0.0177,-0.30711 -0.12402,-0.36617 -1.57097,-5.19126 -0.13583,-0.28348 -0.17718,-0.20671 -0.29529,-0.19489 -0.31892,-0.12402 -0.41341,0.0177 -0.44885,0.16537 -0.25395,0.23033 -0.20671,0.34254 -0.0945,0.40159 0.0768,0.41342 0.17718,0.33664 0.28348,0.25985 0.40751,0.18898 0.41341,0.0177 0.41341,-0.14765 0.31892,-0.24804 0.24805,-0.37798 0.0709,-0.34844 -0.0591,-0.44885 -0.83119,-3.96496 -0.182966,-4.24612 m 0,0 -14.001295,-2.30438 0.231849,-1.4087 12.649708,2.08193 0.885095,-5.37779 1.351587,0.22245 1.673054,-3.91065 c -0.248436,-0.13602 -0.497878,0.0215 -1.344455,0.24434 -1.281803,0.54909 -2.303357,0.31743 -3.340867,0.13364 -1.544879,-0.51936 -2.405484,-1.38086 -3.207235,-2.27179 -0.591529,-1.01209 -1.08971,-2.11753 -0.935445,-3.87541 0.167408,-1.05121 0.663966,-1.8279 1.094124,-2.48682 0.499971,-0.73328 1.113469,-1.33025 2.117164,-1.96633 1.10209,-0.44916 1.974408,-0.42622 2.735461,-0.42452 0.967829,0.16301 1.887753,0.39787 2.605876,0.93544 0.745546,0.66232 1.211568,1.18487 1.603618,1.67044 0.907123,1.44166 1.125623,2.1947 1.336347,2.93996 l 1.804069,-2.27179 1.536801,-1.67043 1.870887,-1.87089 c -0.627295,0.15346 -1.317799,0.26478 -2.472245,0.0668 -0.985908,-0.16042 -1.864796,-0.6419 -2.672694,-1.33635 -0.655296,-0.74444 -1.035192,-1.61673 -1.336347,-2.53906 -0.245713,-0.6893 -0.266555,-1.7384 -0.06682,-3.14042 0.48845,-1.19191 0.864278,-1.59546 1.269529,-2.20497 0.645902,-0.72184 1.291803,-1.12476 1.937705,-1.40317 0.891106,-0.28521 1.347782,-0.30976 1.80407,-0.33408 l 1.588246,0.29223 -1.157298,-1.54359 1.065077,-0.79854 6.295708,8.39714 0.309874,0.13404 5.094825,-2.12145 c -0.562987,-0.23072 -1.130399,-0.47914 -1.737252,-0.88533 -0.567084,-0.42804 -1.102486,-0.89832 -1.5368,-1.50339 -0.368868,-0.58689 -0.655318,-1.23972 -0.801809,-2.00452 -0.16263,-0.93879 -0.09745,-1.84503 0.05012,-2.73951 0.253328,-0.74128 0.571068,-1.40205 1.00226,-1.921 0.467336,-0.57025 0.986103,-0.95561 1.520094,-1.28624 0.551244,-0.32781 1.102487,-0.49521 1.653731,-0.60135 0.662606,-0.13324 1.325213,-0.12703 1.987819,-0.0835 0.46986,0.10993 0.86645,0.26872 1.20271,0.46772 l 1.23513,0.87422 -1.28302,-5.84144 1.3002,-0.28553 3.12063,14.2079 0.28757,0.21554 2.65396,-0.005 0.60446,-10.29221 1.72836,-2.43791 0.23033,-0.44884 0.006,-0.47838 -0.20671,-0.48428 -0.35435,-0.2953 -0.47743,-0.13008 -0.4557,0.071 -0.42522,0.29529 -0.25986,0.44294 -0.0236,0.45475 0.14174,0.4016 1.45437,2.68848 -0.59802,10.28969 2.80234,0.3514 0.0619,-0.1217 3.21311,-9.99115 1.28563,0.41345 -0.57588,1.7907 0.67061,-0.41576 1.25282,-0.50112 1.21942,-0.13364 1.21942,0.20045 1.1693,0.56795 0.85192,0.85192 0.45102,0.85192 0.18375,1.00227 -0.16705,1.45327 -0.28397,1.11919 -1.77536,5.5932 -0.027,0.15387 1.8371,1.593 -0.26855,1.22926 -0.0167,1.11919 0.33409,1.1192 0.43431,0.86862 0.71829,0.93544 0.98556,0.95215 0.85192,0.56795 1.05237,0.51783 1.1359,0.25057 0.88533,-0.0167 1.00226,-0.26726 1.00226,-0.51784 1.1526,-1.01896 6.30692,-7.27 -1.03059,-0.88759 -1.18975,1.38148 -0.0441,-0.87448 -0.11693,-0.80181 -0.36749,-1.05238 -0.58466,-0.90203 -0.81851,-0.81851 -1.1359,-0.68488 -1.48668,-0.43432 -1.35305,-0.0334 -1.48669,0.3842 -1.41987,0.86862 -1.03567,1.1526 -0.60135,1.1359 -0.26728,1.33635 v 1.06907 l 0.25057,1.10249 0.3842,0.83522 0.43431,0.71828 0.71829,0.78511 0.75169,0.51783 1.03567,0.51784 1.15261,0.30068 0.86862,0.0167 0.76612,-0.0812 1.72283,6.3286 0.3842,0.45102 0.61806,0.18374 0.55124,-0.0835 0.43432,-0.35079 0.26726,-0.50113 -0.0334,-0.53454 -0.14653,-0.35748 -0.38801,-0.39421 -0.58465,-0.16705 -0.55125,0.10023 -0.45101,0.41761 -0.23387,0.55124 0.10023,0.65147 0.23386,0.33409 2.3219,4.59369 0.3508,0.50113 0.43593,0.21393 0.49019,0.0354 0.38388,-0.12993 0.34254,-0.27167 0.21262,-0.33664 0.0709,-0.43703 -0.0118,-0.24805 -0.0716,-0.21114 -0.15874,-0.27905 -0.18899,-0.19489 -0.27167,-0.16536 -0.41932,-0.10041 -0.46066,0.0709 -0.31892,0.15946 -0.22442,0.22443 -0.16536,0.3071 -0.0945,0.33073 0.0177,0.30711 0.12402,0.36616 1.57097,5.19127 0.13583,0.28348 0.17718,0.20671 0.29529,0.19489 0.31892,0.12402 0.41341,-0.0177 0.44885,-0.16537 0.25395,-0.23033 0.20671,-0.34254 0.0945,-0.4016 -0.0768,-0.41341 -0.17718,-0.33664 -0.28348,-0.25985 -0.40751,-0.18899 -0.41341,-0.0177 -0.41341,0.14765 -0.31892,0.24804 -0.24805,0.37798 -0.0709,0.34845 0.0591,0.44884 0.83119,3.96496 0.18295,4.24613"
       inkscape:connector-curvature="0" />
  </g>
</svg>
