<?xml version="1.0" encoding="UTF-8" standalone="no"?>
<!-- Created with Inkscape (http://www.inkscape.org/) -->

<svg
   xmlns:dc="http://purl.org/dc/elements/1.1/"
   xmlns:cc="http://creativecommons.org/ns#"
   xmlns:rdf="http://www.w3.org/1999/02/22-rdf-syntax-ns#"
   xmlns:svg="http://www.w3.org/2000/svg"
   xmlns="http://www.w3.org/2000/svg"
   xmlns:sodipodi="http://sodipodi.sourceforge.net/DTD/sodipodi-0.dtd"
   xmlns:inkscape="http://www.inkscape.org/namespaces/inkscape"
   width="51.736809mm"
   height="13.888967mm"
   viewBox="0 0 51.736809 13.888967"
   id="svg8"
   version="1.1"
   sodipodi:docname="Loading2.svg"
   inkscape:version="0.92.4 (5da689c313, 2019-01-14)">
  <metadata
     id="metadata4216">
    <rdf:RDF>
      <cc:Work
         rdf:about="">
        <dc:format>image/svg+xml</dc:format>
        <dc:type
           rdf:resource="http://purl.org/dc/dcmitype/StillImage" />
        <dc:title></dc:title>
      </cc:Work>
    </rdf:RDF>
  </metadata>
  <defs
     id="defs4214" />
  <sodipodi:namedview
     pagecolor="#ffffff"
     bordercolor="#666666"
     borderopacity="1"
     objecttolerance="10"
     gridtolerance="10"
     guidetolerance="10"
     inkscape:pageopacity="0"
     inkscape:pageshadow="2"
     inkscape:window-width="1920"
     inkscape:window-height="1017"
     id="namedview4212"
     showgrid="false"
     fit-margin-top="0"
     fit-margin-left="0"
     fit-margin-right="0"
     fit-margin-bottom="0"
     inkscape:zoom="3.3638608"
     inkscape:cx="49.937694"
     inkscape:cy="53.473806"
     inkscape:window-x="-8"
     inkscape:window-y="-7"
     inkscape:window-maximized="1"
     inkscape:current-layer="svg8" />
  <path
     id="path29"
     style="fill:none;stroke:#000000;stroke-width:0.37041667;stroke-miterlimit:4;stroke-dasharray:none;stroke-opacity:1"
     d="m 50.580081,3.2720083 h 0.97152 v 5.9738 q 0,1.5778497 -0.27561,2.3082097 -0.37896,1.03353 -1.31603,1.59164 -0.93706,0.5581 -2.25309,0.5581 -0.96463,0 -1.73633,-0.27561 -0.76481,-0.26871 -1.24712,-0.73036 -0.48232,-0.45475 -0.88884,-1.33669 h 1.04731 q 0.42719,0.74414 1.10243,1.10243 0.67524,0.35829 1.67432,0.35829 0.9853,0 1.66053,-0.37207 0.68213,-0.36518 0.97152,-0.92329 0.28939,-0.55811 0.28939,-1.7983397 v -0.38585 q -0.54433,0.6890197 -1.32981,1.0610897 -0.78548,0.36518 -1.66742,0.36518 -1.03353,0 -1.94304,-0.50987 -0.9095,-0.5167697 -1.4056,-1.3849297 -0.49609,-0.86817 -0.49609,-1.90859 0,-1.04042 0.51676,-1.93614 0.51677,-0.90261 1.42627,-1.42627 0.9164,-0.52365 1.92926,-0.52365 0.8406,0 1.56407,0.3514 0.73036,0.34451 1.4056,1.14377 z m -2.84565,0.73725 q -0.81993,0 -1.52273,0.39963 -0.7028,0.39274 -1.10243,1.09554 -0.39963,0.69591 -0.39963,1.50896 0,1.23334 0.82682,2.03949 0.82682,0.80615 2.14285,0.80615 1.32981,0 2.13596,-0.79926 0.81304,-0.79926 0.81304,-2.10151 0,-0.84749 -0.37207,-1.50895 -0.37207,-0.66835 -1.0542,-1.0542 -0.68213,-0.38585 -1.46761,-0.38585 z m -11.57737,-0.73725 h 0.96463 v 1.34359 q 0.57877,-0.7717 1.28157,-1.15066 0.7028,-0.38585 1.52962,-0.38585 0.84061,0 1.48828,0.42719 0.65457,0.42719 0.96463,1.15066 0.31006,0.72347 0.31006,2.25309 v 3.8585097 h -0.95774 V 7.1925283 q 0,-1.29536 -0.11024,-1.72944 -0.17225,-0.74414 -0.64768,-1.11621 -0.47542,-0.37896 -1.24023,-0.37896 -0.87506,0 -1.57097,0.57878 -0.68901,0.57877 -0.9095,1.43316 -0.1378,0.5581 -0.1378,2.03949 v 2.7491897 h -0.96463 z m -2.33759,-3.08679996 q 0.33073,0 0.56499,0.23426 0.23427,0.23427 0.23427,0.565 0,0.32383996 -0.23427,0.55809996 -0.23426,0.23427 -0.56499,0.23427 -0.32384,0 -0.55811,-0.23427 -0.23426,-0.23426 -0.23426,-0.55809996 0,-0.33073 0.23426,-0.565 0.23427,-0.23426 0.55811,-0.23426 z m -0.48231,3.08679996 h 0.97151 v 7.4965297 h -0.97151 z M 31.410181,0.37812834 V 10.768538 h -0.95084 V 9.4800683 q -0.60634,0.7372497 -1.36426,1.1093197 -0.75103,0.37207 -1.64676,0.37207 -1.59163,0 -2.72162,-1.1506597 -1.1231,-1.15755 -1.1231,-2.8112 0,-1.61919 1.13688,-2.76985 1.13688,-1.15066 2.7354,-1.15066 0.92329,0 1.66743,0.39274 0.75103,0.39274 1.31603,1.17822 V 0.37812834 Z m -3.8585,3.63112996 q -0.80616,0 -1.48828,0.39963 -0.68213,0.39274 -1.08865,1.10932 -0.39964,0.71658 -0.39964,1.51585 0,0.79237 0.40653,1.51584 0.40652,0.72347 1.08865,1.12999 0.68902,0.3996297 1.4745,0.3996297 0.79237,0 1.50206,-0.3996297 0.70969,-0.39963 1.08865,-1.08176 0.38585,-0.68213 0.38585,-1.53651 0,-1.30225 -0.86127,-2.1773 -0.85439,-0.87506 -2.1084,-0.87506 z m -5.18051,-0.73725 v 7.4965297 h -0.95085 V 9.4800683 q -0.60634,0.7372497 -1.36426,1.1093197 -0.75103,0.37207 -1.64675,0.37207 -1.591638,0 -2.72163,-1.1506597 -1.123101,-1.15755 -1.123101,-2.8112 0,-1.61919 1.136882,-2.76985 1.136881,-1.15066 2.735409,-1.15066 0.92328,0 1.66742,0.39274 0.75103,0.39274 1.31603,1.17822 v -1.37804 z m -3.85851,0.73725 q -0.806154,0 -1.488283,0.39963 -0.682129,0.39274 -1.08865,1.10932 -0.399631,0.71658 -0.399631,1.51585 0,0.79237 0.406521,1.51584 0.406522,0.72347 1.08865,1.12999 0.68902,0.3996297 1.474503,0.3996297 0.79237,0 1.50206,-0.3996297 0.70969,-0.39963 1.08865,-1.08176 0.38585,-0.68213 0.38585,-1.53651 0,-1.30225 -0.86127,-2.1773 -0.85439,-0.87506 -2.1084,-0.87506 z m -9.0872437,-0.93017 q 1.7294377,0 2.8663197,1.25401 1.033529,1.14377 1.033529,2.70785 0,1.57096 -1.095541,2.74918 -1.08865,1.1713297 -2.8043077,1.1713297 -1.722547,0 -2.818088,-1.1713297 -1.08865,-1.17822 -1.08865,-2.74918 0,-1.55719 1.033529,-2.70096 1.136881,-1.2609 2.873209,-1.2609 z m 0,0.94395 q -1.198893,0 -2.060167,0.88884 -0.861274,0.88883 -0.861274,2.14974 0,0.81304 0.392741,1.51584 0.392741,0.7028 1.06109,1.08865 0.668348,0.3789597 1.46761,0.3789597 0.7992627,0 1.4676107,-0.3789597 0.668349,-0.38585 1.06109,-1.08865 0.392741,-0.7028 0.392741,-1.51584 0,-1.26091 -0.868165,-2.14974 -0.861273,-0.88884 -2.0532767,-0.88884 z M 0.18520834,0.63306834 H 1.2049573 V 9.7901283 h 3.892958 V 10.768538 H 0.18520834 Z"
     inkscape:connector-curvature="0" />
  <!-- <path
         d="m 81.808707,143.06143 h 1.019749 v 9.15706 h 3.892958 v 0.97841 h -4.912707 z"
         style="stroke-width:0.26458332"
         id="path47" />
      <path
         d="m 91.048916,145.50745 q 1.729438,0 2.86632,1.25401 1.033529,1.14377 1.033529,2.70785 0,1.57096 -1.095541,2.74918 -1.08865,1.17133 -2.804308,1.17133 -1.722547,0 -2.818088,-1.17133 -1.08865,-1.17822 -1.08865,-2.74918 0,-1.55719 1.033529,-2.70096 1.136881,-1.2609 2.873209,-1.2609 z m 0,0.94395 q -1.198893,0 -2.060167,0.88884 -0.861274,0.88883 -0.861274,2.14974 0,0.81304 0.392741,1.51584 0.392741,0.7028 1.06109,1.08865 0.668348,0.37896 1.46761,0.37896 0.799263,0 1.467611,-0.37896 0.668349,-0.38585 1.06109,-1.08865 0.392741,-0.7028 0.392741,-1.51584 0,-1.26091 -0.868165,-2.14974 -0.861273,-0.88884 -2.053277,-0.88884 z"
         style="stroke-width:0.26458332"
         id="path44" />
      <path
         d="m 103.99467,145.70037 v 7.49653 h -0.95085 v -1.28847 q -0.60634,0.73725 -1.36426,1.10932 -0.75103,0.37207 -1.64675,0.37207 -1.591638,0 -2.72163,-1.15066 -1.123101,-1.15755 -1.123101,-2.8112 0,-1.61919 1.136882,-2.76985 1.136881,-1.15066 2.735409,-1.15066 0.92328,0 1.66742,0.39274 0.75103,0.39274 1.31603,1.17822 v -1.37804 z m -3.85851,0.73725 q -0.806154,0 -1.488283,0.39963 -0.682129,0.39274 -1.08865,1.10932 -0.399631,0.71658 -0.399631,1.51585 0,0.79237 0.406521,1.51584 0.406522,0.72347 1.08865,1.12999 0.68902,0.39963 1.474503,0.39963 0.79237,0 1.50206,-0.39963 0.70969,-0.39963 1.08865,-1.08176 0.38585,-0.68213 0.38585,-1.53651 0,-1.30225 -0.86127,-2.1773 -0.85439,-0.87506 -2.1084,-0.87506 z"
         style="stroke-width:0.26458332"
         id="path41" />
      <path
         d="m 113.03368,142.80649 v 10.39041 h -0.95084 v -1.28847 q -0.60634,0.73725 -1.36426,1.10932 -0.75103,0.37207 -1.64676,0.37207 -1.59163,0 -2.72162,-1.15066 -1.1231,-1.15755 -1.1231,-2.8112 0,-1.61919 1.13688,-2.76985 1.13688,-1.15066 2.7354,-1.15066 0.92329,0 1.66743,0.39274 0.75103,0.39274 1.31603,1.17822 v -4.27192 z m -3.8585,3.63113 q -0.80616,0 -1.48828,0.39963 -0.68213,0.39274 -1.08865,1.10932 -0.39964,0.71658 -0.39964,1.51585 0,0.79237 0.40653,1.51584 0.40652,0.72347 1.08865,1.12999 0.68902,0.39963 1.4745,0.39963 0.79237,0 1.50206,-0.39963 0.70969,-0.39963 1.08865,-1.08176 0.38585,-0.68213 0.38585,-1.53651 0,-1.30225 -0.86127,-2.1773 -0.85439,-0.87506 -2.1084,-0.87506 z"
         style="stroke-width:0.26458332"
         id="path38" />
      <path
         d="m 115.44297,142.61357 q 0.33073,0 0.56499,0.23426 0.23427,0.23427 0.23427,0.565 0,0.32384 -0.23427,0.5581 -0.23426,0.23427 -0.56499,0.23427 -0.32384,0 -0.55811,-0.23427 -0.23426,-0.23426 -0.23426,-0.5581 0,-0.33073 0.23426,-0.565 0.23427,-0.23426 0.55811,-0.23426 z m -0.48231,3.0868 h 0.97151 v 7.49653 h -0.97151 z"
         style="stroke-width:0.26458332"
         id="path35" />
      <path
         d="m 117.78056,145.70037 h 0.96463 v 1.34359 q 0.57877,-0.7717 1.28157,-1.15066 0.7028,-0.38585 1.52962,-0.38585 0.84061,0 1.48828,0.42719 0.65457,0.42719 0.96463,1.15066 0.31006,0.72347 0.31006,2.25309 v 3.85851 h -0.95774 v -3.57601 q 0,-1.29536 -0.11024,-1.72944 -0.17225,-0.74414 -0.64768,-1.11621 -0.47542,-0.37896 -1.24023,-0.37896 -0.87506,0 -1.57097,0.57878 -0.68901,0.57877 -0.9095,1.43316 -0.1378,0.5581 -0.1378,2.03949 v 2.74919 h -0.96463 z"
         style="stroke-width:0.26458332"
         id="path32" />
      <path
         d="m 132.20358,145.70037 h 0.97152 v 5.9738 q 0,1.57785 -0.27561,2.30821 -0.37896,1.03353 -1.31603,1.59164 -0.93706,0.5581 -2.25309,0.5581 -0.96463,0 -1.73633,-0.27561 -0.76481,-0.26871 -1.24712,-0.73036 -0.48232,-0.45475 -0.88884,-1.33669 h 1.04731 q 0.42719,0.74414 1.10243,1.10243 0.67524,0.35829 1.67432,0.35829 0.9853,0 1.66053,-0.37207 0.68213,-0.36518 0.97152,-0.92329 0.28939,-0.55811 0.28939,-1.79834 v -0.38585 q -0.54433,0.68902 -1.32981,1.06109 -0.78548,0.36518 -1.66742,0.36518 -1.03353,0 -1.94304,-0.50987 -0.9095,-0.51677 -1.4056,-1.38493 -0.49609,-0.86817 -0.49609,-1.90859 0,-1.04042 0.51676,-1.93614 0.51677,-0.90261 1.42627,-1.42627 0.9164,-0.52365 1.92926,-0.52365 0.8406,0 1.56407,0.3514 0.73036,0.34451 1.4056,1.14377 z m -2.84565,0.73725 q -0.81993,0 -1.52273,0.39963 -0.7028,0.39274 -1.10243,1.09554 -0.39963,0.69591 -0.39963,1.50896 0,1.23334 0.82682,2.03949 0.82682,0.80615 2.14285,0.80615 1.32981,0 2.13596,-0.79926 0.81304,-0.79926 0.81304,-2.10151 0,-0.84749 -0.37207,-1.50895 -0.37207,-0.66835 -1.0542,-1.0542 -0.68213,-0.38585 -1.46761,-0.38585 z"
         style="stroke-width:0.26458332"
         id="path29" /> -->
</svg>
