<?xml version="1.0" encoding="UTF-8" standalone="no"?>
<svg
   xmlns:dc="http://purl.org/dc/elements/1.1/"
   xmlns:cc="http://creativecommons.org/ns#"
   xmlns:rdf="http://www.w3.org/1999/02/22-rdf-syntax-ns#"
   xmlns:svg="http://www.w3.org/2000/svg"
   xmlns="http://www.w3.org/2000/svg"
   xmlns:sodipodi="http://sodipodi.sourceforge.net/DTD/sodipodi-0.dtd"
   xmlns:inkscape="http://www.inkscape.org/namespaces/inkscape"
   width="4.9922981in"
   height="14.575497in"
   viewBox="0 0 449.3085 1311.7931"
   version="1.1"
   id="svg3098"
   sodipodi:docname="Woman.svg"
   inkscape:version="0.92.4 (5da689c313, 2019-01-14)">
  <metadata
     id="metadata3104">
    <rdf:RDF>
      <cc:Work
         rdf:about="">
        <dc:format>image/svg+xml</dc:format>
        <dc:type
           rdf:resource="http://purl.org/dc/dcmitype/StillImage" />
        <dc:title></dc:title>
      </cc:Work>
    </rdf:RDF>
  </metadata>
  <defs
     id="defs3102" />
  <sodipodi:namedview
     pagecolor="#ffffff"
     bordercolor="#666666"
     borderopacity="1"
     objecttolerance="10"
     gridtolerance="10"
     guidetolerance="10"
     inkscape:pageopacity="0"
     inkscape:pageshadow="2"
     inkscape:window-width="1920"
     inkscape:window-height="1017"
     id="namedview3100"
     showgrid="false"
     fit-margin-top="0"
     fit-margin-left="0"
     fit-margin-right="0"
     fit-margin-bottom="0"
     inkscape:zoom="0.39111796"
     inkscape:cx="84.877808"
     inkscape:cy="741.48798"
     inkscape:window-x="-8"
     inkscape:window-y="-7"
     inkscape:window-maximized="1"
     inkscape:current-layer="svg3098" />
  <path
     id="Woman"
     d="m 185.20397,3.8526481 c -8.38,2 -23.38,10.1299999 -30.63,16.6299999 -16.75,15 -22,33.87 -17.62,64.74 0.87,6.13 1.99,17.130002 2.5,24.380002 0.87,13 1,13.25 10,31.62 7.37,15 10.49,20 16.99,26.88 0,0 7.88,8.38 7.88,8.38 0,0 -1.62,5 -1.62,5 -1,2.87 -4,6.99 -6.88,9.62 -4.25,3.87 -7,5 -17.25,7.37 -16.25,3.63 -24.5,6.88 -29.87,11.5 -9.63,8.5 -19.759997,25.63 -25.379997,42.75 -1.62,4.75 -5.37,14.63 -8.5,21.88 -6.5,15.25 -20.12,52.25 -23.38,63.12 -1.12,4.13 -4.62,16.88 -7.5,28.38 -3.37,12.88 -7.87,26.25 -11.74,35 -4.76,10.62 -7.75,20.25 -12,38.5 -10.63,45 -11.5,50.62 -15,91.88 -1.13,12.37 -2.88,27.87 -4.13,34.37 -1.1299997,6.63 -1.9999997,16.5 -1.7499997,22.5 0.25,11.87 -2.62,39.13 -5.38,50.63 -2.62,10.87 -2.37,14.5 1.76,20.87 2,3.12 4,6.75 4.3699997,8.12 1.25,3.88 16.25,18.13 23.37,22.01 7,4 9.88,3.74 9.88,-0.88 0,-2.75 0.5,-3 8.75,-3.88 7.25,-0.74 8.75,-1.24 8.75,-3.12 0,-3.38 -2.38,-4.62 -11.25,-6.25 -13.37,-2.5 -16.63,-4 -19,-8.75 -2.37,-5 -2,-10.12 1.63,-17.12 1.37,-2.63 2.37,-5.88 2.37,-7.38 0,-3.12 5.75,-6.25 8.13,-4.25 2.12,1.75 5.24,9.62 6.24,15.5 1.13,6.5 6.88,12.37 11.51,11.75 3.37,-0.38 3.49,-0.62 3.12,-6.62 -0.13,-3.51 -1.13,-9.38 -2.25,-13.13 -1.12,-3.75 -2.5,-12.25 -3,-18.87 -1.37,-14.63 -4.75,-24.01 -11.62,-31.88 -5.26,-6 -5.26,-6 -5.13,-15.38 0.13,-5.24 1.37,-14.25 2.88,-20.12 5.25,-20 19.12,-60.62 31.37,-91.25 14.38,-36 13.25,-32.25 15.5,-49 1.12,-7.37 3,-16.63 4.38,-20.63 2.62,-7.87 33.499997,-76.62 35.119997,-78.37 0.62,-0.5 2.25,2 3.88,5.62 1.5,3.75 9.12,19.25 16.87,34.5 14.63,28.75 20.63,43.88 23.13,58.25 1.74,10.76 0.62,15.38 -7.63,32.38 -5.63,11.25 -8,14.37 -19.75,26.5 -7.38,7.62 -17.87,20 -23.25,27.62 -5.5,7.5 -13.25,17.38 -17.25,21.88 -19.869997,21.62 -34.379997,53.12 -37.249997,80.38 -1.25,12 0.75,37.74 6.37,82.12 2.13,16.12 4.88,40.38 6.13,53.75 1.37,13.37 3.87,38.13 5.75,55 2.75,26.63 3.12,34.37 2.63,58.75 -0.51,25.38 -0.88,29.38 -3.88,40.5 -1.87,6.75 -6.63,19.38 -10.63,28.12 -16.87,36.63 -23.87,63.88 -23.87,93.37995 0,6.38 1.37,21.75 3.13,34.38 1.62,12.62 3.87,33.62 5,46.74 1.12,13 3.37,34.76 5.12,48.13 4.38,33.63 5.25,60.75 2.5,76.87 -1.25,6.88 -3.5,17.26 -5.25,23.13 -3.75,13.25 -4,22.25 -0.37,26.75 0,0 2.5,3.25 2.5,3.25 0,0 14.62,9.25 22.12,13.75 7.5,4.5 38.319997,15.18 51.999997,17 13.68,1.82 44.92,-2.47 45.77,-2.82 0.85,-0.35 2.73,-1.73 4,-2.36 1.28,-0.64 7.48,-5.94 6.98,-10.07 -0.25,-3 -1.63,-4.25 -6.87,-6.75 -3.5,-1.75 -7.63,-4.62 -9,-6.38 -1.5,-1.87 -8.5,-7.37 -15.63,-12.24 -13.62,-9.26 -31.25,-27.13 -37.87,-38.63 -7.76,-13.13 -12.38,-35.5 -11,-52.75 0.37,-3.75 1.24,-17.25 1.87,-30 1.87,-30.75 6.75,-77.62 11.13,-106.88 2,-13.12 4.37,-30 5.12,-37.5 1.75,-16.86995 6.38,-40.23995 9.75,-48.99995 1.38,-3.62 4.75,-10.12 7.5,-14.5 2.75,-4.24 6,-10.87 7.25,-14.62 1.25,-3.75 3.5,-10.38 5.13,-14.75 2.12,-5.5 2.87,-10 2.75,-15.63 -0.25,-6.74 0.37,-8.87 4.37,-16.87 6.88,-13.37 12.75,-40.25 15.75,-71.13 1.12,-12.24 3.62,-90 3.75,-119.12 0,0 0.13,-11.88 0.13,-11.88 0,0 4.24,8.13 4.24,8.13 2.38,4.5 7.13,17.12 10.63,28 8.37,25.87 23.37,61.13 42.75,100.13 17.75,35.74 21.38,47.5 23.75,75.37 1.87,20.87 1.25,23.63 -7.37,33 -11.38,12.37 -21.26,28.75 -25.38,42.25 -3.5,11 -3.75,13.25 -3.5,28.75 0.25,15.99995 -0.12,18.62995 -6.25,48.12995 -9.75,47.62 -12.13,52.87 -30,69.12 -15.5,13.88 -17,21 -7.63,34.75 1.88,2.75 8.5,9.75 14.76,15.37 12.74,11.63 16.37,17.76 21.74,36.5 1.76,5.88 4,12.5 5.13,14.63 2.75,5.25 9.63,12 14.37,14.13 4.13,1.87 15.26,7.74 25.5,8.37 10.26,0.63 12.38,-3.63 12.38,-3.63 0,0 -2.62,-6.12 -2.62,-6.12 -1.5,-3.38 -2.63,-6.88 -2.63,-7.88 0,-1 -1.63,-4 -3.63,-6.74 -7.24,-10 -15,-28.76 -17.62,-42.26 -0.75,-4.12 -2.75,-12.62 -4.5,-18.74 -3.5,-13.13 -3.88,-26.63 -1.12,-37.26 2.62,-10 18.5,-41.24 39.87,-78 26.37,-45.73995 30.87,-55.36995 35.87,-76.36995 1.76,-7.5 3.76,-12 6.88,-16 2.25,-3.13 4.25,-6.25 4.25,-6.87 0,-0.76 1.5,-4.5 3.25,-8.38 3.75,-8.12 5.5,-17.5 5.5,-29 0,-4.5 0.88,-14.38 2.12,-21.88 1.88,-12.37 2.01,-18.5 0.63,-63.12 -2.13,-75.62 -5.37,-94.25 -25.63,-148.75 -4.5,-12 -10,-26.13 -12.24,-31.25 -6.88,-15.88 -6.5,-26.25 2.12,-59.75 0.88,-3.63 2,-11.5 2.38,-17.5 0.5,-6 1.62,-15.63 2.62,-21.38 1,-5.75 1.75,-13.25 1.75,-16.62 0,0 0,-6.13 0,-6.13 0,0 7.88,5.25 7.88,5.25 4.25,2.88 10.62,8.01 14.25,11.25 7.12,6.38 10.87,8.38 29.74,15.5 21.01,7.88 22,8.38 27.26,14.63 5.74,6.87 10.37,7.87 10.12,2.25 -0.12,-3 3.88,-7.25 6.25,-6.5 2,0.62 4.25,-2.38 5.13,-7 0.5,-2.5 1.87,-6.38 3.24,-8.5 1.26,-2.13 2.38,-4.63 2.38,-5.5 0,-0.88 -3.25,-4.62 -7.12,-8.38 -8.63,-8 -5.26,-7.37 7.37,1.38 4.37,3.12 9.5,6.12 11.13,6.88 3.5,1.24 7.37,-0.26 7.37,-2.88 0,-0.88 -4.75,-5.88 -10.5,-11.13 -10.13,-9.25 -27,-19.37 -36,-21.49 -3.37,-0.88 -3.25,-1.01 3,-4.26 6.87,-3.5 10.25,-7.24 8.75,-9.74 -0.75,-1.26 -5.75,-1.13 -22.75,0.24 -12,1 -24.13,2.38 -26.87,3.13 -9.88,2.37 -12.38,1.75 -22.75,-6.13 -5.38,-4 -11.63,-9.37 -14.01,-11.75 0,0 -4.24,-4.5 -4.24,-4.5 0,0 3.25,-12.87 3.25,-12.87 1.75,-7.13 3.62,-16 3.99,-19.75 0.5,-3.75 1.76,-10.87 2.76,-15.63 1.12,-5.5 1.74,-16.37 1.87,-29.75 0,0 0,-20.87 0,-20.87 0,0 3.5,0 3.5,0 5.13,0 15.25,-9.5 18.75,-17.75 2.25,-4.87 3,-8.88 2.88,-15.5 0,-13.75 -3.63,-20.38 -20.76,-37.25 -12.12,-12 -14.37,-14.88 -16.62,-21.38 -1.5,-4.12 -3,-11.87 -3.38,-17.12 -0.87,-12.13 -3.87,-19 -12.74,-29.12 -7.13,-8.01 -9.76,-9.5 -20,-11.26 -6,-1 -24.5,-9.5 -30.26,-13.87 -7.37,-5.63 -8.12,-8.5 -7.62,-29.75 0.25,-10.38 -0.12,-25.63 -0.75,-34 0,0 -1.13,-15.13 -1.13,-15.13 0,0 3.26,-0.87 3.26,-0.87 6.37,-1.5 14.62,-17.5 14.62,-28.000002 0,-4.75 -4.38,-15.25 -6.38,-15.25 -0.62,0 -1.12,-3.88 -1.12,-8.5 0,-16.25 -8.25,-39.25 -18.12,-50 -11.13,-12.3799999 -33.63,-18.11999985 -52.5,-13.4999999 z"
     inkscape:connector-curvature="0"
     style="fill:none;stroke:#000000;stroke-width:9.37503482;stroke-miterlimit:4;stroke-dasharray:none" />
</svg>
