<?xml version="1.0" encoding="UTF-8" standalone="no"?>
<!DOCTYPE svg PUBLIC "-//W3C//DTD SVG 20010904//EN"
              "http://www.w3.org/TR/2001/REC-SVG-20010904/DTD/svg10.dtd">

<svg xmlns="http://www.w3.org/2000/svg"
     width="2.49333in" height="2.63333in"
     viewBox="0 0 748 790">
  <path id="FacePath"
        fill="none" stroke="black" stroke-width="1"
        d="M 157.00,484.00
           C 157.45,496.27 155.50,512.50 160.50,542.00
             165.50,571.50 175.00,572.00 203.00,606.50
             231.00,641.00 259.50,673.00 278.00,684.50
             296.50,696.00 314.50,700.00 332.50,703.00
             350.50,706.00 363.00,706.50 377.00,698.00
             384.82,693.25 401.50,666.50 412.50,653.00
             423.50,639.50 432.43,638.78 434.50,632.50
             439.18,618.27 427.44,607.25 425.50,605.00
             423.56,602.75 410.94,588.19 407.00,586.50
             403.06,584.81 391.25,588.69 389.00,588.00
             386.75,587.31 381.81,579.62 372.50,578.00
             363.19,576.38 319.45,574.45 307.00,576.50
             294.55,578.55 332.00,609.55 341.50,613.50
             351.00,617.45 377.25,625.62 390.00,624.50
             402.75,623.38 425.26,611.30 433.00,611.00
             440.74,610.70 440.07,613.83 448.50,611.50
             456.93,609.17 504.09,532.27 512.00,513.00
             519.91,493.73 525.18,465.45 526.00,454.50
             526.82,443.55 522.82,428.18 518.27,423.73
             513.73,419.27 504.27,414.73 495.73,413.55
             487.18,412.36 475.91,411.00 470.09,414.09
             464.27,417.18 463.27,431.27 469.82,436.09
             476.36,440.91 482.18,440.73 486.73,439.18
             491.27,437.64 496.45,434.18 497.55,426.91
             498.64,419.64 496.73,415.91 490.45,413.00
             484.18,410.09 471.36,411.45 463.55,416.45
             455.73,421.45 450.27,424.36 451.55,428.09
             452.82,431.82 456.27,432.91 460.45,434.64
             464.64,436.36 489.27,444.27 499.91,443.18
             510.55,442.09 513.91,442.27 519.91,439.18
             525.91,436.09 535.27,426.00 539.25,421.25
             543.23,416.50 544.73,414.91 548.00,409.12
             551.27,403.34 553.18,388.27 546.50,382.75
             539.82,377.23 513.98,379.82 502.62,382.00
             491.27,384.18 453.00,405.64 450.00,409.75
             447.00,413.86 494.55,398.45 510.88,398.12
             527.20,397.80 542.09,402.36 549.88,401.12
             557.66,399.89 546.82,384.27 542.38,381.25
             537.93,378.23 494.32,382.51 486.55,386.27
             478.77,390.03 462.64,403.55 455.12,413.25
             447.61,422.95 446.47,436.77 445.55,443.45
             444.62,450.14 443.82,474.00 444.88,481.75
             445.93,489.50 451.82,506.36 450.62,513.62
             449.43,520.89 448.91,524.91 444.62,531.62
             440.34,538.34 436.18,541.00 429.75,543.75
             423.32,546.50 415.27,546.45 409.00,544.12
             402.73,541.80 397.45,536.09 391.91,533.64
             386.36,531.18 377.82,528.64 375.25,525.75
             372.68,522.86 373.00,521.82 374.62,520.12
             376.25,518.43 386.00,518.45 390.50,520.62
             395.00,522.80 399.45,524.18 399.75,529.88
             400.05,535.57 396.36,535.91 391.12,536.38
             385.89,536.84 377.27,533.00 372.50,530.88
             367.73,528.75 361.36,526.09 359.38,521.12
             357.39,516.16 357.64,512.09 359.12,508.62
             360.61,505.16 366.00,498.73 372.50,492.88
             379.00,487.02 392.73,479.82 397.75,473.38
             402.77,466.93 411.45,446.73 413.38,438.38
             415.30,430.02 419.18,416.64 419.00,407.62
             418.82,398.61 411.82,379.27 407.75,372.50
             403.68,365.73 391.82,350.55 384.82,345.91
             377.82,341.27 368.91,336.64 357.36,333.73
             345.82,330.82 331.91,329.64 319.73,329.00
             307.55,328.36 306.73,327.91 283.55,328.27
             260.36,328.64 315.45,341.27 328.64,343.55
             341.82,345.82 354.82,352.73 363.55,357.55
             372.27,362.36 378.55,365.36 385.36,372.64
             392.18,379.91 387.09,385.64 383.55,390.82
             380.00,396.00 379.00,404.73 370.45,407.36
             361.91,410.00 344.09,405.64 327.55,402.27
             311.00,398.91 298.00,387.91 287.82,378.45
             277.64,369.00 308.09,367.36 313.36,367.36
             318.64,367.36 337.91,365.91 344.18,374.36
             350.45,382.82 344.07,393.81 334.25,397.62
             324.43,401.44 315.39,392.60 313.75,387.88
             312.11,383.15 313.82,374.36 318.64,370.36
             323.45,366.36 336.45,368.00 343.73,370.09
             351.00,372.18 358.45,376.91 365.00,383.55
             371.55,390.18 369.88,404.62 374.64,399.18
             379.40,393.74 389.62,383.12 393.73,375.36
             397.83,367.60 401.38,357.50 397.73,351.18
             394.08,344.86 354.45,334.64 368.82,332.45
             383.18,330.27 430.09,319.00 438.34,317.13
             446.59,315.25 489.36,303.09 514.84,299.81
             540.31,296.52 551.62,297.88 571.95,302.28
             592.28,306.69 602.61,306.93 622.05,316.71
             641.50,326.50 647.62,343.00 655.25,355.27
             662.88,367.55 668.62,383.12 671.54,397.13
             674.46,411.13 671.50,427.75 667.83,434.66
             664.16,441.56 661.38,444.00 653.00,447.73
             644.62,451.45 633.88,448.75 629.36,447.18
             624.85,445.61 606.38,435.50 597.73,429.91
             589.08,424.32 572.65,411.79 568.18,408.00
             563.72,404.21 553.62,398.75 550.30,390.94
             546.98,383.14 554.18,367.09 556.18,347.82
             558.18,328.55 551.37,314.97 563.82,297.82
             576.27,280.66 568.18,268.36 565.76,257.74
             563.35,247.12 562.73,231.09 558.55,218.57
             554.37,206.04 546.55,191.09 538.75,181.04
             530.96,170.99 520.44,161.75 515.87,158.15
             511.30,154.56 505.25,145.69 498.55,145.58
             491.84,145.46 490.31,145.88 487.21,149.49
             484.10,153.11 485.31,159.94 484.32,162.07
             483.33,164.21 481.06,169.19 481.02,166.20
             480.98,163.20 482.88,155.88 482.88,153.41
             482.88,150.95 483.31,149.81 481.84,148.46
             480.38,147.11 478.50,146.81 477.10,148.46
             475.70,150.11 477.75,161.75 475.45,159.39
             473.16,157.03 474.06,154.12 472.77,152.59
             471.48,151.05 469.38,150.44 466.38,149.49
             463.39,148.55 457.94,143.94 454.01,146.19
             450.08,148.45 448.03,155.06 448.03,155.06
             448.03,155.06 442.62,159.44 443.29,163.51
             443.95,167.59 448.50,173.50 452.15,175.27
             455.81,177.04 463.62,177.62 468.44,177.74
             473.26,177.86 479.00,177.44 484.11,177.54
             489.23,177.63 495.56,180.25 499.99,182.48
             504.42,184.72 504.25,184.69 505.35,186.40
             506.45,188.12 502.90,191.14 508.88,193.19
             514.85,195.24 522.69,201.69 526.79,200.63
             530.90,199.57 530.46,197.52 528.86,194.86
             527.25,192.19 522.51,190.65 520.88,187.69
             519.24,184.73 519.76,181.08 518.44,179.94
             517.12,178.79 511.94,180.31 511.12,177.95
             510.31,175.58 512.06,168.65 509.44,166.50
             506.81,164.35 503.00,165.38 499.58,164.55
             496.15,163.72 493.38,155.12 493.39,151.76
             493.41,148.40 497.39,141.70 494.83,139.18
             492.28,136.67 476.56,123.38 468.50,118.00
             460.44,112.62 450.18,103.45 431.25,94.25
             412.32,85.05 394.55,85.27 384.50,85.75
             374.45,86.23 349.45,92.55 335.25,95.50
             321.05,98.45 294.18,108.55 283.50,112.75
             272.82,116.95 255.27,123.45 240.00,131.50
             224.73,139.55 211.64,152.73 205.75,159.00
             199.86,165.27 185.82,183.09 178.75,194.25
             171.68,205.41 166.09,213.00 160.55,224.36
             155.00,235.73 151.80,239.45 145.45,254.73
             139.11,270.00 135.32,281.00 132.75,289.50
             130.18,298.00 123.36,314.18 133.09,311.45
             142.82,308.73 164.18,302.55 178.09,295.82
             192.00,289.09 220.67,271.00 231.33,264.67
             242.00,258.33 265.00,249.00 284.00,242.00
             303.00,235.00 344.00,229.33 360.33,227.67
             376.67,226.00 396.67,226.33 416.67,226.00
             436.67,225.67 466.33,228.67 487.33,233.33
             508.33,238.00 525.33,252.00 539.00,259.67
             552.67,267.33 582.00,288.75 590.33,293.67
             598.67,298.58 606.75,300.50 607.33,305.00
             607.92,309.50 605.45,310.27 603.00,309.91
             600.55,309.55 561.82,299.27 553.00,298.50
             544.18,297.73 505.82,299.91 495.36,301.55
             484.91,303.18 446.09,314.18 428.64,318.09
             411.18,322.00 374.25,329.62 363.25,331.25
             352.25,332.88 348.50,335.25 333.25,335.25
             318.00,335.25 305.00,331.88 294.25,326.75
             283.50,321.62 279.50,317.75 268.75,309.50
             258.00,301.25 252.12,295.25 245.75,290.50
             239.38,285.75 235.62,275.38 222.50,275.25
             209.38,275.12 200.25,286.25 193.00,290.25
             185.75,294.25 170.25,300.75 162.27,304.82
             154.30,308.89 154.00,311.62 148.45,314.64
             142.91,317.65 142.61,317.87 139.00,317.55
             135.39,317.22 134.91,315.00 130.45,312.64
             126.00,310.27 122.70,309.57 118.09,310.82
             113.49,312.07 106.65,316.74 103.55,320.45
             100.44,324.17 97.91,331.82 97.73,336.27
             97.55,340.73 97.91,349.91 98.36,355.36
             98.82,360.82 99.27,368.64 99.73,373.91
             100.18,379.18 100.27,386.73 101.00,392.45
             101.73,398.18 104.52,409.36 106.25,415.00
             107.98,420.64 112.66,431.23 116.75,436.50
             120.84,441.77 127.09,450.55 134.27,453.18
             141.45,455.82 148.76,456.67 153.43,454.91
             158.11,453.15 160.25,449.75 161.36,446.27
             162.48,442.80 165.09,433.82 163.25,426.88
             161.41,419.93 154.75,416.88 148.45,414.09
             142.16,411.31 128.25,405.62 124.27,402.45
             120.30,399.28 112.62,396.75 111.55,389.00
             110.47,381.25 112.25,347.50 113.55,343.18
             114.84,338.86 114.75,333.88 119.00,330.45
             123.25,327.03 126.00,327.50 128.45,328.82
             130.91,330.14 133.38,337.12 133.73,340.09
             134.08,343.06 136.75,349.38 139.91,352.27
             143.07,355.17 150.00,356.88 153.73,362.09
             157.45,367.31 159.88,371.50 160.09,376.64
             160.31,381.77 160.00,384.38 156.64,387.73
             153.27,391.08 148.64,391.22 145.25,389.00
             141.86,386.78 140.00,382.50 141.00,378.27
             142.00,374.05 146.00,371.38 148.82,367.91
             151.64,364.44 159.50,356.88 160.27,350.45
             161.05,344.03 160.50,334.25 161.55,328.09
             162.59,321.93 163.25,320.88 165.36,319.18
             167.48,317.49 168.91,318.58 170.44,319.82
             171.98,321.06 171.38,342.00 171.18,347.36
             170.99,352.73 170.25,363.88 169.91,369.36
             169.57,374.85 169.62,382.62 169.55,388.64
             169.47,394.65 169.00,394.38 169.50,397.88
             170.00,401.38 172.50,402.38 174.09,401.55
             175.68,400.72 176.25,383.00 177.00,377.73
             177.75,372.45 182.75,353.00 184.09,347.73
             185.43,342.45 186.75,338.12 188.82,332.45
             190.89,326.78 194.88,317.38 197.00,313.00
             199.12,308.62 207.88,296.88 210.64,292.82
             213.40,288.76 215.50,283.88 217.91,282.82
             220.32,281.76 221.44,283.03 221.50,285.00
             221.56,286.97 210.91,301.36 208.45,304.73
             206.00,308.09 199.27,321.73 196.27,327.18
             193.27,332.64 191.55,335.91 187.73,342.64
             183.91,349.36 181.45,358.18 178.09,366.27
             174.73,374.36 166.73,399.82 164.82,410.09
             162.91,420.36 158.73,444.00 158.27,456.82
             157.82,469.64 156.55,471.73 157.00,484.00 Z" />
</svg>
