<?xml version="1.0" encoding="UTF-8" standalone="no"?>
<!DOCTYPE svg PUBLIC "-//W3C//DTD SVG 20010904//EN"
              "http://www.w3.org/TR/2001/REC-SVG-20010904/DTD/svg10.dtd">

<svg xmlns="http://www.w3.org/2000/svg"
     width="60.6215mm" height="53.5941mm"
     viewBox="0 0 716 633">
  <path id="Bez nazwy"
        fill="none" stroke="black" stroke-width="1"
        d="M 269.27,369.45
           C 271.94,374.73 275.09,381.82 282.00,387.33
             288.91,392.85 367.03,437.33 384.00,443.64
             400.97,449.94 407.82,449.27 418.55,449.27
             429.27,449.27 447.76,439.70 454.18,433.45
             460.61,427.21 475.27,411.09 480.36,403.09
             485.45,395.09 491.55,382.36 491.33,377.33
             491.12,372.30 470.55,368.27 467.33,367.67
             464.12,367.06 454.73,364.45 452.00,363.33
             449.27,362.21 439.09,357.97 436.27,357.82
             433.45,357.67 430.91,359.18 429.00,359.91
             427.09,360.64 423.91,362.55 421.33,362.67
             418.76,362.79 414.36,358.64 411.67,358.67
             408.97,358.70 405.27,360.00 401.67,361.33
             398.06,362.67 392.18,364.18 388.00,364.67
             383.82,365.15 381.64,365.27 376.00,364.33
             370.36,363.39 391.09,370.18 394.33,372.00
             397.58,373.82 398.00,375.45 403.64,377.27
             409.27,379.09 416.67,379.00 416.67,379.00
             416.67,379.00 430.18,378.82 433.67,377.33
             437.15,375.85 442.82,370.82 445.33,369.00
             447.85,367.18 455.18,364.82 458.67,364.33
             462.15,363.85 482.64,367.18 486.67,367.33
             490.70,367.48 492.73,364.82 495.00,362.00
             497.27,359.18 499.81,342.31 500.67,338.00
             501.52,333.69 503.44,315.81 503.67,311.33
             503.90,306.85 505.19,287.88 504.00,284.33
             502.81,280.79 496.69,269.94 494.00,268.00
             491.31,266.06 478.52,268.33 474.94,265.75
             471.35,263.17 467.75,259.38 464.25,257.69
             460.75,256.00 456.69,255.19 454.00,255.67
             451.31,256.15 445.38,256.62 443.33,259.33
             441.29,262.04 440.98,265.38 441.88,267.12
             442.77,268.88 443.75,271.65 446.56,273.00
             449.38,274.35 453.40,274.42 456.06,273.62
             458.73,272.83 460.08,271.35 461.69,269.50
             463.29,267.65 464.06,264.31 462.81,260.94
             461.56,257.56 454.88,255.62 451.31,256.00
             447.75,256.38 441.81,259.25 439.00,261.33
             436.19,263.42 433.48,267.54 432.31,269.12
             431.15,270.71 440.00,272.77 442.25,273.06
             444.50,273.35 458.79,275.02 461.94,274.25
             465.08,273.48 472.00,269.67 472.00,269.67
             472.00,269.67 476.12,266.06 479.69,266.44
             483.25,266.81 493.25,263.94 497.00,263.00
             500.75,262.06 501.25,258.75 501.33,256.33
             501.42,253.92 500.44,241.34 498.94,237.69
             497.43,234.03 483.00,224.56 480.33,223.67
             477.67,222.77 464.75,220.31 460.67,220.33
             456.58,220.35 441.98,223.54 438.12,225.38
             434.27,227.21 429.50,232.00 428.67,235.00
             427.83,238.00 425.25,244.06 428.33,242.67
             431.42,241.27 435.06,239.75 437.67,238.33
             440.27,236.92 445.90,234.04 449.50,233.06
             453.10,232.08 458.81,229.50 461.88,228.94
             464.94,228.38 470.62,226.56 475.56,226.38
             480.50,226.19 481.83,227.40 486.81,228.12
             491.79,228.85 475.44,222.25 470.44,221.25
             465.44,220.25 449.06,221.88 446.00,222.33
             442.94,222.79 434.19,227.33 432.69,229.75
             431.19,232.17 427.29,237.04 426.88,240.31
             426.46,243.58 425.75,254.19 426.33,257.67
             426.92,261.15 430.44,270.31 431.33,273.00
             432.23,275.69 434.12,288.75 435.00,292.67
             435.88,296.58 439.31,305.31 441.00,308.33
             442.69,311.35 445.85,314.33 446.81,318.06
             447.77,321.79 448.00,325.88 447.67,328.33
             447.33,330.79 444.56,335.31 442.33,337.00
             440.10,338.69 437.38,340.06 434.67,340.67
             431.96,341.27 425.38,341.81 421.67,341.67
             417.96,341.52 408.25,338.94 405.67,337.67
             403.08,336.40 401.17,332.73 402.94,331.12
             404.71,329.52 405.12,328.25 408.56,327.88
             412.00,327.50 414.33,327.85 415.69,329.00
             417.04,330.15 416.56,331.50 415.25,333.19
             413.94,334.88 406.19,338.12 403.06,338.69
             399.94,339.25 394.75,336.88 393.33,334.67
             391.92,332.46 391.12,327.69 391.33,325.33
             391.54,322.98 393.38,315.88 395.00,311.67
             396.62,307.46 401.00,299.12 402.00,295.00
             403.00,290.88 403.33,284.00 402.62,276.88
             401.92,269.75 389.19,269.44 384.33,268.33
             379.48,267.23 370.19,258.88 365.62,257.75
             361.06,256.62 357.19,256.62 352.33,257.67
             347.48,258.71 344.23,259.27 342.81,262.31
             341.40,265.35 341.69,267.50 342.67,269.67
             343.65,271.83 345.35,274.12 348.12,275.12
             350.90,276.12 356.56,276.25 359.31,275.06
             362.06,273.88 363.69,271.44 364.33,269.00
             364.98,266.56 365.00,263.75 364.50,261.81
             364.00,259.88 362.65,257.48 359.75,256.94
             356.85,256.40 349.81,257.98 346.44,259.19
             343.06,260.40 338.75,265.56 336.62,267.00
             334.50,268.44 334.10,269.96 330.81,272.00
             327.52,274.04 339.50,275.56 342.31,275.81
             345.12,276.06 360.56,277.38 370.88,274.69
             381.19,272.00 382.94,269.06 387.31,267.56
             391.69,266.06 394.44,264.50 397.00,262.00
             399.56,259.50 399.81,253.44 399.67,251.33
             399.52,249.23 396.88,239.88 396.00,237.67
             395.12,235.46 391.38,226.38 389.33,224.67
             387.29,222.96 374.75,220.81 369.33,220.67
             363.92,220.52 342.69,221.94 338.00,223.00
             333.31,224.06 326.25,225.69 322.33,228.33
             318.42,230.98 313.56,235.62 308.33,238.67
             303.10,241.71 322.69,232.94 327.38,231.56
             332.06,230.19 342.23,229.04 346.62,228.69
             351.02,228.33 358.27,228.83 364.19,229.31
             370.10,229.79 374.44,230.73 379.94,231.31
             385.44,231.90 388.06,232.62 390.00,232.00
             391.94,231.38 393.06,230.69 392.44,228.50
             391.81,226.31 382.44,221.75 379.33,221.33
             376.23,220.92 353.25,220.62 349.00,221.00
             344.75,221.38 333.31,223.38 328.00,225.00
             322.69,226.62 296.56,238.69 292.00,243.33
             287.44,247.98 276.50,267.44 274.67,272.67
             272.83,277.90 269.62,296.56 269.00,302.00
             268.38,307.44 269.78,321.26 270.00,323.67
             270.22,326.07 271.96,336.91 272.33,340.00
             272.71,343.09 272.39,347.17 271.33,348.67
             270.28,350.16 266.74,350.43 265.00,349.67
             263.26,348.90 258.22,346.13 256.67,344.67
             255.12,343.20 241.09,330.00 238.00,325.00
             234.91,320.00 227.09,302.36 226.33,296.00
             225.58,289.64 226.00,279.55 228.67,274.00
             231.33,268.45 234.18,263.09 237.67,261.00
             241.15,258.91 247.91,257.55 252.67,259.00
             257.42,260.45 260.91,265.18 262.33,268.67
             263.76,272.15 267.91,290.91 268.00,295.00
             268.09,299.09 268.92,314.38 267.75,316.50
             266.58,318.62 264.62,318.40 262.81,318.19
             261.00,317.98 253.31,316.88 251.33,314.67
             249.35,312.46 243.94,307.12 244.67,304.00
             245.40,300.88 249.19,294.58 252.44,294.25
             255.69,293.92 257.50,295.44 258.75,297.50
             260.00,299.56 260.54,301.35 258.12,305.94
             255.71,310.52 263.08,307.85 266.12,306.73
             269.16,305.60 271.45,329.64 271.79,333.06
             272.12,336.48 275.62,350.88 270.33,354.33
             265.04,357.79 254.67,354.67 254.67,354.67
             254.67,354.67 231.38,348.12 226.67,349.33
             221.96,350.54 219.12,350.67 216.88,355.12
             214.62,359.58 213.62,365.75 213.00,369.50
             212.38,373.25 210.12,382.75 209.00,388.00
             207.88,393.25 206.25,406.62 205.50,412.00
             204.75,417.38 201.75,429.75 199.75,435.25
             197.75,440.75 196.50,443.75 194.25,450.75
             192.00,457.75 192.50,459.62 192.00,464.00
             191.50,468.38 197.00,476.50 197.00,476.50
             197.00,476.50 206.50,490.00 206.50,490.00
             206.50,490.00 212.87,496.43 215.00,498.50
             217.13,500.57 222.39,505.04 224.00,506.50
             225.61,507.96 238.70,516.73 240.00,517.50
             241.30,518.27 250.00,523.78 252.96,525.22
             255.91,526.65 261.22,529.30 265.50,532.00
             269.78,534.70 272.70,536.17 275.17,537.48
             277.65,538.78 295.57,547.74 299.50,549.00
             303.43,550.26 316.52,553.35 320.00,554.00
             323.48,554.65 337.17,558.57 343.09,557.22
             349.00,555.87 346.25,549.75 345.50,547.00
             344.75,544.25 340.50,528.25 337.50,518.50
             334.50,508.75 329.00,494.75 326.00,486.00
             323.00,477.25 317.25,457.75 315.00,451.00
             312.75,444.25 311.25,437.75 305.75,431.75
             300.25,425.75 274.75,415.00 267.50,410.50
             260.25,406.00 253.25,401.00 247.50,395.00
             241.75,389.00 239.00,388.00 236.00,382.50
             233.00,377.00 231.25,371.25 231.00,366.50
             230.75,361.75 233.25,357.75 229.50,355.50
             225.75,353.25 215.75,355.50 213.50,360.00
             211.25,364.50 205.00,396.25 204.00,400.50
             203.00,404.75 195.50,433.62 194.50,440.50
             193.50,447.38 192.88,463.62 194.00,471.00
             195.12,478.38 214.52,499.43 217.00,501.50
             219.48,503.57 244.61,520.15 247.00,521.50
             249.39,522.85 282.74,540.91 289.00,544.00
             295.26,547.09 330.17,557.00 335.00,557.50
             339.83,558.00 409.00,566.75 417.50,567.50
             426.00,568.25 475.00,574.25 488.00,574.00
             501.00,573.75 524.82,575.00 531.00,574.50
             537.18,574.00 562.91,568.91 566.00,563.50
             569.09,558.09 561.27,538.18 559.50,533.50
             557.73,528.82 546.00,495.45 544.00,489.00
             542.00,482.55 537.86,468.95 535.64,462.00
             533.41,455.05 534.18,451.64 531.27,445.82
             528.36,440.00 496.73,416.36 491.00,416.00
             485.27,415.64 484.36,423.64 484.00,426.50
             483.64,429.36 490.73,440.55 495.00,443.00
             499.27,445.45 502.82,448.14 504.18,450.36
             505.55,452.59 509.64,485.64 510.50,492.00
             511.36,498.36 521.45,539.09 523.50,546.00
             525.55,552.91 527.82,572.73 532.00,573.50
             536.18,574.27 561.64,567.82 567.00,564.00
             572.36,560.18 551.64,504.91 549.00,497.50
             546.36,490.09 537.45,464.18 535.50,458.50
             533.55,452.82 534.55,447.27 528.36,442.00
             522.18,436.73 492.73,417.82 490.50,413.50
             488.27,409.18 489.22,388.44 489.50,386.50
             489.78,384.56 499.00,351.50 499.50,348.00
             500.00,344.50 503.69,278.00 504.00,275.00
             504.31,272.00 504.00,257.50 513.00,254.50
             522.00,251.50 532.50,260.00 533.50,271.50
             534.50,283.00 537.00,286.50 526.00,292.00
             515.00,297.50 513.00,293.00 510.00,283.00
             507.00,273.00 505.50,247.50 507.00,243.00
             508.50,238.50 517.00,236.00 526.00,235.00
             535.00,234.00 535.50,238.00 539.00,247.00
             542.50,256.00 546.00,256.00 536.50,261.00
             527.00,266.00 522.00,273.00 519.00,266.50
             516.00,260.00 510.00,256.00 517.50,246.00
             525.00,236.00 522.50,222.50 535.50,225.00
             548.50,227.50 556.50,229.00 549.00,236.00
             541.50,243.00 527.00,229.50 520.00,228.00
             513.00,226.50 505.50,232.50 497.50,226.00
             489.50,219.50 492.00,217.00 495.50,209.00
             499.00,201.00 492.00,196.50 505.50,195.50
             519.00,194.50 524.50,194.00 528.50,200.50
             532.50,207.00 537.50,209.50 530.00,215.00
             522.50,220.50 519.00,220.50 511.00,216.50
             503.00,212.50 493.00,207.00 485.50,202.00
             478.00,197.00 474.00,194.00 473.00,187.50
             472.00,181.00 470.00,179.00 474.50,173.00
             479.00,167.00 477.00,167.00 483.00,164.50
             489.00,162.00 483.00,160.00 496.00,160.00
             509.00,160.00 513.00,160.00 518.00,162.00
             523.00,164.00 531.00,166.00 534.50,170.50
             538.00,175.00 539.00,176.50 540.00,182.50
             541.00,188.50 544.00,192.50 546.50,203.00
             549.00,213.50 527.50,215.50 521.50,215.00
             515.50,214.50 500.50,197.50 497.50,192.00
             494.50,186.50 497.00,183.00 501.50,176.50
             506.00,170.00 515.00,148.00 525.00,149.50
             535.00,151.00 536.00,148.50 542.00,157.00
             548.00,165.50 553.50,175.50 551.00,183.00
             548.50,190.50 548.00,195.50 531.50,192.50
             515.00,189.50 513.00,189.00 513.00,181.00
             513.00,173.00 506.00,158.00 503.00,152.00
             500.00,146.00 504.00,142.00 506.50,134.50
             509.00,127.00 512.00,122.50 517.50,122.50
             523.00,122.50 526.00,115.50 530.50,126.00
             535.00,136.50 543.00,135.50 537.00,146.00
             531.00,156.50 499.50,152.50 491.00,154.00
             482.50,155.50 479.00,174.50 462.00,176.50
             445.00,178.50 454.50,176.00 445.50,168.00
             436.50,160.00 437.00,163.50 437.50,152.50
             438.00,141.50 444.00,135.50 445.50,130.00
             447.00,124.50 454.50,111.50 460.50,110.00
             466.50,108.50 468.00,103.50 478.00,107.50
             488.00,111.50 494.00,116.00 498.00,121.00
             502.00,126.00 504.50,159.50 497.00,171.00
             489.50,182.50 493.00,183.00 482.00,183.00
             471.00,183.00 462.50,175.00 457.00,163.50
             451.50,152.00 466.50,152.50 473.50,148.00
             480.50,143.50 507.00,126.00 508.00,118.00
             509.00,110.00 510.00,108.00 503.00,96.50
             496.00,85.00 492.50,76.00 484.00,79.50
             475.50,83.00 469.50,114.00 474.00,119.00
             478.50,124.00 496.50,127.00 492.00,143.50
             487.50,160.00 471.00,148.50 461.50,145.00
             452.00,141.50 454.50,138.50 461.00,128.50
             467.50,118.50 483.00,111.50 488.00,95.50
             493.00,79.50 484.50,73.50 479.50,69.00
             474.50,64.50 476.00,62.50 463.00,68.00
             450.00,73.50 443.00,74.00 446.50,88.00
             450.00,102.00 447.50,125.00 453.50,126.50
             459.50,128.00 479.50,114.50 487.00,107.00
             494.50,99.50 482.50,88.00 471.50,81.00
             460.50,74.00 430.50,87.50 426.50,97.00
             422.50,106.50 410.00,130.50 417.50,138.00
             425.00,145.50 437.00,147.00 446.50,148.00
             456.00,149.00 468.50,142.00 474.50,134.00
             480.50,126.00 475.00,106.50 469.00,97.50
             463.00,88.50 442.50,78.00 437.00,75.50
             431.50,73.00 428.00,80.50 423.50,89.00
             419.00,97.50 415.50,130.00 422.00,133.00
             428.50,136.00 436.50,139.50 447.00,139.50
             457.50,139.50 460.00,127.00 464.50,118.50
             469.00,110.00 463.00,106.50 460.00,94.50
             457.00,82.50 455.50,79.00 442.50,65.00
             429.50,51.00 409.50,48.50 403.50,55.50
             397.50,62.50 370.50,76.50 375.00,91.50
             379.50,106.50 370.00,110.00 379.00,121.50
             388.00,133.00 381.50,141.50 396.00,143.50
             410.50,145.50 421.00,144.00 431.50,141.00
             442.00,138.00 439.00,134.50 442.50,123.50
             446.00,112.50 447.00,116.00 441.50,103.00
             436.00,90.00 431.00,83.50 429.00,69.00
             427.00,54.50 432.50,50.50 417.50,44.50
             402.50,38.50 400.50,37.50 391.50,46.50
             382.50,55.50 375.50,56.50 373.00,65.00
             370.50,73.50 367.50,76.50 361.50,93.00
             355.50,109.50 349.50,119.50 357.50,126.00
             365.50,132.50 362.50,137.50 365.00,147.50
             367.50,157.50 363.00,166.50 380.00,160.00
             397.00,153.50 409.50,159.00 409.50,148.50
             409.50,138.00 400.50,131.00 407.00,121.00
             413.50,111.00 420.50,114.00 413.50,101.50
             406.50,89.00 386.50,97.00 391.50,106.50
             396.50,116.00 395.50,119.50 403.00,107.00
             410.50,94.50 417.00,95.50 412.50,83.00
             408.00,70.50 411.50,58.50 398.50,70.50
             385.50,82.50 390.50,97.00 381.50,106.00
             372.50,115.00 359.50,123.50 371.50,130.50
             383.50,137.50 387.00,146.00 397.00,132.00
             407.00,118.00 404.50,93.00 398.00,85.00
             391.50,77.00 387.00,47.00 373.00,54.50
             359.00,62.00 343.50,73.50 347.50,87.50
             351.50,101.50 346.00,105.00 360.50,108.50
             375.00,112.00 380.00,98.50 383.50,89.50
             387.00,80.50 391.50,70.00 383.00,61.00
             374.50,52.00 378.00,42.00 353.50,38.50
             329.00,35.00 321.50,25.00 319.50,45.50
             317.50,66.00 312.00,69.00 331.00,66.00
             350.00,63.00 358.00,66.00 350.50,53.00
             343.00,40.00 297.00,46.00 296.50,62.50
             296.00,79.00 288.50,96.00 309.00,99.00
             329.50,102.00 339.50,115.50 335.50,91.00
             331.50,66.50 319.00,36.00 307.00,65.50
             295.00,95.00 274.50,105.00 296.00,118.00
             317.50,131.00 323.50,148.00 334.00,127.00
             344.50,106.00 330.00,83.00 319.00,79.50
             308.00,76.00 291.00,126.00 298.50,138.50
             306.00,151.00 302.00,162.50 334.50,153.50
             367.00,144.50 362.00,139.50 364.00,120.00
             366.00,100.50 362.50,85.50 356.50,80.00
             350.50,74.50 315.00,46.50 301.50,48.00
             288.00,49.50 286.00,120.00 317.50,120.00
             349.00,120.00 364.50,81.50 364.50,75.50
             364.50,69.50 284.00,46.50 276.00,53.00
             268.00,59.50 249.00,46.00 255.50,83.00
             262.00,120.00 241.00,147.50 271.00,153.50
             301.00,159.50 321.00,156.50 333.50,146.00
             346.00,135.50 345.50,130.50 346.00,120.00
             346.50,109.50 306.00,77.50 284.50,71.00
             263.00,64.50 241.50,53.00 234.50,85.00
             227.50,117.00 220.50,141.50 235.50,147.50
             250.50,153.50 264.50,172.00 286.00,167.00
             307.50,162.00 318.00,159.00 312.50,143.00
             307.00,127.00 294.00,109.50 281.00,104.50
             268.00,99.50 232.50,87.00 223.00,94.50
             213.50,102.00 193.00,115.50 201.50,135.50
             210.00,155.50 196.00,158.00 217.00,169.00
             238.00,180.00 254.00,183.50 270.00,174.50
             286.00,165.50 288.50,165.00 291.50,149.50
             294.50,134.00 291.50,132.00 282.50,118.00
             273.50,104.00 189.00,124.50 191.00,145.00
             193.00,165.50 187.50,211.00 209.00,203.00
             230.50,195.00 259.50,196.00 244.00,171.00
             228.50,146.00 209.50,135.00 220.00,111.00
             230.50,87.00 247.00,75.00 261.00,82.00
             275.00,89.00 269.00,97.00 271.00,108.50
             273.00,120.00 289.00,124.50 268.50,135.00
             248.00,145.50 229.00,143.50 216.50,155.00
             204.00,166.50 186.00,159.50 203.50,182.50
             221.00,205.50 211.50,227.00 234.00,214.50
             256.50,202.00 281.50,203.00 279.00,185.50
             276.50,168.00 253.50,150.50 241.50,155.50
             229.50,160.50 183.00,190.50 191.00,214.50
             199.00,238.50 191.50,251.50 209.00,248.00
             226.50,244.50 236.50,250.00 246.50,242.00
             256.50,234.00 263.50,237.50 263.50,220.00
             263.50,202.50 268.00,202.00 258.50,192.00
             249.00,182.00 203.50,202.00 203.00,227.50
             202.50,253.00 195.00,265.50 203.00,275.50
             211.00,285.50 225.00,290.50 245.50,281.50
             266.00,272.50 273.50,268.50 274.50,254.50
             275.50,240.50 268.00,225.50 251.50,215.50
             235.00,205.50 211.00,248.00 212.50,263.50
             214.00,279.00 227.50,298.50 209.00,296.50
             190.50,294.50 192.00,293.00 195.00,284.00
             198.00,275.00 198.50,267.50 210.00,276.00
             221.50,284.50 217.50,291.50 216.00,305.50
             214.50,319.50 214.00,330.00 222.50,326.00
             231.00,322.00 227.00,328.50 226.00,315.50
             225.00,302.50 212.50,300.50 209.00,304.00
             205.50,307.50 225.50,334.00 234.50,339.50
             243.50,345.00 266.61,364.18 269.27,369.45 Z" />
</svg>
