<?xml version="1.0" encoding="UTF-8" standalone="no"?>
<!DOCTYPE svg PUBLIC "-//W3C//DTD SVG 20010904//EN"
              "http://www.w3.org/TR/2001/REC-SVG-20010904/DTD/svg10.dtd">

<svg xmlns="http://www.w3.org/2000/svg"
     width="11.8444in" height="17.7778in"
     viewBox="0 0 1066 1600">
  <path id="Woman"
        fill="none" stroke="black" stroke-width="1"
        d="M 511.88,191.75
           C 503.50,193.75 488.50,201.88 481.25,208.38
             464.50,223.38 459.25,242.25 463.63,273.12
             464.50,279.25 465.62,290.25 466.13,297.50
             467.00,310.50 467.13,310.75 476.13,329.12
             483.50,344.12 486.62,349.12 493.12,356.00
             493.12,356.00 501.00,364.38 501.00,364.38
             501.00,364.38 499.38,369.38 499.38,369.38
             498.38,372.25 495.38,376.37 492.50,379.00
             488.25,382.87 485.50,384.00 475.25,386.37
             459.00,390.00 450.75,393.25 445.38,397.87
             435.75,406.37 425.62,423.50 420.00,440.62
             418.38,445.37 414.63,455.25 411.50,462.50
             405.00,477.75 391.38,514.75 388.12,525.62
             387.00,529.75 383.50,542.50 380.62,554.00
             377.25,566.88 372.75,580.25 368.88,589.00
             364.12,599.62 361.13,609.25 356.88,627.50
             346.25,672.50 345.38,678.12 341.88,719.38
             340.75,731.75 339.00,747.25 337.75,753.75
             336.62,760.38 335.75,770.25 336.00,776.25
             336.25,788.12 333.38,815.38 330.62,826.88
             328.00,837.75 328.25,841.38 332.38,847.75
             334.38,850.87 336.38,854.50 336.75,855.87
             338.00,859.75 353.00,874.00 360.12,877.88
             367.12,881.88 370.00,881.62 370.00,877.00
             370.00,874.25 370.50,874.00 378.75,873.12
             386.00,872.38 387.50,871.88 387.50,870.00
             387.50,866.62 385.12,865.38 376.25,863.75
             362.88,861.25 359.62,859.75 357.25,855.00
             354.88,850.00 355.25,844.88 358.88,837.88
             360.25,835.25 361.25,832.00 361.25,830.50
             361.25,827.38 367.00,824.25 369.38,826.25
             371.50,828.00 374.62,835.87 375.62,841.75
             376.75,848.25 382.50,854.12 387.13,853.50
             390.50,853.12 390.62,852.88 390.25,846.88
             390.12,843.37 389.12,837.50 388.00,833.75
             386.88,830.00 385.50,821.50 385.00,814.88
             383.63,800.25 380.25,790.87 373.38,783.00
             368.12,777.00 368.12,777.00 368.25,767.62
             368.38,762.38 369.62,753.37 371.13,747.50
             376.38,727.50 390.25,686.88 402.50,656.25
             416.88,620.25 415.75,624.00 418.00,607.25
             419.12,599.88 421.00,590.62 422.38,586.62
             425.00,578.75 455.88,510.00 457.50,508.25
             458.12,507.75 459.75,510.25 461.38,513.87
             462.88,517.62 470.50,533.12 478.25,548.37
             492.88,577.12 498.88,592.25 501.38,606.62
             503.12,617.38 502.00,622.00 493.75,639.00
             488.12,650.25 485.75,653.37 474.00,665.50
             466.62,673.12 456.13,685.50 450.75,693.12
             445.25,700.62 437.50,710.50 433.50,715.00
             413.63,736.62 399.12,768.12 396.25,795.38
             395.00,807.38 397.00,833.12 402.62,877.50
             404.75,893.62 407.50,917.88 408.75,931.25
             410.12,944.62 412.62,969.38 414.50,986.25
             417.25,1012.88 417.62,1020.62 417.13,1045.00
             416.62,1070.38 416.25,1074.38 413.25,1085.50
             411.38,1092.25 406.62,1104.88 402.62,1113.62
             385.75,1150.25 378.75,1177.50 378.75,1207.00
             378.75,1213.38 380.12,1228.75 381.88,1241.38
             383.50,1254.00 385.75,1275.00 386.88,1288.12
             388.00,1301.12 390.25,1322.88 392.00,1336.25
             396.38,1369.88 397.25,1397.00 394.50,1413.12
             393.25,1420.00 391.00,1430.38 389.25,1436.25
             385.50,1449.50 385.25,1458.50 388.88,1463.00
             388.88,1463.00 391.38,1466.25 391.38,1466.25
             391.38,1466.25 406.00,1475.50 413.50,1480.00
             421.00,1484.50 451.82,1495.18 465.50,1497.00
             479.18,1498.82 510.42,1494.53 511.27,1494.18
             512.12,1493.83 514.00,1492.45 515.27,1491.82
             516.55,1491.18 522.75,1485.88 522.25,1481.75
             522.00,1478.75 520.62,1477.50 515.38,1475.00
             511.88,1473.25 507.75,1470.38 506.38,1468.62
             504.88,1466.75 497.88,1461.25 490.75,1456.38
             477.13,1447.12 459.50,1429.25 452.88,1417.75
             445.12,1404.62 440.50,1382.25 441.88,1365.00
             442.25,1361.25 443.12,1347.75 443.75,1335.00
             445.62,1304.25 450.50,1257.38 454.88,1228.12
             456.88,1215.00 459.25,1198.12 460.00,1190.62
             461.75,1173.75 466.38,1150.38 469.75,1141.62
             471.13,1138.00 474.50,1131.50 477.25,1127.12
             480.00,1122.88 483.25,1116.25 484.50,1112.50
             485.75,1108.75 488.00,1102.12 489.63,1097.75
             491.75,1092.25 492.50,1087.75 492.38,1082.12
             492.13,1075.38 492.75,1073.25 496.75,1065.25
             503.63,1051.88 509.50,1025.00 512.50,994.12
             513.62,981.88 516.12,904.12 516.25,875.00
             516.25,875.00 516.38,863.12 516.38,863.12
             516.38,863.12 520.62,871.25 520.62,871.25
             523.00,875.75 527.75,888.37 531.25,899.25
             539.62,925.12 554.62,960.38 574.00,999.38
             591.75,1035.12 595.38,1046.88 597.75,1074.75
             599.62,1095.62 599.00,1098.38 590.38,1107.75
             579.00,1120.12 569.12,1136.50 565.00,1150.00
             561.50,1161.00 561.25,1163.25 561.50,1178.75
             561.75,1194.75 561.38,1197.38 555.25,1226.88
             545.50,1274.50 543.12,1279.75 525.25,1296.00
             509.75,1309.88 508.25,1317.00 517.62,1330.75
             519.50,1333.50 526.12,1340.50 532.38,1346.12
             545.12,1357.75 548.75,1363.88 554.12,1382.62
             555.88,1388.50 558.12,1395.12 559.25,1397.25
             562.00,1402.50 568.88,1409.25 573.62,1411.38
             577.75,1413.25 588.88,1419.12 599.12,1419.75
             609.38,1420.38 611.50,1416.12 611.50,1416.12
             611.50,1416.12 608.88,1410.00 608.88,1410.00
             607.38,1406.62 606.25,1403.12 606.25,1402.12
             606.25,1401.12 604.62,1398.12 602.62,1395.38
             595.38,1385.38 587.62,1366.62 585.00,1353.12
             584.25,1349.00 582.25,1340.50 580.50,1334.38
             577.00,1321.25 576.62,1307.75 579.38,1297.12
             582.00,1287.12 597.88,1255.88 619.25,1219.12
             645.62,1173.38 650.12,1163.75 655.12,1142.75
             656.88,1135.25 658.88,1130.75 662.00,1126.75
             664.25,1123.62 666.25,1120.50 666.25,1119.88
             666.25,1119.12 667.75,1115.38 669.50,1111.50
             673.25,1103.38 675.00,1094.00 675.00,1082.50
             675.00,1078.00 675.88,1068.12 677.12,1060.62
             679.00,1048.25 679.13,1042.12 677.75,997.50
             675.62,921.88 672.38,903.25 652.12,848.75
             647.62,836.75 642.12,822.62 639.88,817.50
             633.00,801.62 633.38,791.25 642.00,757.75
             642.88,754.12 644.00,746.25 644.38,740.25
             644.88,734.25 646.00,724.62 647.00,718.87
             648.00,713.12 648.75,705.62 648.75,702.25
             648.75,702.25 648.75,696.12 648.75,696.12
             648.75,696.12 656.63,701.37 656.63,701.37
             660.88,704.25 667.25,709.38 670.88,712.62
             678.00,719.00 681.75,721.00 700.62,728.12
             721.63,736.00 722.62,736.50 727.88,742.75
             733.62,749.62 738.25,750.62 738.00,745.00
             737.88,742.00 741.88,737.75 744.25,738.50
             746.25,739.12 748.50,736.12 749.38,731.50
             749.88,729.00 751.25,725.12 752.62,723.00
             753.88,720.87 755.00,718.37 755.00,717.50
             755.00,716.62 751.75,712.88 747.88,709.12
             739.25,701.12 742.62,701.75 755.25,710.50
             759.62,713.62 764.75,716.62 766.38,717.38
             769.88,718.62 773.75,717.12 773.75,714.50
             773.75,713.62 769.00,708.62 763.25,703.37
             753.12,694.12 736.25,684.00 727.25,681.88
             723.88,681.00 724.00,680.87 730.25,677.62
             737.12,674.12 740.50,670.38 739.00,667.88
             738.25,666.62 733.25,666.75 716.25,668.12
             704.25,669.12 692.12,670.50 689.38,671.25
             679.50,673.62 677.00,673.00 666.63,665.12
             661.25,661.12 655.00,655.75 652.62,653.37
             652.62,653.37 648.38,648.87 648.38,648.87
             648.38,648.87 651.63,636.00 651.63,636.00
             653.38,628.87 655.25,620.00 655.62,616.25
             656.12,612.50 657.38,605.38 658.38,600.62
             659.50,595.12 660.12,584.25 660.25,570.87
             660.25,570.87 660.25,550.00 660.25,550.00
             660.25,550.00 663.75,550.00 663.75,550.00
             668.88,550.00 679.00,540.50 682.50,532.25
             684.75,527.38 685.50,523.37 685.38,516.75
             685.38,503.00 681.75,496.37 664.62,479.50
             652.50,467.50 650.25,464.62 648.00,458.12
             646.50,454.00 645.00,446.25 644.62,441.00
             643.75,428.87 640.75,422.00 631.88,411.88
             624.75,403.87 622.12,402.38 611.88,400.62
             605.88,399.62 587.38,391.12 581.62,386.75
             574.25,381.12 573.50,378.25 574.00,357.00
             574.25,346.62 573.88,331.37 573.25,323.00
             573.25,323.00 572.12,307.87 572.12,307.87
             572.12,307.87 575.38,307.00 575.38,307.00
             581.75,305.50 590.00,289.50 590.00,279.00
             590.00,274.25 585.62,263.75 583.62,263.75
             583.00,263.75 582.50,259.87 582.50,255.25
             582.50,239.00 574.25,216.00 564.38,205.25
             553.25,192.87 530.75,187.13 511.88,191.75 Z" />
</svg>
