<?xml version="1.0" encoding="UTF-8" standalone="no"?>
<!DOCTYPE svg PUBLIC "-//W3C//DTD SVG 20010904//EN"
              "http://www.w3.org/TR/2001/REC-SVG-20010904/DTD/svg10.dtd">

<svg xmlns="http://www.w3.org/2000/svg"
     width="15.7556in" height="8.22222in"
     viewBox="0 0 1418 740">
  <path id="path2830"
        fill="none" stroke="black" stroke-width="1"
        d="M 42.52,124.70M 1284.11,427.37
           C 1284.11,427.37 1284.11,427.37 1284.11,427.37
             1283.17,426.42 1283.11,425.33 1283.93,423.80
             1284.58,422.59 1284.80,421.08 1284.41,420.46
             1283.35,418.74 1272.18,418.80 1270.67,422.10
             1268.76,426.30 1264.93,427.65 1260.90,425.53
             1253.70,421.76 1244.14,427.37 1249.18,432.41
             1251.04,434.26 1252.06,434.43 1255.49,433.45
             1261.38,431.76 1263.70,432.07 1260.04,434.06
             1255.91,436.30 1255.12,438.80 1257.25,442.92
             1258.22,444.79 1259.02,447.70 1259.02,449.38
             1259.02,452.07 1258.74,452.28 1256.65,451.17
             1255.35,450.47 1253.48,447.96 1252.49,445.58
             1250.69,441.30 1250.66,441.28 1248.37,443.57
             1246.36,445.59 1246.23,446.48 1247.33,450.46
             1248.32,454.06 1248.25,455.25 1247.01,456.04
             1244.93,457.36 1243.96,457.32 1243.07,455.88
             1243.07,455.88 1243.07,455.88 1243.07,455.88
             1242.67,455.23 1242.66,453.66 1243.06,452.39
             1243.46,451.13 1242.97,448.85 1241.97,447.33
             1240.33,444.82 1240.34,444.29 1242.14,441.73
             1243.23,440.17 1244.52,435.99 1245.00,432.44
             1245.59,428.06 1237.16,423.31 1237.16,423.31
             1235.54,424.37 1234.22,425.89 1234.22,426.69
             1234.23,429.39 1226.66,444.99 1224.77,446.17
             1223.44,447.00 1221.91,446.84 1219.64,445.65
             1219.64,445.65 1219.64,445.65 1219.64,445.65
             1217.86,444.72 1215.46,444.25 1214.30,444.62
             1211.37,445.55 1199.69,443.18 1198.54,441.41
             1197.62,440.01 1178.75,442.38 1176.92,447.55
             1175.09,452.73 1173.26,459.33 1168.59,456.67
             1168.59,456.67 1168.59,456.67 1168.59,456.67
             1164.25,454.20 1156.42,444.64 1153.87,438.69
             1152.50,435.49 1149.35,430.21 1146.88,426.96
             1144.40,423.71 1141.56,419.46 1140.56,417.51
             1139.56,415.56 1136.53,411.84 1133.83,409.24
             1128.12,403.76 1124.62,398.01 1127.01,398.05
             1130.11,398.10 1138.08,402.54 1141.51,406.11
             1150.95,415.96 1152.88,417.72 1157.34,420.46
             1161.64,423.11 1165.61,419.35 1160.46,415.65
             1155.14,411.83 1151.74,405.78 1148.91,395.09
             1147.68,390.45 1146.33,388.46 1142.50,385.65
             1137.80,382.19 1137.66,381.89 1138.03,376.17
             1138.25,372.92 1138.78,368.32 1139.22,365.94
             1139.83,362.59 1139.32,360.19 1136.97,355.31
             1135.30,351.84 1133.32,346.52 1132.58,343.48
             1130.92,336.68 1128.57,335.54 1124.42,339.52
             1122.70,341.17 1120.97,342.51 1120.56,342.51
             1118.68,342.51 1116.10,338.51 1116.72,336.56
             1117.84,333.01 1110.92,320.65 1106.88,318.98
             1104.66,318.06 1102.63,315.83 1101.28,312.83
             1098.92,307.60 1096.28,305.61 1093.64,307.05
             1092.68,307.58 1088.85,308.63 1085.12,309.39
             1078.29,310.80 1075.84,312.86 1076.77,316.44
             1077.12,317.76 1075.92,319.03 1073.05,320.40
             1070.73,321.51 1068.22,323.74 1067.49,325.35
             1066.75,326.97 1065.13,328.62 1063.88,329.01
             1062.64,329.41 1060.72,331.21 1059.61,333.03
             1058.51,334.84 1055.23,338.16 1052.31,340.39
             1048.33,343.46 1047.09,345.17 1047.28,347.33
             1048.44,359.92 1046.66,370.46 1042.33,376.72
             1038.10,382.82 1037.80,382.99 1034.22,381.36
             1032.25,380.46 1031.04,378.71 1030.54,376.03
             1030.13,373.84 1027.75,367.66 1025.25,362.30
             1010.15,329.86 1007.92,323.67 1009.20,317.81
             1010.07,313.86 1007.99,307.88 1005.97,308.56
             1005.16,308.83 1004.49,309.81 1004.47,310.72
             1004.37,316.11 998.31,316.94 993.58,312.21
             993.58,312.21 990.45,309.08 990.45,309.08
             990.45,309.08 993.14,308.08 993.14,308.08
             996.18,306.96 995.90,303.93 992.81,304.48
             991.72,304.68 989.21,303.49 987.24,301.83
             985.26,300.17 983.20,298.81 982.64,298.81
             982.08,298.81 981.29,297.74 980.88,296.44
             979.79,293.01 973.52,290.02 970.38,291.44
             967.56,292.71 941.92,292.45 937.63,291.10
             936.08,290.61 933.22,288.39 931.27,286.16
             927.75,282.13 927.70,282.11 922.42,283.54
             917.41,284.89 916.68,284.76 909.94,281.36
             904.12,278.42 902.37,276.83 900.57,272.84
             898.28,267.75 893.18,264.07 890.08,265.26
             889.11,265.63 887.97,267.49 887.55,269.39
             886.95,272.12 887.56,273.89 890.46,277.83
             892.48,280.57 894.67,284.85 895.34,287.33
             896.78,292.67 899.61,294.25 901.97,291.04
             903.38,289.10 903.77,289.03 904.73,290.55
             905.34,291.52 905.67,292.85 905.46,293.50
             904.81,295.54 911.62,298.90 914.80,298.10
             916.41,297.70 919.84,294.96 922.43,292.02
             926.51,287.38 927.94,287.07 927.24,290.96
             926.77,293.58 928.83,296.65 932.24,298.42
             937.51,301.14 944.86,307.21 944.86,308.84
             944.86,309.59 943.48,311.50 941.79,313.07
             940.10,314.65 937.67,317.98 936.39,320.48
             933.28,326.55 924.26,335.42 921.21,335.42
             917.68,335.42 912.43,338.41 910.34,341.60
             909.35,343.11 906.74,345.24 904.55,346.33
             893.33,351.94 879.81,357.62 876.01,358.33
             871.94,359.09 871.61,358.91 869.46,354.66
             868.21,352.20 866.79,347.26 866.31,343.69
             865.68,339.05 864.47,336.09 862.04,333.32
             860.17,331.18 858.64,328.92 858.64,328.30
             858.64,327.67 856.51,324.96 853.90,322.28
             850.66,318.94 848.56,315.31 847.25,310.76
             846.19,307.11 844.05,302.53 842.48,300.58
             831.64,287.12 828.43,282.38 826.81,277.42
             824.67,270.85 822.86,269.79 822.02,274.62
             822.02,274.62 821.43,278.04 821.43,278.04
             821.43,278.04 817.43,273.00 817.43,273.00
             811.28,265.22 810.50,268.76 816.28,278.25
             819.02,282.74 823.38,290.66 825.97,295.86
             828.56,301.06 831.93,306.95 833.44,308.96
             835.00,311.03 836.20,314.27 836.20,316.42
             836.20,320.87 837.53,323.65 842.74,330.11
             844.84,332.71 846.91,336.50 847.35,338.54
             847.91,341.15 850.19,343.89 855.09,347.82
             862.54,353.79 867.36,360.03 868.56,365.23
             869.01,367.18 870.71,369.18 872.88,370.30
             876.17,372.00 877.33,371.96 887.74,369.70
             893.95,368.36 900.52,366.48 902.35,365.53
             902.35,365.53 905.68,363.81 905.68,363.81
             905.68,363.81 906.47,368.49 906.47,368.49
             907.19,372.74 906.42,374.78 898.01,390.91
             888.97,408.25 888.55,408.82 879.56,415.92
             874.50,419.91 869.20,424.80 867.79,426.78
             866.38,428.77 861.86,434.12 857.75,438.68
             845.76,452.00 844.13,463.71 852.08,479.40
             854.10,483.39 854.89,486.40 854.42,488.31
             854.02,489.90 854.27,493.91 854.98,497.22
             856.10,502.43 855.97,503.82 854.04,507.62
             851.25,513.09 849.02,515.05 841.22,518.97
             837.81,520.68 835.02,522.58 835.02,523.20
             835.02,523.81 832.63,527.01 829.70,530.30
             826.78,533.59 824.39,536.82 824.39,537.47
             824.39,538.13 825.48,540.81 826.82,543.44
             830.84,551.31 828.14,557.01 818.52,561.00
             814.46,562.68 813.13,566.11 814.13,572.29
             814.66,575.53 814.32,576.61 812.49,577.59
             811.22,578.27 808.93,580.80 807.39,583.21
             802.55,590.81 788.63,604.26 782.31,607.45
             777.04,610.11 775.69,610.35 771.81,609.28
             768.39,608.33 765.63,608.48 759.91,609.92
             750.62,612.25 751.61,612.35 748.01,608.76
             748.01,608.76 748.01,608.76 748.01,608.76
             745.51,606.25 745.10,604.98 745.65,601.53
             746.18,598.29 745.68,596.38 743.43,593.08
             741.84,590.73 740.53,588.23 740.53,587.52
             740.53,586.82 738.44,583.44 735.89,580.02
             731.95,574.73 731.13,572.62 730.48,565.93
             729.34,554.12 725.57,541.34 720.50,532.08
             718.01,527.53 715.62,521.62 715.18,518.95
             714.26,513.26 716.57,504.80 721.84,494.54
             721.84,494.54 725.35,487.72 725.35,487.72
             725.35,487.72 723.38,481.79 723.38,481.79
             722.28,478.47 721.74,474.54 722.16,472.88
             722.65,470.93 722.12,468.60 720.63,466.14
             719.38,464.08 717.52,459.47 716.50,455.89
             715.14,451.12 713.25,448.02 709.36,444.20
             701.87,436.86 700.90,433.97 703.22,425.97
             707.95,409.71 702.84,400.22 690.36,402.09
             685.50,402.82 685.31,402.73 684.63,399.29
             684.10,396.66 682.67,395.11 679.09,393.28
             674.43,390.91 672.44,390.90 666.71,393.23
             665.42,393.76 660.10,395.59 654.90,397.30
             647.09,399.88 644.74,400.21 641.34,399.22
             638.12,398.29 635.41,398.53 628.81,400.34
             622.00,402.21 619.53,402.41 615.85,401.39
             608.17,399.27 594.97,387.37 593.09,380.88
             591.64,375.85 582.60,364.14 579.53,363.30
             577.57,362.76 577.33,362.34 578.53,361.57
             579.73,360.80 579.52,360.40 577.64,359.91
             574.66,359.13 574.36,356.69 577.25,356.67
             579.02,356.65 579.06,356.48 577.54,355.50
             576.43,354.78 576.30,354.35 577.21,354.34
             578.15,354.33 577.79,352.87 576.18,350.14
             573.91,346.30 573.87,345.80 575.60,343.88
             580.88,338.05 582.04,325.47 578.02,317.55
             576.11,313.77 577.34,308.55 581.43,303.12
             582.97,301.07 585.98,296.10 588.12,292.06
             591.85,285.00 600.18,275.19 602.43,275.19
             604.93,275.19 612.98,266.54 612.98,263.86
             612.98,257.80 616.60,251.77 622.50,247.98
             625.67,245.94 629.38,242.46 630.76,240.25
             633.56,235.71 633.96,235.56 637.22,237.84
             638.50,238.73 641.69,239.82 644.30,240.26
             648.28,240.93 650.18,240.44 656.11,237.28
             666.30,231.82 672.61,230.46 684.28,231.19
             691.97,231.67 695.44,231.36 699.17,229.87
             704.66,227.67 709.41,228.97 708.12,232.32
             707.74,233.33 707.97,234.82 708.65,235.63
             709.50,236.65 709.49,238.12 708.63,240.39
             707.54,243.25 707.78,244.10 710.47,246.90
             712.17,248.68 715.22,250.46 717.24,250.87
             726.73,252.76 729.43,253.99 731.39,257.31
             732.83,259.74 734.71,260.99 737.82,261.57
             740.24,262.03 743.76,263.19 745.63,264.16
             748.82,265.81 749.23,265.75 751.88,263.26
             753.67,261.58 754.48,259.80 754.06,258.48
             753.69,257.33 753.97,255.30 754.68,253.98
             756.51,250.56 761.70,250.90 769.80,254.95
             778.62,259.37 795.36,262.52 801.29,260.88
             804.15,260.10 806.89,260.09 809.39,260.85
             817.55,263.36 821.73,261.40 822.84,254.53
             823.21,252.25 823.85,250.39 824.25,250.39
             825.01,250.39 825.41,246.96 825.52,239.46
             825.56,237.03 826.13,235.03 826.80,235.03
             827.60,235.03 827.56,234.18 826.69,232.55
             825.23,229.84 822.29,229.90 815.24,232.79
             811.90,234.17 810.97,234.11 807.97,232.34
             804.09,230.04 800.10,229.70 798.95,231.56
             798.10,232.94 792.06,231.97 788.78,229.93
             786.43,228.46 784.23,224.08 784.23,220.87
             784.23,219.64 783.04,217.79 781.57,216.76
             779.31,215.17 779.18,214.72 780.69,213.73
             781.66,213.09 783.67,212.85 785.14,213.20
             787.02,213.64 788.75,212.90 790.94,210.72
             792.99,208.66 795.49,207.53 798.30,207.38
             800.63,207.25 804.01,206.18 805.81,205.00
             809.71,202.43 818.57,203.14 825.45,206.58
             834.72,211.22 842.95,210.95 846.26,205.89
             847.99,203.26 848.00,202.71 846.36,200.21
             845.36,198.69 840.57,195.19 835.72,192.42
             835.72,192.42 826.89,187.40 826.89,187.40
             826.89,187.40 828.55,184.20 828.55,184.20
             829.45,182.44 829.90,180.71 829.54,180.34
             829.17,179.98 829.31,178.98 829.85,178.13
             830.38,177.27 830.92,175.88 831.05,175.05
             831.32,173.26 829.42,173.75 820.02,177.90
             814.57,180.32 813.76,181.05 814.97,182.51
             815.76,183.47 817.54,184.27 818.92,184.30
             820.86,184.34 820.40,184.90 816.91,186.74
             812.68,188.97 812.21,189.00 809.45,187.20
             807.10,185.65 806.79,184.94 807.91,183.59
             809.01,182.26 808.85,181.74 807.10,181.09
             805.89,180.63 804.33,179.50 803.63,178.57
             800.25,174.06 789.52,185.92 786.40,197.62
             784.93,203.11 784.98,203.40 787.74,205.48
             787.74,205.48 790.60,207.64 790.60,207.64
             790.60,207.64 785.35,208.72 785.35,208.72
             782.46,209.32 778.57,209.39 776.70,208.88
             773.25,207.93 768.88,209.35 768.88,211.42
             768.88,212.02 768.07,212.21 767.09,211.83
             766.11,211.46 764.55,211.78 763.62,212.54
             762.19,213.73 762.35,214.71 764.73,219.17
             767.30,224.01 767.38,224.67 765.78,227.89
             763.76,231.92 761.89,231.62 759.05,226.81
             757.07,223.46 757.09,223.38 759.71,223.01
             763.01,222.54 763.23,220.44 760.02,219.92
             752.70,218.75 748.80,214.90 748.80,208.84
             748.80,204.11 744.42,198.90 739.10,197.30
             736.34,196.48 733.33,194.74 732.43,193.44
             731.52,192.14 728.86,190.28 726.52,189.31
             724.18,188.33 721.56,186.52 720.70,185.29
             719.46,183.53 718.65,183.32 716.84,184.28
             715.58,184.96 714.55,186.27 714.55,187.20
             714.55,190.27 729.60,204.14 736.96,207.85
             744.76,211.79 745.98,213.20 740.56,212.01
             735.73,210.95 734.41,212.01 736.06,215.64
             737.23,218.19 737.04,218.96 734.70,221.21
             734.70,221.21 731.99,223.81 731.99,223.81
             731.99,223.81 732.60,220.29 732.60,220.29
             733.58,214.71 726.22,206.69 720.11,206.69
             717.88,206.69 709.28,198.35 707.02,193.99
             704.62,189.33 701.94,188.43 698.14,191.01
             692.43,194.88 688.14,196.19 683.66,195.44
             677.70,194.43 673.95,196.51 674.90,200.29
             675.40,202.26 675.12,203.14 674.01,203.14
             673.12,203.14 670.85,204.47 668.97,206.10
             667.08,207.72 665.13,209.05 664.63,209.05
             663.17,209.05 659.05,216.51 659.04,219.16
             659.04,221.70 654.42,226.69 649.96,228.98
             648.54,229.71 645.24,230.31 642.62,230.31
             639.02,230.31 637.54,230.90 636.56,232.75
             635.26,235.17 635.22,235.16 632.20,232.13
             629.36,229.29 627.72,228.58 621.99,227.70
             618.98,227.23 618.47,220.42 620.72,210.71
             621.69,206.55 622.16,201.90 621.77,200.37
             620.65,195.91 624.16,193.28 630.02,194.18
             643.55,196.26 651.47,196.37 653.32,194.52
             655.87,191.97 657.02,183.56 655.47,178.85
             654.45,175.77 653.06,174.51 648.89,172.92
             642.77,170.58 642.64,168.32 648.63,168.26
             650.91,168.24 654.20,167.29 655.94,166.15
             657.68,165.00 659.61,164.38 660.22,164.76
             661.89,165.79 668.21,162.15 670.31,158.94
             671.32,157.39 667.88,153.97 666.03,153.92
             664.19,153.88 665.06,155.60 658.19,156.59
             653.13,157.32 647.14,158.26 644.87,158.68
             641.70,159.27 641.29,159.18 643.09,158.28
             643.09,158.28 643.09,158.28 643.09,158.28
             644.39,157.64 646.95,156.58 648.77,155.92
             652.80,154.47 652.13,152.93 647.04,151.91
             643.55,151.21 643.43,151.03 645.43,149.57
             646.62,148.70 647.24,147.43 646.82,146.75
             646.39,146.05 647.60,144.96 649.59,144.27
             651.54,143.59 653.13,142.51 653.13,141.87
             653.13,139.14 650.67,134.55 649.30,134.73
             646.15,135.14 640.63,138.18 639.62,139.63
             638.61,141.07 637.78,143.67 637.78,145.39
             637.78,148.03 636.97,148.82 632.76,150.28
             630.00,151.24 626.88,152.39 625.82,152.85
             624.59,153.38 623.65,153.00 623.18,151.76
             623.18,151.76 623.18,151.76 623.18,151.76
             622.77,150.71 623.23,148.32 624.20,146.45
             625.31,144.30 625.53,142.78 624.78,142.32
             622.74,141.05 623.50,139.44 626.51,138.68
             628.11,138.28 630.03,137.21 630.79,136.30
             632.36,134.40 639.64,134.05 640.73,135.82
             641.13,136.47 644.69,134.58 645.20,133.17
             645.49,132.35 649.88,127.88 647.62,123.00
             645.38,118.12 619.12,88.25 614.05,87.55
             608.97,86.85 607.20,91.05 596.44,93.97
             595.47,94.24 593.08,93.40 591.13,92.12
             591.13,92.12 591.13,92.12 591.13,92.12
             589.18,90.84 586.70,90.07 585.61,90.42
             584.12,90.89 583.79,90.48 584.25,88.73
             584.95,86.04 585.25,66.14 576.65,67.94
             570.97,69.14 563.40,70.16 559.83,70.21
             553.19,70.31 548.41,72.22 541.37,77.56
             539.08,79.31 534.20,81.04 528.50,82.13
             516.57,84.41 512.54,87.05 505.36,97.28
             499.59,105.50 496.11,108.56 492.51,108.59
             491.53,108.60 488.08,107.15 484.83,105.38
             484.83,105.38 484.83,105.38 484.83,105.38
             477.36,101.31 473.78,95.05 475.95,89.82
             476.97,87.34 477.01,85.79 476.07,84.03
             474.11,80.38 476.66,76.09 483.19,72.08
             486.29,70.17 489.38,67.57 490.06,66.29
             491.96,62.76 490.27,56.70 486.98,55.20
             485.31,54.44 484.41,53.24 484.77,52.28
             485.61,50.09 481.68,42.63 477.76,38.98
             474.88,36.28 473.64,36.02 463.77,35.95
             450.33,35.86 447.83,35.12 448.05,31.26
             448.14,29.66 448.50,28.35 448.84,28.35
             449.18,28.35 453.96,27.79 459.47,27.11
             466.50,26.25 451.84,23.62 445.88,23.62
             444.42,23.62 440.25,25.22 436.59,27.16
             432.94,29.11 429.22,30.71 428.33,30.71
             427.43,30.71 423.57,32.30 419.74,34.24
             415.92,36.18 412.78,37.75 412.78,37.74
             412.78,37.72 409.24,40.36 409.24,40.36
             409.24,40.36 405.11,42.57 405.11,42.57
             402.83,43.79 400.18,44.73 399.20,44.66
             398.23,44.59 391.05,44.02 383.26,43.40
             383.26,43.40 383.26,43.40 383.26,43.40
             375.46,42.78 381.52,45.83 380.90,46.94
             380.27,48.06 377.52,50.54 377.52,50.54
             372.86,55.50 374.61,57.79 379.67,53.35
             381.82,51.46 385.52,49.55 387.91,49.11
             391.56,48.42 393.12,48.87 397.70,51.90
             403.79,55.94 404.26,56.05 407.70,54.21
             409.77,53.10 410.54,53.40 412.78,56.22
             414.34,58.17 417.81,60.29 421.19,61.36
             426.59,63.07 426.96,63.44 426.96,67.16
             426.96,69.95 427.76,71.71 429.66,73.07
             437.58,78.74 437.41,78.50 435.69,81.25
             433.34,85.01 431.49,85.29 426.28,82.63
             422.66,80.78 421.08,80.53 419.26,81.51
             417.03,82.70 417.00,82.96 418.80,86.43
             420.27,89.28 420.41,90.72 419.40,92.91
             418.17,95.62 417.97,95.66 414.62,93.93
             408.04,90.52 403.60,92.77 409.75,96.39
             411.67,97.53 412.98,98.90 412.65,99.43
             411.51,101.28 405.66,100.30 401.09,97.48
             401.09,97.48 401.09,97.48 401.09,97.48
             398.55,95.93 395.44,93.02 394.18,91.02
             391.71,87.13 389.44,86.64 382.79,88.55
             380.54,89.19 378.01,89.25 377.00,88.69
             373.50,86.73 379.82,84.81 386.85,85.69
             392.20,86.35 393.39,86.16 394.02,84.54
             395.27,81.27 401.01,78.93 404.20,80.38
             406.16,81.28 407.95,81.25 410.46,80.29
             413.83,79.01 413.88,78.89 411.67,77.27
             410.41,76.35 408.97,75.59 408.47,75.59
             407.98,75.59 406.18,73.22 404.48,70.32
             402.78,67.42 399.59,63.93 397.40,62.58
             393.67,60.27 393.18,60.23 389.85,61.96
             386.93,63.47 385.25,63.57 380.63,62.54
             377.53,61.84 370.82,65.30 374.89,66.86
             377.52,67.87 377.28,68.69 372.92,73.46
             367.74,79.15 365.08,80.31 357.29,80.31
             353.53,80.31 349.08,81.13 347.01,82.20
             344.15,83.68 342.75,83.81 340.49,82.77
             336.27,80.85 334.80,82.45 337.83,85.67
             337.83,85.67 340.41,88.42 340.41,88.42
             340.41,88.42 335.26,89.88 335.26,89.88
             332.43,90.68 327.72,91.42 324.79,91.51
             320.56,91.65 319.48,92.11 319.47,93.79
             319.47,95.22 317.40,96.73 312.98,98.54
             298.63,104.41 286.46,114.98 290.86,117.75
             291.69,118.27 293.00,120.14 293.78,121.91
             294.67,123.95 296.39,125.37 298.48,125.79
             300.28,126.15 304.95,128.02 308.85,129.93
             312.75,131.85 317.53,133.77 319.48,134.20
             324.85,135.37 324.89,135.49 322.39,141.83
             320.26,147.25 320.21,148.03 321.87,151.23
             322.86,153.15 324.33,154.70 325.12,154.68
             328.99,154.57 332.62,150.99 334.87,145.08
             337.02,139.44 338.00,138.39 344.17,135.09
             353.27,130.23 357.06,125.44 356.05,120.07
             355.39,116.56 355.73,115.74 358.73,113.61
             360.62,112.26 363.12,109.04 364.29,106.45
             366.90,100.66 371.10,98.65 378.17,99.81
             384.44,100.84 391.86,104.82 392.76,107.64
             393.13,108.80 392.82,110.88 392.08,112.27
             390.96,114.37 391.17,115.25 393.35,117.57
             393.35,117.57 395.97,120.36 395.97,120.36
             395.97,120.36 400.24,118.14 400.24,118.14
             402.59,116.93 406.36,114.55 408.62,112.86
             408.62,112.86 412.72,109.79 412.72,109.79
             412.72,109.79 413.68,112.40 413.68,112.40
             414.21,113.83 414.36,115.74 414.01,116.64
             413.67,117.54 413.94,119.31 414.61,120.57
             415.37,121.99 415.43,123.59 414.77,124.78
             414.02,126.11 414.52,128.14 416.42,131.49
             419.14,136.28 419.14,136.29 416.75,137.96
             413.60,140.17 415.62,142.51 419.08,140.66
             422.51,138.82 426.43,139.06 428.85,141.25
             432.43,144.49 429.46,148.37 419.96,152.84
             409.62,157.70 423.50,155.90 424.23,155.90
             425.00,155.90 424.77,156.77 423.68,157.97
             421.22,160.69 422.90,163.74 427.39,164.73
             429.35,165.16 431.31,166.66 432.06,168.32
             433.28,170.98 433.07,171.25 428.98,172.39
             424.69,173.58 419.56,173.68 410.75,172.76
             410.75,172.76 410.75,172.76 410.75,172.76
             410.75,172.76 406.35,172.30 406.35,172.30
             406.35,172.30 414.63,164.10 414.63,164.10
             419.18,159.59 405.01,158.66 391.53,158.78
             381.56,158.87 380.25,159.19 370.56,163.83
             364.88,166.55 360.23,169.25 360.23,169.82
             360.23,172.26 362.02,172.05 368.89,168.80
             372.94,166.88 378.16,165.35 380.64,165.35
             384.89,165.35 385.04,165.48 383.72,167.96
             382.95,169.39 381.29,171.40 380.04,172.42
             378.06,174.02 377.94,174.69 379.18,177.41
             381.04,181.48 385.88,183.43 391.67,182.46
             391.67,182.46 396.25,181.68 396.25,181.68
             396.25,181.68 392.73,184.11 392.73,184.11
             390.79,185.45 387.60,186.89 385.64,187.31
             383.68,187.73 379.65,189.30 376.68,190.80
             373.67,192.31 370.65,193.12 369.84,192.61
             367.97,191.46 369.94,189.73 376.01,187.19
             381.42,184.93 380.55,182.54 374.73,183.63
             372.46,184.05 365.11,186.82 358.39,189.78
             347.91,194.40 346.08,195.62 345.47,198.40
             344.72,201.82 342.16,203.43 333.16,206.17
             330.29,207.04 326.56,209.15 324.89,210.86
             323.21,212.57 320.00,215.12 317.76,216.54
             315.51,217.96 313.36,220.44 312.98,222.05
             312.35,224.72 312.20,224.78 311.41,222.73
             309.94,218.88 307.71,222.64 307.58,229.20
             307.45,235.92 304.04,240.50 296.58,244.01
             288.92,247.61 278.02,256.11 275.81,260.21
             273.86,263.83 273.78,265.24 274.98,274.55
             276.10,283.22 276.04,285.40 274.56,288.25
             273.46,290.38 272.18,291.40 271.11,290.99
             268.57,290.02 265.47,279.59 266.34,274.96
             266.95,271.74 266.55,270.52 264.15,268.27
             262.22,266.46 260.43,265.77 258.92,266.25
             257.65,266.65 254.08,265.89 250.96,264.55
             246.20,262.51 244.68,262.34 241.27,263.46
             238.97,264.22 236.67,266.03 235.92,267.68
             234.81,270.13 234.07,270.44 230.98,269.78
             228.99,269.35 225.92,268.27 224.17,267.37
             219.85,265.16 217.43,265.32 212.57,268.11
             210.31,269.41 205.69,271.90 202.31,273.64
             198.42,275.65 195.75,277.93 195.05,279.84
             194.45,281.50 192.27,287.99 190.21,294.26
             190.21,294.26 186.48,305.66 186.48,305.66
             186.48,305.66 188.39,313.01 188.39,313.01
             191.89,326.53 196.76,330.58 206.92,328.40
             214.57,326.76 219.17,323.43 220.86,318.31
             221.93,315.06 223.09,313.99 226.55,313.02
             231.77,311.58 233.94,311.52 235.95,312.79
             237.60,313.84 237.02,315.57 229.62,331.59
             224.54,342.58 224.91,343.57 233.60,342.31
             241.53,341.17 248.77,342.04 249.62,344.25
             249.95,345.11 249.41,350.91 248.43,357.14
             246.67,368.29 246.68,368.54 249.22,372.64
             250.64,374.94 253.30,377.59 255.13,378.54
             258.05,380.06 258.97,380.05 262.65,378.51
             268.50,376.07 271.68,376.33 275.74,379.58
             278.99,382.18 279.45,382.25 282.00,380.58
             283.52,379.59 285.59,377.12 286.60,375.11
             288.88,370.57 292.72,367.37 295.95,367.34
             297.30,367.33 299.65,365.98 301.17,364.36
             304.27,361.06 309.73,359.99 307.06,363.20
             304.82,365.90 303.54,374.57 304.99,377.26
             306.19,379.51 306.28,379.50 308.47,376.80
             310.02,374.88 310.34,373.64 309.49,372.79
             307.46,370.76 308.07,369.08 311.84,366.29
             315.76,363.39 318.80,363.69 322.18,367.30
             324.66,369.95 337.90,373.53 341.69,372.58
             347.47,371.13 363.08,380.62 368.95,389.15
             371.74,393.21 380.66,397.30 384.59,396.32
             392.66,394.29 403.73,402.38 406.31,412.19
             407.08,415.12 408.25,417.84 408.89,418.24
             410.62,419.32 408.04,423.56 402.39,428.93
             398.79,432.36 397.93,433.83 398.94,434.85
             399.96,435.86 401.62,434.97 405.63,431.28
             411.45,425.92 413.39,425.37 416.31,428.29
             418.08,430.06 418.03,430.42 415.60,433.01
             414.15,434.55 412.13,435.85 411.10,435.89
             410.02,435.93 410.46,436.45 412.14,437.12
             414.45,438.04 415.65,437.78 418.04,435.85
             424.28,430.81 425.75,430.57 431.29,433.66
             434.89,435.68 436.33,437.21 436.15,438.83
             435.64,443.33 436.71,444.33 439.83,442.28
             442.31,440.66 444.01,440.58 452.32,441.72
             461.15,442.93 462.30,443.41 466.54,447.64
             469.69,450.79 473.23,452.86 477.67,454.15
             483.64,455.89 484.29,456.42 485.37,460.44
             486.94,466.27 485.10,472.73 480.13,478.88
             478.00,481.50 475.40,485.35 474.34,487.44
             473.28,489.52 471.03,492.61 469.34,494.31
             466.48,497.17 466.32,497.89 467.03,504.69
             468.43,517.98 461.93,542.77 455.66,548.07
             453.62,549.79 451.87,550.20 448.63,549.70
             445.97,549.29 444.00,549.55 443.48,550.39
             443.02,551.14 440.44,552.72 437.75,553.91
             435.06,555.09 431.06,557.60 428.86,559.48
             425.04,562.74 424.91,563.10 426.20,566.99
             427.68,571.47 426.68,576.78 423.51,581.31
             422.48,582.78 421.64,585.27 421.64,586.85
             421.64,588.43 420.41,591.37 418.90,593.38
             417.40,595.39 414.49,599.99 412.45,603.60
             407.42,612.49 404.39,614.03 397.10,611.42
             390.77,609.15 387.39,608.88 387.39,610.64
             387.39,611.30 388.65,612.42 390.20,613.12
             391.74,613.83 394.14,616.69 395.54,619.48
             397.61,623.64 397.83,625.09 396.75,627.46
             395.07,631.14 388.66,634.24 382.70,634.24
             377.42,634.24 376.11,635.53 377.93,638.94
             379.06,641.04 378.30,644.42 376.12,647.02
             375.94,647.23 374.10,646.52 372.01,645.44
             367.04,642.87 365.28,644.51 367.79,649.37
             368.81,651.35 370.76,653.32 372.11,653.75
             374.44,654.48 374.46,654.65 372.57,656.74
             371.47,657.96 370.90,659.80 371.30,660.85
             371.73,661.97 370.77,664.40 368.94,666.80
             365.97,670.69 365.93,670.96 367.83,673.86
             368.92,675.52 370.62,677.19 371.61,677.57
             375.16,678.93 375.75,683.60 373.04,688.91
             370.32,694.24 369.91,699.58 372.01,702.11
             373.92,704.42 373.89,707.46 374.78,707.46
             375.67,707.46 379.56,709.51 383.43,712.01
             387.30,714.51 392.04,717.13 393.95,717.82
             393.95,717.82 397.43,719.09 397.43,719.09
             397.43,719.09 393.15,719.18 393.15,719.18
             390.79,719.23 387.34,719.49 385.47,719.76
             383.60,720.04 380.34,719.61 378.21,718.81
             378.21,718.81 378.21,718.81 378.21,718.81
             372.21,716.57 370.53,714.37 371.96,710.62
             372.62,708.88 367.49,708.91 364.60,707.29
             364.60,707.29 364.60,707.29 364.60,707.29
             363.47,706.65 361.58,706.44 360.41,706.81
             358.93,707.28 357.79,706.58 356.70,704.54
             355.83,702.92 354.28,701.30 353.25,700.95
             350.88,700.13 345.91,692.09 343.15,684.58
             341.75,680.79 339.87,678.17 337.64,676.91
             333.69,674.66 333.40,673.64 336.46,672.66
             339.97,671.55 340.62,665.38 337.67,661.24
             336.26,659.26 335.52,656.94 335.95,655.84
             336.45,654.53 335.07,652.24 331.72,648.84
             327.50,644.54 326.72,642.97 326.53,638.44
             326.41,635.51 325.70,632.37 324.95,631.47
             324.00,630.33 323.81,626.24 324.32,618.15
             324.87,609.39 324.55,603.98 323.02,596.44
             320.76,585.25 319.60,564.39 320.19,545.36
             320.32,541.30 319.79,535.73 319.02,532.97
             317.15,526.27 308.54,517.81 297.89,512.22
             290.28,508.21 289.21,507.19 286.23,501.04
             284.43,497.32 280.99,491.76 278.58,488.69
             276.17,485.61 273.56,481.09 272.76,478.65
             270.25,470.88 265.82,463.09 262.80,461.11
             261.19,460.06 259.36,457.32 258.73,455.02
             257.70,451.31 257.97,450.28 261.18,445.62
             264.66,440.56 264.70,440.35 262.35,439.74
             256.57,438.23 259.00,430.51 269.37,417.43
             276.26,408.74 278.28,402.12 276.37,394.46
             275.64,391.55 274.99,388.50 274.92,387.69
             274.85,386.87 274.33,386.21 273.77,386.21
             273.21,386.21 273.31,385.14 274.01,383.84
             275.09,381.84 274.81,381.26 272.23,380.09
             268.47,378.38 262.80,380.07 262.77,382.91
             262.75,386.32 261.25,386.57 256.31,383.99
             253.66,382.61 250.91,381.49 250.20,381.49
             249.49,381.49 246.71,379.60 244.03,377.29
             241.36,374.99 238.50,372.57 237.69,371.93
             236.88,371.29 236.21,369.54 236.21,368.04
             236.21,366.54 235.17,364.37 233.90,363.22
             232.62,362.07 230.97,359.28 230.23,357.02
             229.25,354.06 228.52,353.28 227.58,354.21
             225.64,356.16 222.76,355.79 215.76,352.70
             212.11,351.08 208.30,348.32 206.78,346.18
             205.33,344.14 202.55,341.65 200.61,340.65
             197.41,339.00 196.61,339.01 191.95,340.79
             191.95,340.79 186.82,342.75 186.82,342.75
             186.82,342.75 171.07,335.12 171.07,335.12
             161.37,330.42 153.85,325.94 151.52,323.48
             147.91,319.66 147.80,319.24 149.00,314.51
             150.10,310.17 149.91,308.83 147.52,303.88
             146.01,300.77 142.72,295.99 140.20,293.25
             137.68,290.52 135.91,287.82 136.25,287.26
             136.60,286.69 134.83,282.88 132.31,278.79
             129.45,274.14 127.43,269.15 126.93,265.51
             126.29,260.84 125.54,259.41 123.17,258.33
             120.66,257.18 119.95,257.33 118.52,259.29
             116.49,262.06 117.07,264.98 121.55,274.67
             123.37,278.60 125.25,284.44 125.73,287.63
             126.21,290.83 127.62,295.45 128.87,297.90
             131.84,303.70 129.92,303.60 125.25,297.70
             122.50,294.23 121.75,292.32 122.30,290.14
             122.89,287.81 122.31,286.69 119.45,284.57
             115.10,281.36 114.18,279.29 115.78,276.31
             116.71,274.57 116.28,272.66 113.92,268.00
             111.52,263.27 111.02,260.97 111.61,257.46
             112.59,251.71 110.01,246.51 105.20,244.52
             102.42,243.37 101.47,242.08 100.90,238.74
             100.50,236.38 99.74,232.72 99.20,230.61
             98.64,228.42 98.68,226.50 99.29,226.12
             99.88,225.76 99.50,224.14 98.44,222.52
             96.88,220.14 96.77,219.01 97.88,216.59
             98.63,214.94 98.91,213.06 98.51,212.41
             98.10,211.75 99.11,209.80 100.74,208.07
             102.38,206.33 104.55,202.88 105.58,200.38
             106.60,197.89 109.76,193.27 112.60,190.12
             115.43,186.96 119.03,181.44 120.59,177.84
             122.75,172.84 124.02,171.29 125.95,171.28
             127.34,171.26 128.40,171.92 128.31,172.73
             127.93,176.12 130.61,175.07 133.62,170.66
             135.39,168.07 136.34,165.76 135.74,165.55
             135.14,165.33 134.64,164.35 134.64,163.37
             134.64,162.40 132.20,159.22 129.21,156.32
             124.25,151.50 123.93,150.86 125.58,149.04
             126.92,147.56 127.07,146.48 126.18,144.89
             124.62,142.09 127.09,135.83 129.77,135.80
             130.87,135.79 131.19,135.42 130.51,134.92
             128.99,133.80 128.29,131.26 128.51,127.56
             128.85,121.64 127.56,119.17 123.16,117.33
             120.79,116.34 117.17,114.25 115.12,112.68
             113.07,111.12 110.46,109.84 109.33,109.84
             108.20,109.84 103.07,108.76 97.92,107.45
             89.65,105.34 88.19,105.25 85.33,106.73
             79.39,109.79 73.09,111.03 70.53,109.66
             68.60,108.63 66.50,109.27 59.18,113.10
             54.24,115.68 48.34,118.20 46.06,118.69
             43.79,119.18 39.44,120.83 36.39,122.37
             27.76,126.72 15.39,131.11 11.97,131.03
             9.76,130.98 11.25,130.01 17.13,127.68
             27.11,123.72 37.37,118.57 38.32,117.03
             39.49,115.14 36.95,114.46 33.90,115.85
             31.66,116.87 30.28,116.78 27.69,115.42
             27.69,115.42 24.36,113.67 24.36,113.67
             24.36,113.67 27.98,111.80 27.98,111.80
             32.08,109.68 33.36,107.29 32.42,103.54
             31.51,99.91 36.54,97.24 47.36,95.61
             53.18,94.73 57.60,93.27 60.57,91.24
             65.82,87.67 64.92,84.97 59.26,87.31
             56.58,88.42 54.63,88.43 50.66,87.37
             45.84,86.07 45.67,85.88 47.83,84.31
             51.44,81.67 58.90,80.08 63.80,80.91
             66.91,81.43 69.45,81.06 72.06,79.72
             72.06,79.72 75.83,77.77 75.83,77.77
             75.83,77.77 73.35,75.12 73.35,75.12
             71.98,73.67 70.86,72.17 70.86,71.79
             70.86,70.69 77.97,68.50 81.53,68.50
             83.30,68.50 88.17,67.22 92.34,65.65
             96.51,64.08 106.13,61.93 113.73,60.88
             126.04,59.18 128.64,59.16 137.88,60.69
             143.57,61.64 151.41,62.76 155.31,63.19
             159.21,63.63 166.11,65.00 170.64,66.24
             181.17,69.13 188.03,69.09 199.79,66.09
             204.99,64.76 210.24,64.00 211.46,64.38
             212.68,64.77 214.76,64.51 216.08,63.81
             217.90,62.84 219.30,62.95 221.90,64.29
             224.24,65.50 227.13,65.85 231.06,65.39
             235.21,64.90 238.84,65.41 244.15,67.20
             248.19,68.57 252.68,69.68 254.12,69.68
             256.68,69.68 256.69,69.73 254.45,71.37
             252.26,72.98 252.25,73.09 254.31,73.89
             255.50,74.35 259.61,74.40 263.44,74.00
             270.38,73.27 270.44,73.29 272.37,77.03
             272.37,77.03 274.32,80.80 274.32,80.80
             274.32,80.80 276.85,77.63 276.85,77.63
             278.30,75.81 281.75,73.74 284.96,72.78
             289.81,71.32 287.95,66.32 283.01,68.44
             277.42,70.84 276.24,70.99 270.47,70.08
             270.47,70.08 270.47,70.08 270.47,70.08
             268.84,69.82 264.89,68.43 261.67,66.99
             261.67,66.99 255.84,64.37 255.84,64.37
             255.84,64.37 264.04,63.78 264.04,63.78
             268.55,63.45 272.24,62.66 272.24,62.01
             272.24,61.36 269.05,60.54 265.15,60.19
             260.00,59.73 259.03,59.41 261.61,59.01
             265.92,58.34 266.23,56.48 262.20,55.46
             259.30,54.73 258.92,54.93 263.00,53.17
             270.07,50.13 255.34,54.32 245.64,58.35
             244.65,58.76 242.94,58.19 241.83,57.08
             239.93,55.17 240.36,54.76 249.50,49.75
             260.21,43.89 265.59,43.11 275.19,46.04
             275.19,46.04 280.50,47.66 280.50,47.66
             280.50,47.66 273.42,49.06 273.42,49.06
             267.62,50.21 278.00,49.30 284.67,51.28
             290.15,52.90 291.01,52.90 293.59,51.21
             295.42,50.01 296.50,49.81 296.60,50.65
             296.68,51.37 296.81,52.59 296.89,53.35
             297.17,55.90 299.52,55.57 302.33,52.58
             304.94,49.81 309.45,48.48 309.44,50.49
             309.43,50.98 308.38,53.10 307.10,55.20
             307.10,55.20 304.77,59.02 304.77,59.02
             304.77,59.02 308.58,61.01 308.58,61.01
             308.58,61.01 312.39,63.00 312.39,63.00
             312.39,63.00 306.14,65.85 306.14,65.85
             300.49,68.43 299.33,68.58 294.27,67.36
             289.36,66.19 291.28,71.32 296.15,72.81
             299.59,73.87 303.71,74.25 306.79,73.81
             310.72,73.24 312.54,73.59 315.10,75.42
             318.34,77.72 318.43,77.72 321.29,75.50
             322.89,74.26 326.19,72.69 328.61,72.01
             334.42,70.39 336.39,66.95 332.90,64.51
             330.44,62.78 327.16,59.09 327.16,55.55
             327.16,55.55 327.16,55.55 327.16,55.55
             327.16,54.92 325.70,53.57 323.91,52.54
             323.91,52.54 320.66,50.68 320.66,50.68
             320.66,50.68 325.01,51.36 325.01,51.36
             328.10,51.85 329.64,51.56 330.32,50.36
             331.14,48.94 338.66,46.09 341.66,46.07
             342.16,46.06 341.75,47.65 340.74,49.60
             338.37,54.19 330.54,62.65 337.02,59.47
             341.86,57.10 344.03,56.56 344.98,57.50
             345.92,58.44 345.91,59.48 344.94,61.29
             343.29,64.37 345.34,69.03 347.92,68.04
             348.84,67.69 350.37,67.69 351.32,68.06
             352.82,68.63 352.79,69.12 351.15,71.62
             346.61,78.56 356.79,76.59 363.68,69.21
             366.48,66.21 373.20,61.60 371.00,62.01
             367.20,62.73 360.23,60.86 360.23,59.14
             360.23,55.96 373.82,48.56 376.17,47.78
             378.52,47.00 368.94,42.14 368.76,41.98
             367.71,41.00 370.34,37.81 373.17,36.63
             375.96,35.48 377.25,35.63 381.06,37.57
             384.78,39.47 387.18,39.78 394.09,39.28
             398.74,38.95 404.06,39.05 405.90,39.52
             405.90,39.52 411.46,36.93 409.83,35.98
             409.83,35.98 409.83,35.98 409.83,35.98
             407.78,34.78 404.89,34.43 400.38,34.84
             396.17,35.23 392.94,34.90 391.18,33.89
             388.77,32.51 389.36,32.35 396.73,32.41
             405.96,32.49 410.01,30.51 405.01,28.38
             402.64,27.36 402.99,27.27 407.05,27.83
             412.36,28.57 414.43,27.15 411.53,24.75
             408.45,22.18 411.84,21.39 422.82,22.10
             429.61,22.54 433.88,22.29 435.63,21.36
             438.97,19.57 437.66,17.29 433.84,18.25
             431.20,18.92 412.87,17.83 413.64,17.05
             414.20,16.50 440.16,14.10 457.21,13.02
             466.05,12.46 475.88,11.68 479.06,11.29
             479.06,11.29 484.83,10.57 484.83,10.57
             484.83,10.57 475.30,15.15 475.30,15.15
             466.37,19.44 472.80,24.47 480.63,21.13
             492.76,15.95 493.68,15.85 522.62,16.53
             531.76,16.75 540.17,16.07 550.97,14.25
             561.03,12.56 568.43,11.92 572.42,12.40
             575.82,12.81 580.74,12.54 583.51,11.79
             589.95,10.06 606.69,12.15 613.27,15.50
             617.16,17.49 619.22,17.75 625.79,17.10
             632.88,16.39 633.41,16.48 631.28,18.05
             629.98,19.00 626.00,20.17 622.42,20.64
             614.67,21.66 607.55,27.19 609.44,30.71
             610.25,32.24 609.67,33.54 607.03,36.06
             605.12,37.89 603.27,40.27 602.93,41.35
             602.11,43.94 591.67,48.76 586.49,48.94
             580.74,49.14 580.14,50.37 584.59,52.82
             586.69,53.97 589.75,55.94 591.40,57.20
             591.40,57.20 594.40,59.47 594.40,59.47
             594.40,59.47 591.69,60.48 591.69,60.48
             589.61,61.24 587.93,60.75 584.48,58.36
             579.79,55.11 574.75,55.09 577.44,58.33
             578.49,59.60 578.23,60.09 576.27,60.60
             571.88,61.75 574.98,64.02 579.82,63.20
             582.91,62.68 584.64,62.95 585.60,64.12
             586.75,65.50 595.33,82.16 598.84,83.28
             600.06,83.66 603.19,83.35 605.78,82.57
             609.86,81.35 610.94,81.44 613.70,83.24
             613.70,83.24 616.89,85.34 616.89,85.34
             616.89,85.34 646.64,120.55 649.88,120.49
             650.37,120.48 650.64,121.12 650.48,121.92
             650.31,122.71 651.43,123.56 652.95,123.79
             652.95,123.79 655.72,124.21 655.72,124.21
             655.72,124.21 653.08,127.03 653.08,127.03
             653.08,127.03 650.43,129.85 650.43,129.85
             650.43,129.85 653.41,130.98 653.41,130.98
             656.62,132.20 659.71,136.17 662.85,143.11
             664.36,146.44 665.35,147.31 667.11,146.85
             670.72,145.90 672.07,148.16 668.69,150.38
             666.39,151.88 673.32,155.83 674.75,155.46
             676.18,155.10 680.00,152.33 683.25,149.30
             687.85,145.01 690.27,143.67 694.22,143.20
             699.11,142.61 704.03,138.59 701.72,137.06
             700.28,136.11 699.09,130.39 699.89,128.31
             700.26,127.32 701.94,125.62 703.60,124.53
             703.60,124.53 706.63,122.55 706.63,122.55
             706.63,122.55 705.85,127.41 705.85,127.41
             705.18,131.63 705.35,132.22 707.15,131.92
             708.30,131.73 710.44,130.91 711.91,130.10
             714.15,128.87 714.70,128.93 715.29,130.47
             716.30,133.11 713.49,136.21 711.54,134.60
             710.47,133.71 709.79,133.74 709.19,134.71
             708.57,135.71 708.09,135.66 707.38,134.51
             706.85,133.64 706.14,133.21 705.81,133.54
             705.48,133.87 706.42,135.67 707.90,137.53
             710.41,140.67 710.89,140.82 714.45,139.58
             717.51,138.51 718.98,138.58 721.58,139.93
             724.52,141.45 725.51,141.38 731.16,139.23
             736.10,137.35 738.05,137.11 740.24,138.11
             742.26,139.02 743.75,139.01 745.62,138.04
             750.93,135.29 752.40,133.22 751.74,129.42
             750.77,123.79 752.56,121.95 757.27,123.73
             760.48,124.94 761.42,124.89 762.87,123.44
             764.40,121.91 764.27,121.34 761.76,118.66
             759.33,116.08 759.17,115.44 760.64,114.45
             761.60,113.80 765.19,113.57 768.61,113.93
             774.89,114.60 782.70,112.15 781.34,109.94
             780.15,108.01 772.95,107.45 766.85,108.82
             761.44,110.03 760.02,109.93 755.87,108.06
             749.43,105.16 748.67,101.76 753.09,95.60
             758.78,87.68 759.82,85.16 758.20,83.20
             755.80,80.31 753.44,81.26 747.96,87.30
             745.07,90.49 741.13,93.75 739.20,94.55
             737.27,95.35 734.89,97.56 733.90,99.47
             732.30,102.57 732.30,103.22 733.93,105.71
             734.93,107.23 736.82,108.82 738.14,109.24
             741.76,110.39 741.04,112.55 735.86,116.09
             734.27,117.18 732.14,120.27 731.14,122.95
             729.88,126.31 727.97,128.60 724.98,130.32
             720.77,132.75 720.58,132.76 718.26,130.66
             716.94,129.47 715.54,127.04 715.15,125.26
             714.76,123.48 712.99,120.28 711.21,118.15
             711.21,118.15 707.98,114.28 707.98,114.28
             707.98,114.28 703.88,116.78 703.88,116.78
             701.63,118.16 698.72,119.27 697.42,119.26
             693.67,119.22 689.34,115.17 689.05,111.44
             688.90,109.59 688.42,107.16 687.97,106.05
             686.92,103.40 692.20,98.44 697.70,96.92
             703.22,95.40 714.40,87.56 716.31,83.88
             717.16,82.24 720.03,78.95 722.70,76.56
             725.36,74.17 727.54,71.69 727.54,71.05
             727.54,70.41 730.06,68.98 733.15,67.88
             736.24,66.78 741.42,64.79 744.67,63.45
             748.65,61.80 753.64,60.93 760.02,60.77
             771.17,60.49 778.46,61.96 784.47,65.73
             787.49,67.62 789.87,68.26 792.15,67.80
             796.23,66.99 817.97,73.73 818.87,76.09
             819.78,78.46 813.55,80.70 808.19,79.92
             805.73,79.57 800.65,78.62 796.90,77.82
             791.84,76.74 789.73,76.71 788.74,77.69
             787.76,78.67 788.25,79.40 790.64,80.49
             792.41,81.29 794.63,83.44 795.56,85.26
             797.96,89.88 805.61,93.65 809.56,92.15
             813.36,90.70 813.33,90.25 809.33,88.07
             805.62,86.07 807.33,85.63 811.99,87.40
             815.70,88.81 819.91,87.05 818.93,84.50
             818.47,83.30 819.76,82.44 823.40,81.51
             831.20,79.51 831.77,79.23 831.12,77.65
             828.68,71.67 828.64,71.84 832.20,72.25
             834.10,72.46 835.48,73.28 835.32,74.08
             835.17,74.87 836.16,76.12 837.52,76.85
             839.57,77.94 841.19,77.55 846.83,74.60
             855.09,70.26 861.53,68.85 863.93,70.84
             865.27,71.95 867.49,71.96 873.91,70.88
             878.45,70.11 882.68,69.80 883.31,70.19
             883.94,70.58 884.81,70.34 885.23,69.65
             886.16,68.14 883.59,64.73 882.18,65.60
             880.48,66.65 868.68,62.42 868.68,62.42
             866.73,62.39 863.01,61.53 860.41,60.50
             860.41,60.50 860.41,60.50 860.41,60.50
             854.37,58.12 854.50,58.25 856.25,56.13
             857.07,55.14 857.28,54.31 856.72,54.29
             856.15,54.27 856.75,53.45 858.05,52.47
             859.35,51.49 860.42,50.31 860.43,49.85
             860.47,48.10 865.28,43.50 868.68,41.95
             870.63,41.06 875.68,40.06 879.90,39.72
             884.12,39.39 889.78,38.77 892.47,38.36
             895.33,37.92 897.66,38.10 898.09,38.80
             898.93,40.15 897.33,40.73 888.17,42.37
             879.07,44.01 873.60,46.55 870.00,50.83
             866.21,55.34 866.08,58.19 869.56,60.62
             869.56,60.62 872.22,62.47 872.22,62.47
             872.22,62.47 874.89,64.77 876.11,63.55
             877.33,62.33 910.20,69.99 912.17,71.95
             913.49,73.28 917.69,71.51 917.69,69.63
             917.69,68.99 915.35,67.33 912.48,65.94
             903.60,61.63 903.03,54.71 911.38,52.62
             916.23,51.40 918.33,52.80 925.04,61.76
             933.74,73.38 933.52,72.79 930.68,76.78
             928.57,79.74 928.44,80.43 929.90,80.99
             932.67,82.06 938.60,78.34 939.43,75.02
             940.41,71.12 938.59,67.80 934.23,65.55
             930.80,63.78 928.32,60.53 928.32,57.82
             928.32,56.89 929.61,56.66 932.16,57.13
             935.99,57.83 939.16,56.44 947.83,50.26
             949.81,48.85 953.16,47.92 956.54,47.84
             963.40,47.68 965.62,46.53 963.64,44.16
             962.87,43.22 962.48,42.22 962.78,41.92
             964.29,40.41 983.74,37.69 988.21,38.36
             992.52,39.01 993.86,38.66 997.40,35.95
             999.68,34.21 1001.55,32.32 1001.55,31.75
             1001.55,30.31 991.23,30.43 990.33,31.89
             989.09,33.89 987.49,33.19 987.94,30.85
             988.32,28.87 987.32,28.55 978.72,27.88
             955.23,26.05 953.32,25.62 956.14,22.80
             958.61,20.33 964.69,20.37 969.78,22.91
             971.86,23.95 975.31,24.80 977.45,24.80
             979.58,24.80 981.66,25.33 982.06,25.98
             982.46,26.63 984.53,27.16 986.66,27.16
             992.55,27.16 1003.94,29.71 1003.22,30.87
             1002.87,31.43 1003.98,31.89 1005.67,31.89
             1007.37,31.89 1010.45,32.80 1012.53,33.92
             1015.33,35.43 1019.23,35.97 1027.53,36.00
             1036.45,36.04 1039.42,36.50 1042.00,38.24
             1043.79,39.44 1045.24,40.77 1045.23,41.18
             1045.22,41.59 1042.50,43.43 1039.17,45.26
             1031.15,49.69 1032.85,51.62 1042.55,49.10
             1048.84,47.47 1050.28,47.46 1055.49,49.01
             1059.76,50.28 1062.42,50.44 1065.32,49.61
             1068.21,48.78 1071.18,48.96 1076.21,50.26
             1081.46,51.62 1084.19,51.76 1087.51,50.84
             1095.11,48.73 1104.46,49.32 1109.88,52.26
             1112.58,53.72 1117.55,56.43 1120.93,58.27
             1126.92,61.54 1127.18,61.58 1131.34,59.71
             1134.82,58.15 1136.76,58.02 1141.89,59.00
             1146.99,59.98 1148.84,59.86 1151.71,58.38
             1154.52,56.92 1154.98,56.21 1153.90,54.92
             1151.83,52.42 1159.19,51.49 1168.23,53.11
             1172.37,53.85 1177.62,54.59 1179.89,54.75
             1182.16,54.92 1186.61,56.21 1189.76,57.63
             1194.57,59.80 1198.21,60.29 1212.29,60.68
             1225.65,61.04 1229.90,61.58 1233.12,63.29
             1236.39,65.04 1240.12,65.48 1252.53,65.60
             1263.94,65.71 1269.05,66.26 1272.43,67.71
             1277.90,70.06 1280.08,69.20 1277.11,65.87
             1274.97,63.47 1274.98,63.47 1283.23,64.29
             1297.06,65.66 1313.64,68.69 1319.26,70.86
             1322.18,71.99 1327.75,73.31 1331.64,73.78
             1335.52,74.26 1341.19,75.91 1344.24,77.45
             1348.86,79.79 1350.36,80.05 1353.33,79.02
             1357.39,77.60 1360.02,78.62 1366.22,84.00
             1366.22,84.00 1370.07,87.35 1370.07,87.35
             1370.07,87.35 1367.17,88.08 1367.17,88.08
             1364.25,88.81 1356.52,86.89 1353.85,84.78
             1353.07,84.16 1351.97,83.94 1351.41,84.28
             1350.85,84.63 1348.09,84.12 1345.27,83.15
             1338.68,80.87 1335.75,81.73 1338.75,85.05
             1340.80,87.31 1340.76,87.36 1336.85,87.09
             1329.52,86.58 1331.54,88.74 1342.29,92.93
             1348.13,95.21 1353.17,97.32 1353.47,97.62
             1354.58,98.69 1350.93,100.02 1348.27,99.51
             1345.35,98.96 1338.15,102.09 1338.15,103.92
             1338.15,104.53 1337.02,106.08 1335.63,107.38
             1333.31,109.54 1332.83,109.59 1329.72,107.98
             1326.82,106.48 1325.89,106.47 1323.10,107.87
             1321.31,108.77 1318.26,109.89 1316.31,110.36
             1314.37,110.83 1312.11,111.76 1311.30,112.43
             1308.93,114.40 1313.12,120.15 1319.02,123.00
             1322.24,124.56 1324.56,126.64 1325.26,128.59
             1325.86,130.29 1327.15,133.10 1328.12,134.81
             1329.69,137.61 1329.68,138.01 1327.99,138.66
             1326.75,139.14 1326.38,140.09 1326.92,141.44
             1327.37,142.57 1327.88,144.83 1328.06,146.45
             1328.23,148.08 1328.75,150.29 1329.21,151.37
             1329.82,152.77 1329.32,153.56 1327.46,154.15
             1325.38,154.81 1323.99,154.02 1320.58,150.25
             1318.23,147.65 1314.31,144.07 1311.86,142.29
             1309.42,140.52 1305.04,135.90 1302.14,132.04
             1297.01,125.22 1296.90,124.91 1298.61,121.62
             1299.57,119.75 1300.38,117.00 1300.40,115.51
             1300.43,114.01 1301.17,111.47 1302.07,109.86
             1303.77,106.78 1303.12,104.32 1299.47,100.13
             1297.07,97.39 1292.81,99.45 1293.89,102.83
             1294.88,105.95 1291.84,106.96 1288.35,104.67
             1286.84,103.68 1283.35,102.51 1280.60,102.08
             1275.89,101.32 1275.54,101.47 1274.32,104.67
             1273.61,106.54 1273.31,109.49 1273.65,111.23
             1274.19,113.94 1273.82,114.50 1271.03,115.11
             1269.13,115.53 1265.88,115.04 1263.23,113.93
             1260.32,112.71 1257.58,112.34 1255.61,112.91
             1253.91,113.39 1248.18,113.82 1242.88,113.88
             1234.47,113.96 1232.85,114.33 1230.30,116.73
             1228.68,118.24 1226.75,121.96 1225.99,125.00
             1225.24,128.03 1223.85,131.69 1222.91,133.14
             1221.29,135.64 1221.45,135.89 1226.08,138.25
             1231.10,140.81 1236.58,141.49 1240.73,140.06
             1243.94,138.95 1253.71,146.57 1256.76,152.55
             1258.01,155.00 1260.07,157.56 1261.35,158.24
             1266.17,160.83 1267.15,177.77 1263.12,188.84
             1260.33,196.51 1257.20,199.02 1252.61,197.27
             1250.85,196.60 1249.24,196.06 1249.03,196.06
             1248.81,196.06 1247.49,198.24 1246.11,200.90
             1244.28,204.40 1243.93,206.17 1244.83,207.25
             1246.55,209.32 1245.27,212.02 1241.83,213.59
             1240.24,214.31 1238.94,215.42 1238.94,216.05
             1238.94,216.68 1242.64,219.73 1247.16,222.84
             1252.90,226.80 1255.97,229.83 1257.38,232.96
             1258.49,235.41 1259.18,237.61 1258.91,237.85
             1258.65,238.09 1256.23,239.39 1253.55,240.75
             1253.55,240.75 1248.66,243.21 1248.66,243.21
             1248.66,243.21 1245.72,236.46 1245.72,236.46
             1242.43,228.91 1239.61,225.88 1234.64,224.54
             1232.14,223.87 1231.27,222.91 1231.27,220.84
             1231.27,218.95 1230.04,217.34 1227.44,215.81
             1223.65,213.59 1223.57,213.59 1219.54,216.09
             1215.50,218.58 1215.45,218.58 1214.21,216.27
             1213.52,214.98 1212.96,213.12 1212.96,212.12
             1212.96,211.13 1211.97,209.78 1210.75,209.13
             1208.95,208.17 1207.81,208.75 1204.49,212.34
             1202.26,214.75 1199.41,217.31 1198.15,218.03
             1196.19,219.14 1196.08,219.62 1197.43,221.24
             1198.30,222.29 1201.31,224.43 1204.11,225.99
             1208.56,228.48 1209.41,228.62 1210.92,227.12
             1212.34,225.69 1213.51,225.64 1217.82,226.81
             1217.82,226.81 1223.00,228.22 1223.00,228.22
             1223.00,228.22 1220.11,230.15 1220.11,230.15
             1214.75,233.73 1213.06,235.61 1212.30,238.84
             1211.67,241.49 1212.05,242.29 1214.43,243.38
             1216.02,244.10 1218.43,246.99 1219.80,249.80
             1221.16,252.60 1223.88,255.85 1225.85,257.01
             1230.17,259.56 1231.42,262.28 1228.93,263.67
             1226.60,264.98 1227.71,266.92 1230.78,266.92
             1234.46,266.92 1234.48,269.12 1230.93,281.78
             1226.62,297.12 1222.74,302.24 1212.57,305.96
             1208.56,307.42 1203.69,308.71 1201.74,308.82
             1197.21,309.07 1193.70,310.98 1190.63,314.88
             1190.63,314.88 1188.20,317.97 1188.20,317.97
             1188.20,317.97 1187.07,314.99 1187.07,314.99
             1185.59,311.10 1182.19,310.12 1177.32,312.18
             1172.86,314.07 1169.91,317.08 1168.72,320.97
             1167.66,324.46 1171.42,330.59 1177.65,335.52
             1182.77,339.57 1188.50,349.73 1189.85,357.13
             1191.02,363.56 1188.94,367.78 1183.38,370.29
             1180.84,371.44 1178.46,373.31 1178.10,374.46
             1177.22,377.22 1171.98,380.66 1171.02,379.10
             1170.62,378.45 1170.60,376.94 1170.98,375.74
             1171.36,374.53 1171.35,372.69 1170.94,371.64
             1170.36,370.12 1169.71,369.98 1167.85,370.98
             1165.91,372.02 1165.16,371.76 1163.59,369.48
             1159.73,363.89 1148.56,354.91 1145.47,354.91
             1144.38,354.91 1143.95,356.22 1144.14,359.05
             1144.29,361.32 1143.83,365.75 1143.11,368.90
             1141.94,374.02 1142.06,374.96 1144.26,377.93
             1145.61,379.76 1147.05,382.59 1147.46,384.22
             1147.88,385.88 1151.29,389.66 1155.20,392.80
             1161.71,398.02 1162.40,399.05 1165.14,407.72
             1166.76,412.85 1168.08,417.54 1168.08,418.16
             1168.08,420.16 1163.67,425.87 1163.88,429.32
             1163.91,429.97 1165.14,431.83 1166.59,433.45
             1168.05,435.08 1168.00,438.55 1172.70,440.24
             1177.40,441.94 1194.91,431.35 1193.47,425.19
             1193.07,423.49 1193.47,421.29 1194.39,420.02
             1195.75,418.17 1196.45,418.03 1198.59,419.18
             1200.85,420.38 1201.33,420.18 1202.56,417.46
             1203.34,415.76 1205.92,413.37 1208.30,412.16
             1210.81,410.88 1213.23,408.47 1214.09,406.40
             1215.08,404.02 1216.88,402.41 1219.59,401.52
             1221.80,400.79 1225.00,398.37 1226.69,396.15
             1228.39,393.93 1230.40,392.12 1231.17,392.12
             1231.94,392.12 1234.27,393.87 1236.35,396.01
             1236.35,396.01 1240.13,399.91 1240.13,399.91
             1240.13,399.91 1237.10,403.99 1237.10,403.99
             1233.66,408.61 1233.84,412.59 1237.74,418.07
             1237.74,418.07 1240.10,421.39 1240.10,421.39
             1240.10,421.39 1246.77,425.09 1248.65,423.20
             1251.23,420.63 1251.88,420.51 1257.67,421.61
             1262.65,422.55 1264.60,422.44 1267.31,421.04
             1271.85,418.69 1286.01,414.56 1288.18,414.56
             1289.92,414.56 1289.91,414.76 1288.10,416.75
             1286.54,418.48 1286.37,419.62 1287.30,422.06
             1289.17,426.99 1308.02,431.16 1309.45,431.13
             1312.21,431.09 1315.71,435.08 1315.71,438.28
             1315.71,439.35 1316.86,441.68 1318.27,443.47
             1320.78,446.66 1320.85,446.68 1322.69,444.37
             1323.73,443.08 1327.02,440.62 1330.02,438.90
             1330.02,438.90 1335.46,435.78 1335.46,435.78
             1335.46,435.78 1343.01,439.19 1343.01,439.19
             1347.16,441.06 1353.05,443.49 1356.10,444.59
             1359.15,445.69 1365.26,448.96 1369.66,451.86
             1378.08,457.38 1381.74,462.05 1379.64,464.57
             1377.93,466.63 1384.65,476.02 1391.60,481.28
             1399.24,487.07 1399.11,487.60 1390.71,484.95
             1390.71,484.95 1390.71,484.95 1390.71,484.95
             1383.24,482.60 1379.85,480.41 1376.91,476.04
             1373.55,471.04 1367.40,467.26 1364.26,468.26
             1362.99,468.66 1360.85,470.85 1359.51,473.13
             1357.22,477.00 1355.45,490.63 1356.46,494.10
             1357.47,497.58 1359.59,501.64 1361.17,503.12
             1364.85,506.58 1367.00,516.27 1365.34,521.99
             1364.24,525.79 1364.46,526.39 1368.22,530.26
             1370.45,532.56 1373.98,538.16 1376.06,542.70
             1378.14,547.25 1381.90,553.68 1384.41,557.00
             1384.41,557.00 1388.96,563.03 1388.96,563.03
             1388.96,563.03 1387.67,572.35 1387.67,572.35
             1386.73,579.10 1385.27,583.61 1382.37,588.76
             1377.92,596.64 1371.26,604.16 1367.75,605.28
             1366.49,605.68 1363.57,608.64 1361.26,611.85
             1358.95,615.07 1356.54,617.70 1355.90,617.70
             1355.26,617.70 1352.56,620.46 1349.90,623.83
             1345.45,629.46 1344.63,629.98 1340.00,630.06
             1336.44,630.13 1333.72,631.09 1330.80,633.32
             1330.80,633.32 1326.65,636.48 1326.65,636.48
             1326.65,636.48 1323.93,633.59 1323.93,633.59
             1323.93,633.59 1323.93,633.59 1323.93,633.59
             1321.44,630.94 1320.98,630.84 1318.59,632.40
             1315.55,634.40 1309.83,633.23 1305.24,629.68
             1302.79,627.79 1302.62,627.18 1303.88,624.82
             1304.96,622.81 1305.00,621.40 1304.02,619.27
             1303.31,617.69 1302.72,615.37 1302.72,614.10
             1302.72,611.24 1300.86,611.10 1299.33,613.85
             1298.69,614.98 1297.84,615.57 1297.42,615.16
             1297.01,614.74 1298.38,612.46 1300.46,610.09
             1305.59,604.24 1303.59,602.65 1296.81,607.20
             1293.89,609.15 1291.31,611.29 1291.08,611.94
             1290.85,612.60 1289.45,610.58 1287.96,607.45
             1286.35,604.05 1283.57,600.64 1281.07,599.00
             1277.32,596.52 1276.05,596.32 1268.84,597.04
             1258.27,598.09 1248.07,600.70 1241.39,604.05
             1238.36,605.58 1232.43,607.14 1227.87,607.62
             1223.40,608.09 1216.29,609.77 1212.07,611.36
             1205.62,613.79 1203.79,614.04 1200.52,612.96
             1196.14,611.52 1194.32,608.53 1197.15,607.45
             1198.18,607.05 1200.04,604.34 1201.29,601.42
             1203.30,596.75 1203.41,595.30 1202.22,589.26
             1201.24,584.27 1201.21,579.54 1202.12,571.85
             1202.80,566.04 1203.07,560.15 1202.70,558.75
             1202.34,557.36 1202.91,553.94 1203.97,551.15
             1205.84,546.25 1206.30,545.93 1218.97,540.56
             1226.15,537.52 1233.51,535.03 1235.31,535.03
             1240.20,535.03 1246.24,530.38 1249.57,524.07
             1251.63,520.17 1253.06,518.68 1254.30,519.16
             1257.75,520.50 1258.43,520.23 1258.16,517.68
             1257.99,516.03 1258.70,514.83 1260.11,514.39
             1261.32,514.00 1263.57,511.85 1265.10,509.61
             1266.67,507.31 1269.89,504.73 1272.47,503.69
             1276.78,501.96 1277.21,501.98 1279.56,504.12
             1283.88,508.05 1286.95,509.20 1288.42,507.43
             1289.13,506.57 1289.37,505.53 1288.96,505.12
             1287.61,503.77 1293.79,496.01 1296.82,495.26
             1298.44,494.86 1301.78,493.53 1304.23,492.30
             1308.05,490.39 1309.39,490.26 1313.67,491.41
             1322.91,493.89 1323.22,494.29 1319.78,499.48
             1315.36,506.16 1316.53,508.77 1327.37,516.39
             1332.37,519.91 1337.09,522.58 1337.86,522.33
             1338.63,522.07 1341.06,519.38 1343.27,516.34
             1346.27,512.20 1347.44,509.19 1347.92,504.32
             1348.60,497.40 1351.91,487.78 1353.60,487.78
             1354.16,487.78 1356.78,477.21 1352.63,476.47
             1350.19,476.04 1346.78,474.37 1345.06,472.76
             1342.86,470.72 1341.18,470.07 1339.47,470.61
             1338.12,471.04 1336.17,470.92 1335.13,470.34
             1333.51,469.43 1333.67,469.00 1336.27,467.30
             1339.27,465.33 1339.28,465.30 1337.26,461.07
             1335.64,457.67 1333.40,455.90 1326.09,452.22
             1321.06,449.69 1315.38,447.63 1313.46,447.63
             1309.06,447.63 1307.25,443.58 1310.56,441.16
             1312.53,439.72 1312.24,439.36 1307.11,436.87
             1301.65,434.22 1298.65,435.07 1301.25,433.62
             1302.72,432.81 1287.13,430.39 1284.11,427.37 Z" />
</svg>
